Kreon-Bold-TTF.ufo
<glyph name="exclam" format="1">
  <advance width="276"/>
  <unicode hex="0021"/>
  <outline>
    <contour>
      <point x="97" y="247" type="line" name="hr00"/>
      <point x="58" y="675" type="line" name="ah01"/>
      <point x="202" y="689" type="line" name="mv01"/>
      <point x="223" y="651" type="line" name="mh01"/>
      <point x="175" y="247" type="line" name="mv02"/>
    </contour>
    <contour>
      <point x="70" y="63" type="curve" smooth="yes"/>
      <point x="70" y="100.793"/>
      <point x="100.794" y="129"/>
      <point x="138" y="129" type="curve" smooth="yes"/>
      <point x="174.903" y="129"/>
      <point x="204" y="99.8893"/>
      <point x="204" y="63" type="curve" smooth="yes"/>
      <point x="204" y="26.3254"/>
      <point x="175.041" y="-4"/>
      <point x="138" y="-4" type="curve" smooth="yes"/>
      <point x="100.623" y="-4"/>
      <point x="70" y="25.3323"/>
    </contour>
  </outline>
</glyph>
<glyph name="dollar" format="1">
  <advance width="511"/>
  <unicode hex="0024"/>
  <outline>
    <contour>
      <point x="214" y="-154" type="line" name="hr00"/>
      <point x="214" y="-2" type="line"/>
      <point x="156.065" y="2.82668"/>
      <point x="100.562" y="19.947"/>
      <point x="47" y="42" type="curve"/>
      <point x="33" y="232" type="line"/>
      <point x="120" y="232" type="line"/>
      <point x="151" y="115" type="line"/>
      <point x="180.02" y="105.373"/>
      <point x="212.496" y="101"/>
      <point x="243" y="101" type="curve" smooth="yes"/>
      <point x="301.853" y="101"/>
      <point x="344" y="128.069"/>
      <point x="344" y="191" type="curve" smooth="yes"/>
      <point x="344" y="316.207"/>
      <point x="37" y="279.527"/>
      <point x="37" y="503" type="curve" smooth="yes"/>
      <point x="37" y="607.846"/>
      <point x="116.287" y="672.159"/>
      <point x="214" y="688" type="curve"/>
      <point x="214" y="807" type="line"/>
      <point x="313" y="807" type="line"/>
      <point x="313" y="692" type="line"/>
      <point x="361.396" y="688.461"/>
      <point x="406.938" y="679.307"/>
      <point x="452" y="661" type="curve"/>
      <point x="467" y="474" type="line"/>
      <point x="383" y="474" type="line"/>
      <point x="338" y="577" type="line"/>
      <point x="316.165" y="585.392"/>
      <point x="293.261" y="588"/>
      <point x="270" y="588" type="curve" smooth="yes"/>
      <point x="220.176" y="588"/>
      <point x="174" y="570.273"/>
      <point x="174" y="513" type="curve" smooth="yes"/>
      <point x="174" y="500.322"/>
      <point x="177.11" y="487.921"/>
      <point x="184.5" y="477.5" type="curve" smooth="yes"/>
      <point x="234.404" y="407.121"/>
      <point x="481" y="382.312"/>
      <point x="481" y="203" type="curve" smooth="yes"/>
      <point x="481" y="93.6082"/>
      <point x="419.212" y="23.2382"/>
      <point x="313" y="2" type="curve"/>
      <point x="313" y="-154" type="line"/>
    </contour>
  </outline>
</glyph>
<glyph name="percent" format="1">
  <advance width="823"/>
  <unicode hex="0025"/>
  <outline>
    <contour>
      <point x="581" y="180" type="curve" smooth="yes" name="hr00"/>
      <point x="581" y="147.598"/>
      <point x="588.082" y="90"/>
      <point x="631" y="90" type="curve" smooth="yes"/>
      <point x="673.042" y="90"/>
      <point x="681" y="148.254"/>
      <point x="681" y="180" type="curve" smooth="yes"/>
      <point x="681" y="211.704"/>
      <point x="672.682" y="268"/>
      <point x="631" y="268" type="curve" smooth="yes"/>
      <point x="588.442" y="268"/>
      <point x="581" y="212.369"/>
    </contour>
    <contour>
      <point x="465" y="180" type="curve" smooth="yes"/>
      <point x="465" y="276.412"/>
      <point x="529.527" y="362"/>
      <point x="631" y="362" type="curve" smooth="yes" name="mv01"/>
      <point x="737.045" y="362"/>
      <point x="795" y="279.907"/>
      <point x="795" y="180" type="curve" smooth="yes"/>
      <point x="795" y="84.4647"/>
      <point x="732.791" y="-4"/>
      <point x="631" y="-4" type="curve" smooth="yes"/>
      <point x="528.69" y="-4"/>
      <point x="465" y="83.4253"/>
    </contour>
    <contour>
      <point x="254" y="0" type="line"/>
      <point x="130" y="0" type="line"/>
      <point x="120" y="13" type="line"/>
      <point x="564" y="691" type="line"/>
      <point x="688" y="691" type="line"/>
      <point x="698" y="677" type="line"/>
    </contour>
    <contour>
      <point x="144" y="517" type="curve" smooth="yes" name="mh01"/>
      <point x="144" y="484.598"/>
      <point x="151.082" y="427"/>
      <point x="194" y="427" type="curve" smooth="yes"/>
      <point x="236.042" y="427"/>
      <point x="244" y="485.254"/>
      <point x="244" y="517" type="curve" smooth="yes" name="mh03"/>
      <point x="244" y="548.704"/>
      <point x="235.682" y="605"/>
      <point x="194" y="605" type="curve" smooth="yes"/>
      <point x="151.442" y="605"/>
      <point x="144" y="549.369"/>
    </contour>
    <contour>
      <point x="28" y="517" type="curve" smooth="yes"/>
      <point x="28" y="613.412"/>
      <point x="92.5269" y="699"/>
      <point x="194" y="699" type="curve" smooth="yes" name="mh06"/>
      <point x="300.045" y="699"/>
      <point x="358" y="616.907"/>
      <point x="358" y="517" type="curve" smooth="yes"/>
      <point x="358" y="421.465"/>
      <point x="295.791" y="333"/>
      <point x="194" y="333" type="curve" smooth="yes" name="mh08"/>
      <point x="91.6901" y="333"/>
      <point x="28" y="420.425"/>
    </contour>
  </outline>
</glyph>
<glyph name="ampersand" format="1">
  <advance width="710"/>
  <unicode hex="0026"/>
  <outline>
    <contour>
      <point x="609" y="383" type="line" name="hr00"/>
      <point x="596.761" y="291.559"/>
      <point x="569.357" y="237.64"/>
      <point x="531" y="157" type="curve"/>
      <point x="550.987" y="137.845"/>
      <point x="574.194" y="112.914"/>
      <point x="598" y="99" type="curve"/>
      <point x="642" y="148" type="line"/>
      <point x="718" y="52" type="line"/>
      <point x="687.07" y="10.0794"/>
      <point x="642.708" y="-2"/>
      <point x="593" y="-2" type="curve" smooth="yes"/>
      <point x="537.821" y="-2"/>
      <point x="485.676" y="13.3147"/>
      <point x="446" y="53" type="curve"/>
      <point x="395.841" y="12.8783"/>
      <point x="337.602" y="-4"/>
      <point x="274" y="-4" type="curve" smooth="yes"/>
      <point x="141.478" y="-4"/>
      <point x="28" y="64.9391"/>
      <point x="28" y="209" type="curve" smooth="yes"/>
      <point x="28" y="291.905"/>
      <point x="78.1639" y="355.109"/>
      <point x="144" y="400" type="curve" name="mh01"/>
      <point x="111.411" y="447.524"/>
      <point x="88" y="496.24"/>
      <point x="88" y="555" type="curve" smooth="yes"/>
      <point x="88" y="673.435"/>
      <point x="160.903" y="735"/>
      <point x="276" y="735" type="curve" smooth="yes" name="mh02"/>
      <point x="368.867" y="735"/>
      <point x="439" y="685.396"/>
      <point x="439" y="587" type="curve" smooth="yes"/>
      <point x="439" y="501.5"/>
      <point x="383.739" y="431.582"/>
      <point x="322" y="378" type="curve" name="hr02"/>
      <point x="362.57" y="330.669"/>
      <point x="402.862" y="284.136"/>
      <point x="447" y="240" type="curve"/>
      <point x="458.075" y="263.535"/>
      <point x="465.904" y="288.514"/>
      <point x="471" y="314" type="curve" name="mh03"/>
      <point x="424" y="314" type="line" name="mh04"/>
      <point x="403" y="399" type="line"/>
      <point x="594" y="399" type="line"/>
    </contour>
    <contour>
      <point x="208" y="320" type="curve"/>
      <point x="176.393" y="288.399"/>
      <point x="159" y="255.366"/>
      <point x="159" y="210" type="curve" smooth="yes"/>
      <point x="159" y="142.415"/>
      <point x="213.511" y="96"/>
      <point x="279" y="96" type="curve" smooth="yes"/>
      <point x="311.649" y="96"/>
      <point x="341.941" y="109.707"/>
      <point x="367" y="130" type="curve" name="mh05"/>
      <point x="309.13" y="189.679"/>
      <point x="259.952" y="255.289"/>
    </contour>
    <contour>
      <point x="208" y="575" type="curve" smooth="yes" name="hr01"/>
      <point x="208" y="539.344"/>
      <point x="232.781" y="499.825"/>
      <point x="252" y="471" type="curve"/>
      <point x="282.051" y="498.902"/>
      <point x="316" y="536.621"/>
      <point x="316" y="580" type="curve" smooth="yes"/>
      <point x="316" y="612.505"/>
      <point x="296.015" y="635"/>
      <point x="263" y="635" type="curve" smooth="yes"/>
      <point x="227.485" y="635"/>
      <point x="208" y="608.88"/>
    </contour>
  </outline>
</glyph>
<glyph name="parenleft" format="1">
  <advance width="310"/>
  <unicode hex="0028"/>
  <outline>
    <contour>
      <point x="282" y="-162" type="line" name="hr00"/>
      <point x="221.509" y="-15.4699"/>
      <point x="183" y="131.13"/>
      <point x="183" y="291" type="curve" smooth="yes"/>
      <point x="183" y="437.687"/>
      <point x="212.456" y="610.883"/>
      <point x="282" y="742" type="curve"/>
      <point x="156" y="742" type="line"/>
      <point x="80.857" y="611.858"/>
      <point x="47" y="438.436"/>
      <point x="47" y="290" type="curve" smooth="yes"/>
      <point x="47" y="132.168"/>
      <point x="87.22" y="-20.6694"/>
      <point x="156" y="-162" type="curve"/>
    </contour>
  </outline>
</glyph>
<glyph name="parenright" format="1">
  <advance width="311"/>
  <unicode hex="0029"/>
  <outline>
    <contour>
      <point x="154" y="-162" type="line" name="hr00"/>
      <point x="223.111" y="-20.0505"/>
      <point x="264" y="131.257"/>
      <point x="264" y="290" type="curve" smooth="yes"/>
      <point x="264" y="439.201"/>
      <point x="229.479" y="611.309"/>
      <point x="154" y="742" type="curve"/>
      <point x="28" y="742" type="line"/>
      <point x="98.1597" y="612.664"/>
      <point x="127" y="436.173"/>
      <point x="127" y="291" type="curve" smooth="yes"/>
      <point x="127" y="131.13"/>
      <point x="88.4912" y="-15.4699"/>
      <point x="28" y="-162" type="curve"/>
    </contour>
  </outline>
</glyph>
<glyph name="zero" format="1">
  <advance width="590"/>
  <unicode hex="0030"/>
  <outline>
    <contour>
      <point x="37" y="343" type="curve" smooth="yes" name="hr00"/>
      <point x="37" y="507.539"/>
      <point x="99.5505" y="690"/>
      <point x="294" y="690" type="curve" smooth="yes" name="mh01"/>
      <point x="488.126" y="690"/>
      <point x="553" y="508.06"/>
      <point x="553" y="343" type="curve" smooth="yes" name="mh02"/>
      <point x="553" y="178.227"/>
      <point x="487.685" y="-4"/>
      <point x="294" y="-4" type="curve" smooth="yes"/>
      <point x="99.9891" y="-4"/>
      <point x="37" y="178.741"/>
    </contour>
    <contour>
      <point x="175" y="343" type="curve" smooth="yes" name="mh03"/>
      <point x="175" y="264.457"/>
      <point x="184.801" y="101"/>
      <point x="294" y="101" type="curve" smooth="yes"/>
      <point x="403.377" y="101"/>
      <point x="415" y="263.49"/>
      <point x="415" y="343" type="curve" smooth="yes" name="mh04"/>
      <point x="415" y="422.51"/>
      <point x="403.377" y="585"/>
      <point x="294" y="585" type="curve" smooth="yes"/>
      <point x="184.801" y="585"/>
      <point x="175" y="421.543"/>
    </contour>
  </outline>
</glyph>
<glyph name="two" format="1">
  <advance width="538"/>
  <unicode hex="0032"/>
  <outline>
    <contour>
      <point x="53" y="0" type="line" name="hr00"/>
      <point x="38" y="81" type="line"/>
      <point x="117.062" y="176.935"/>
      <point x="332" y="368.732"/>
      <point x="332" y="496" type="curve" smooth="yes"/>
      <point x="332" y="552.257"/>
      <point x="303.559" y="584"/>
      <point x="246" y="584" type="curve" smooth="yes"/>
      <point x="225.79" y="584"/>
      <point x="204.651" y="582.453"/>
      <point x="186" y="574" type="curve"/>
      <point x="142" y="470" type="line"/>
      <point x="14" y="535" type="line"/>
      <point x="65.9982" y="627.441"/>
      <point x="158.53" y="689"/>
      <point x="266" y="689" type="curve" smooth="yes" name="mh01"/>
      <point x="379.633" y="689"/>
      <point x="470" y="618.079"/>
      <point x="470" y="500" type="curve" smooth="yes"/>
      <point x="470" y="352.975"/>
      <point x="300.443" y="201.43"/>
      <point x="204" y="105" type="curve"/>
      <point x="391" y="105" type="line"/>
      <point x="432" y="215" type="line"/>
      <point x="510" y="215" type="line"/>
      <point x="488" y="0" type="line"/>
    </contour>
  </outline>
</glyph>
<glyph name="three" format="1">
  <advance width="522"/>
  <unicode hex="0033"/>
  <outline>
    <contour>
      <point x="96" y="176" type="line" name="hr00"/>
      <point x="140.079" y="134.676"/>
      <point x="187.117" y="100"/>
      <point x="250" y="100" type="curve" smooth="yes"/>
      <point x="304.271" y="100"/>
      <point x="346" y="134.287"/>
      <point x="346" y="191" type="curve" smooth="yes"/>
      <point x="346" y="301.193"/>
      <point x="207.72" y="290"/>
      <point x="135" y="290" type="curve"/>
      <point x="135" y="395" type="line"/>
      <point x="213.271" y="395"/>
      <point x="331" y="389.718"/>
      <point x="331" y="500" type="curve" smooth="yes"/>
      <point x="331" y="547.996"/>
      <point x="295.783" y="585"/>
      <point x="247" y="585" type="curve" smooth="yes"/>
      <point x="228.477" y="585"/>
      <point x="201.098" y="584.8"/>
      <point x="184" y="578" type="curve"/>
      <point x="138" y="470" type="line"/>
      <point x="17" y="535" type="line"/>
      <point x="70.5606" y="633.196"/>
      <point x="149.879" y="690"/>
      <point x="264" y="690" type="curve" smooth="yes"/>
      <point x="372.929" y="690"/>
      <point x="470" y="620.322"/>
      <point x="470" y="505" type="curve" smooth="yes"/>
      <point x="470" y="436.888"/>
      <point x="428.942" y="363.182"/>
      <point x="358" y="349" type="curve"/>
      <point x="435.101" y="332.756"/>
      <point x="484" y="281.612"/>
      <point x="484" y="201" type="curve" smooth="yes"/>
      <point x="484" y="72.9464"/>
      <point x="373.165" y="-4"/>
      <point x="253" y="-4" type="curve" smooth="yes"/>
      <point x="174.723" y="-4"/>
      <point x="82.182" y="15.8744"/>
      <point x="25" y="73" type="curve" name="hr01"/>
    </contour>
  </outline>
</glyph>
<glyph name="five" format="1">
  <advance width="517"/>
  <unicode hex="0035"/>
  <outline>
    <contour>
      <point x="104" y="691" type="line" name="hr00"/>
      <point x="467" y="691" type="line" name="mv01"/>
      <point x="467" y="585" type="line" name="mv02"/>
      <point x="205" y="585" type="line" name="mh01"/>
      <point x="205" y="470" type="line" name="mh02"/>
      <point x="216.951" y="471.328"/>
      <point x="228.975" y="472"/>
      <point x="241" y="472" type="curve" smooth="yes"/>
      <point x="383.162" y="472"/>
      <point x="483" y="385.562"/>
      <point x="483" y="240" type="curve" smooth="yes" name="mh04"/>
      <point x="483" y="84.3182"/>
      <point x="369.206" y="-4"/>
      <point x="220" y="-4" type="curve" smooth="yes" name="mh06"/>
      <point x="145.231" y="-4"/>
      <point x="65.0543" y="18.9876"/>
      <point x="11" y="73" type="curve" name="mh07"/>
      <point x="71" y="171" type="line"/>
      <point x="104.763" y="130.501"/>
      <point x="155.191" y="100"/>
      <point x="209" y="100" type="curve" smooth="yes" name="mv03"/>
      <point x="287.148" y="100"/>
      <point x="345" y="159.258"/>
      <point x="345" y="237" type="curve" smooth="yes"/>
      <point x="345" y="324.961"/>
      <point x="267.806" y="372"/>
      <point x="187" y="372" type="curve" smooth="yes" name="mh08"/>
      <point x="148.375" y="372"/>
      <point x="110.899" y="366.355"/>
      <point x="74" y="355" type="curve" name="mh09"/>
      <point x="74" y="658" type="line"/>
    </contour>
  </outline>
</glyph>
<glyph name="six" format="1">
  <advance width="554"/>
  <unicode hex="0036"/>
  <outline>
    <contour>
      <point x="317" y="692" type="curve" smooth="yes" name="ah01"/>
      <point x="401.018" y="692"/>
      <point x="466.247" y="658.002"/>
      <point x="513" y="588" type="curve" name="mh01"/>
      <point x="398" y="514" type="line" name="mh02"/>
      <point x="349" y="582" type="line" name="mh03"/>
      <point x="335.951" y="585.694"/>
      <point x="322.523" y="587"/>
      <point x="309" y="587" type="curve" smooth="yes" name="mv01"/>
      <point x="214.472" y="587"/>
      <point x="176.153" y="452.886"/>
      <point x="172" y="378" type="curve"/>
      <point x="206.527" y="417.022"/>
      <point x="265.311" y="434"/>
      <point x="316" y="434" type="curve" smooth="yes"/>
      <point x="439.09" y="434"/>
      <point x="522" y="342.577"/>
      <point x="522" y="222" type="curve" smooth="yes"/>
      <point x="522" y="83.5766"/>
      <point x="431.683" y="-4"/>
      <point x="294" y="-4" type="curve" smooth="yes"/>
      <point x="93.9412" y="-4"/>
      <point x="36" y="182.171"/>
      <point x="36" y="350" type="curve" smooth="yes"/>
      <point x="36" y="515.248"/>
      <point x="132.355" y="692"/>
    </contour>
    <contour>
      <point x="288" y="327" type="curve" smooth="yes"/>
      <point x="217.601" y="327"/>
      <point x="189" y="269.397"/>
      <point x="189" y="207" type="curve" smooth="yes" name="mh06"/>
      <point x="189" y="190.755"/>
      <point x="215.81" y="144.244"/>
      <point x="227" y="131" type="curve" smooth="yes"/>
      <point x="243.806" y="111.109"/>
      <point x="265.97" y="101"/>
      <point x="292" y="101" type="curve" smooth="yes"/>
      <point x="361.455" y="101"/>
      <point x="385" y="154.218"/>
      <point x="385" y="216" type="curve" smooth="yes" name="mh07"/>
      <point x="385" y="270.788"/>
      <point x="347.29" y="327"/>
    </contour>
  </outline>
</glyph>
<glyph name="seven" format="1">
  <advance width="455"/>
  <unicode hex="0037"/>
  <outline>
    <contour>
      <point x="129" y="567" type="line" name="hr01"/>
      <point x="108" y="454" type="line"/>
      <point x="24" y="454" type="line"/>
      <point x="24" y="691" type="line" name="mv01"/>
      <point x="440" y="691" type="line"/>
      <point x="458" y="665" type="line"/>
      <point x="251" y="0" type="line"/>
      <point x="115" y="0" type="line"/>
      <point x="104" y="20" type="line"/>
      <point x="324" y="567" type="line" name="mh01"/>
    </contour>
  </outline>
</glyph>
<glyph name="eight" format="1">
  <advance width="545"/>
  <unicode hex="0038"/>
  <outline>
    <contour>
      <point x="69" y="526" type="curve" smooth="yes" name="mh01"/>
      <point x="69" y="640.257"/>
      <point x="173.237" y="696"/>
      <point x="276" y="696" type="curve" smooth="yes" name="mh03"/>
      <point x="379.132" y="696"/>
      <point x="480" y="642.734"/>
      <point x="480" y="528" type="curve" smooth="yes"/>
      <point x="480" y="460.336"/>
      <point x="436.032" y="411.72"/>
      <point x="384" y="374" type="curve"/>
      <point x="459.107" y="331.94"/>
      <point x="512" y="286.793"/>
      <point x="512" y="194" type="curve" smooth="yes" name="mh04"/>
      <point x="512" y="60.5738"/>
      <point x="389.942" y="-5"/>
      <point x="270" y="-5" type="curve" smooth="yes"/>
      <point x="153.91" y="-5"/>
      <point x="33" y="52.3991"/>
      <point x="33" y="184" type="curve" smooth="yes" name="mh06"/>
      <point x="33" y="267.421"/>
      <point x="75.2314" y="337.112"/>
      <point x="149" y="376" type="curve"/>
      <point x="95.5129" y="414.2"/>
      <point x="69" y="459.824"/>
    </contour>
    <contour>
      <point x="171" y="197" type="curve" smooth="yes"/>
      <point x="171" y="136.961"/>
      <point x="213.935" y="100"/>
      <point x="273" y="100" type="curve" smooth="yes"/>
      <point x="330.138" y="100"/>
      <point x="374" y="140.263"/>
      <point x="374" y="198" type="curve" smooth="yes"/>
      <point x="374" y="265.656"/>
      <point x="302" y="294.5"/>
      <point x="251" y="320" type="curve"/>
      <point x="209.801" y="292.536"/>
      <point x="171" y="249.232"/>
    </contour>
    <contour>
      <point x="355" y="532" type="curve" smooth="yes"/>
      <point x="355" y="580.322"/>
      <point x="322.144" y="610"/>
      <point x="275" y="610" type="curve" smooth="yes"/>
      <point x="228.147" y="610"/>
      <point x="195" y="581.157"/>
      <point x="195" y="533" type="curve" smooth="yes"/>
      <point x="195" y="478.07"/>
      <point x="238.037" y="447.761"/>
      <point x="282" y="424" type="curve"/>
      <point x="316.251" y="450.348"/>
      <point x="355" y="485.104"/>
    </contour>
  </outline>
</glyph>
<glyph name="nine" format="1">
  <advance width="543"/>
  <unicode hex="0039"/>
  <outline>
    <contour>
      <point x="234" y="-4" type="curve" smooth="yes" name="hr00"/>
      <point x="164.709" y="-4"/>
      <point x="76.9658" y="23.1491"/>
      <point x="27" y="73" type="curve"/>
      <point x="98" y="167" type="line"/>
      <point x="137.043" y="130.556"/>
      <point x="188.123" y="101"/>
      <point x="243" y="101" type="curve" smooth="yes"/>
      <point x="343.779" y="101"/>
      <point x="363.258" y="210.298"/>
      <point x="367" y="289" type="curve"/>
      <point x="336.329" y="261.857"/>
      <point x="293.623" y="249"/>
      <point x="253" y="249" type="curve" smooth="yes"/>
      <point x="122.342" y="249"/>
      <point x="39" y="325.489"/>
      <point x="39" y="458" type="curve" smooth="yes"/>
      <point x="39" y="600.976"/>
      <point x="127.961" y="691"/>
      <point x="271" y="691" type="curve" smooth="yes" name="mh01"/>
      <point x="459.931" y="691"/>
      <point x="506" y="489.766"/>
      <point x="506" y="338" type="curve" smooth="yes"/>
      <point x="506" y="171.009"/>
      <point x="423.612" y="-4"/>
    </contour>
    <contour>
      <point x="262" y="354" type="curve" smooth="yes"/>
      <point x="307.173" y="354"/>
      <point x="349.529" y="385.802"/>
      <point x="366" y="427" type="curve"/>
      <point x="361.996" y="493.089"/>
      <point x="346.582" y="586"/>
      <point x="262" y="586" type="curve" smooth="yes"/>
      <point x="198.225" y="586"/>
      <point x="175" y="520.849"/>
      <point x="175" y="467" type="curve" smooth="yes"/>
      <point x="175" y="410.333"/>
      <point x="196.751" y="354"/>
    </contour>
  </outline>
</glyph>
<glyph name="colon" format="1">
  <advance width="241"/>
  <unicode hex="003A"/>
  <outline>
    <contour>
      <point x="54" y="193" type="curve" smooth="yes" name="hr00"/>
      <point x="54" y="230.793"/>
      <point x="84.7939" y="259"/>
      <point x="122" y="259" type="curve" smooth="yes" name="mv01"/>
      <point x="158.903" y="259"/>
      <point x="188" y="229.889"/>
      <point x="188" y="193" type="curve" smooth="yes" name="mh03"/>
      <point x="188" y="156.325"/>
      <point x="159.041" y="126"/>
      <point x="122" y="126" type="curve" smooth="yes" name="mv02"/>
      <point x="84.6231" y="126"/>
      <point x="54" y="155.332"/>
    </contour>
    <contour>
      <point x="54" y="455" type="curve" smooth="yes" name="mh05"/>
      <point x="54" y="492.668"/>
      <point x="84.6231" y="522"/>
      <point x="122" y="522" type="curve" smooth="yes" name="ah01"/>
      <point x="159.041" y="522"/>
      <point x="188" y="491.675"/>
      <point x="188" y="455" type="curve" smooth="yes" name="mh06"/>
      <point x="188" y="418.993"/>
      <point x="158.285" y="388"/>
      <point x="122" y="388" type="curve" smooth="yes" name="mv04"/>
      <point x="85.28" y="388"/>
      <point x="54" y="417.931"/>
    </contour>
  </outline>
</glyph>
<glyph name="semicolon" format="1">
  <advance width="248"/>
  <unicode hex="003B"/>
  <outline>
    <contour>
      <point x="24" y="-123" type="line" name="hr00"/>
      <point x="75" y="-11" type="line"/>
      <point x="49" y="114" type="line"/>
      <point x="186" y="133" type="line"/>
      <point x="192.747" y="105.674"/>
      <point x="194" y="75.0672"/>
      <point x="194" y="47" type="curve" smooth="yes"/>
      <point x="194" y="-29.349"/>
      <point x="157.389" y="-113.348"/>
      <point x="111" y="-173" type="curve"/>
      <point x="27" y="-134" type="line"/>
    </contour>
    <contour>
      <point x="58" y="295" type="curve" smooth="yes"/>
      <point x="58" y="332.668"/>
      <point x="88.6231" y="362"/>
      <point x="126" y="362" type="curve" smooth="yes"/>
      <point x="163.041" y="362"/>
      <point x="192" y="331.675"/>
      <point x="192" y="295" type="curve" smooth="yes"/>
      <point x="192" y="258.993"/>
      <point x="162.285" y="228"/>
      <point x="126" y="228" type="curve" smooth="yes"/>
      <point x="89.28" y="228"/>
      <point x="58" y="257.931"/>
    </contour>
  </outline>
</glyph>
<glyph name="question" format="1">
  <advance width="429"/>
  <unicode hex="003F"/>
  <outline>
    <contour>
      <point x="128" y="235" type="line" name="hr00"/>
      <point x="121.083" y="252.934"/>
      <point x="118" y="282.622"/>
      <point x="118" y="302" type="curve" smooth="yes"/>
      <point x="118" y="420.755"/>
      <point x="264" y="445.144"/>
      <point x="264" y="534" type="curve" smooth="yes"/>
      <point x="264" y="574.511"/>
      <point x="238.371" y="599"/>
      <point x="198" y="599" type="curve" smooth="yes"/>
      <point x="181.559" y="599"/>
      <point x="153.196" y="596.626"/>
      <point x="138" y="591" type="curve"/>
      <point x="113" y="495" type="line"/>
      <point x="32" y="495" type="line"/>
      <point x="48" y="670" type="line" name="mh01"/>
      <point x="102.711" y="688.805"/>
      <point x="156.853" y="702"/>
      <point x="215" y="702" type="curve" smooth="yes" name="mh02"/>
      <point x="310.87" y="702"/>
      <point x="401" y="658.457"/>
      <point x="401" y="551" type="curve" smooth="yes"/>
      <point x="401" y="365.857"/>
      <point x="217.593" y="360.16"/>
      <point x="227" y="236" type="curve"/>
    </contour>
    <contour>
      <point x="111" y="63" type="curve" smooth="yes"/>
      <point x="111" y="100.665"/>
      <point x="140.697" y="129"/>
      <point x="178" y="129" type="curve" smooth="yes" name="hr01"/>
      <point x="215.467" y="129"/>
      <point x="244" y="100.467"/>
      <point x="244" y="63" type="curve" smooth="yes"/>
      <point x="244" y="25.6971"/>
      <point x="215.665" y="-4"/>
      <point x="178" y="-4" type="curve" smooth="yes"/>
      <point x="140.495" y="-4"/>
      <point x="111" y="25.495"/>
    </contour>
  </outline>
</glyph>
<glyph name="at" format="1">
  <advance width="879"/>
  <unicode hex="0040"/>
  <outline>
    <contour>
      <point x="460" y="526" type="curve" smooth="yes" name="hr00"/>
      <point x="499.625" y="526"/>
      <point x="539.422" y="517.773"/>
      <point x="575" y="500" type="curve"/>
      <point x="602" y="509" type="line"/>
      <point x="635" y="498" type="line"/>
      <point x="635" y="244" type="line" smooth="yes"/>
      <point x="635" y="219.305"/>
      <point x="637.731" y="205"/>
      <point x="666" y="205" type="curve" smooth="yes"/>
      <point x="672.767" y="205"/>
      <point x="679.233" y="210.475"/>
      <point x="684" y="214.5" type="curve" smooth="yes"/>
      <point x="719.782" y="244.712"/>
      <point x="729" y="324.76"/>
      <point x="729" y="369" type="curve" smooth="yes"/>
      <point x="729" y="532.621"/>
      <point x="599.909" y="612"/>
      <point x="449" y="612" type="curve" smooth="yes"/>
      <point x="279.1" y="612"/>
      <point x="153" y="490.974"/>
      <point x="153" y="320" type="curve" smooth="yes"/>
      <point x="153" y="136.783"/>
      <point x="280.268" y="23"/>
      <point x="460" y="23" type="curve" smooth="yes"/>
      <point x="498.173" y="23"/>
      <point x="551.189" y="28.069"/>
      <point x="586" y="44" type="curve"/>
      <point x="609" y="40" type="line"/>
      <point x="573" y="-76" type="line"/>
      <point x="531.53" y="-88.7391"/>
      <point x="484.219" y="-92"/>
      <point x="441" y="-92" type="curve" smooth="yes"/>
      <point x="197.244" y="-92"/>
      <point x="32" y="80.1434"/>
      <point x="32" y="322" type="curve" smooth="yes"/>
      <point x="32" y="566.812"/>
      <point x="222.971" y="729"/>
      <point x="461" y="729" type="curve" smooth="yes"/>
      <point x="669.853" y="729"/>
      <point x="850" y="588.335"/>
      <point x="850" y="370" type="curve" smooth="yes"/>
      <point x="850" y="250.416"/>
      <point x="783.881" y="100"/>
      <point x="645" y="100" type="curve" smooth="yes"/>
      <point x="610.479" y="100"/>
      <point x="573.404" y="106.617"/>
      <point x="548" y="132" type="curve"/>
      <point x="516.242" y="108.822"/>
      <point x="474.5" y="101"/>
      <point x="436" y="101" type="curve" smooth="yes"/>
      <point x="315.206" y="101"/>
      <point x="235" y="189.801"/>
      <point x="235" y="308" type="curve" smooth="yes"/>
      <point x="235" y="440.713"/>
      <point x="328.992" y="526"/>
    </contour>
    <contour>
      <point x="459" y="186" type="curve" smooth="yes"/>
      <point x="479.119" y="186"/>
      <point x="498.76" y="193.392"/>
      <point x="515" y="205" type="curve"/>
      <point x="514.38" y="209.302"/>
      <point x="514" y="213.651"/>
      <point x="514" y="218" type="curve" smooth="yes"/>
      <point x="514" y="432" type="line"/>
      <point x="498.346" y="439.114"/>
      <point x="481.119" y="442"/>
      <point x="464" y="442" type="curve" smooth="yes"/>
      <point x="383.949" y="442"/>
      <point x="359" y="381.228"/>
      <point x="359" y="311" type="curve" smooth="yes"/>
      <point x="359" y="246.546"/>
      <point x="385.565" y="186"/>
    </contour>
  </outline>
</glyph>
<glyph name="A" format="1">
  <advance width="621"/>
  <unicode hex="0041"/>
  <outline>
    <contour>
      <point x="349" y="0" type="line" name="hr00"/>
      <point x="349" y="75" type="line"/>
      <point x="429" y="96" type="line"/>
      <point x="393" y="218" type="line"/>
      <point x="197" y="218" type="line"/>
      <point x="159" y="92" type="line"/>
      <point x="247" y="76" type="line"/>
      <point x="247" y="0" type="line"/>
      <point x="8" y="0" type="line"/>
      <point x="-5" y="78" type="line"/>
      <point x="50" y="96" type="line" name="mv01"/>
      <point x="248" y="690" type="line" name="ah01"/>
      <point x="372" y="690" type="line" name="mv02"/>
      <point x="573" y="96" type="line"/>
      <point x="619" y="78" type="line"/>
      <point x="609" y="0" type="line"/>
    </contour>
    <contour>
      <point x="228" y="323" type="line"/>
      <point x="349" y="323" type="line"/>
      <point x="296" y="548" type="line"/>
    </contour>
  </outline>
</glyph>
<glyph name="B" format="1">
  <advance width="596"/>
  <unicode hex="0042"/>
  <outline>
    <contour>
      <point x="55" y="0" type="line" name="hr00"/>
      <point x="41" y="85" type="line"/>
      <point x="105" y="100" type="line"/>
      <point x="105" y="593" type="line"/>
      <point x="35" y="600" type="line"/>
      <point x="35" y="690" type="line" name="ah01"/>
      <point x="312" y="690" type="line" smooth="yes"/>
      <point x="422.69" y="690"/>
      <point x="536" y="633.955"/>
      <point x="536" y="509" type="curve" smooth="yes"/>
      <point x="536" y="441.187"/>
      <point x="492.599" y="370.218"/>
      <point x="424" y="353" type="curve"/>
      <point x="510.752" y="329.967"/>
      <point x="564" y="280.491"/>
      <point x="564" y="187" type="curve" smooth="yes" name="ah02"/>
      <point x="564" y="52.7039"/>
      <point x="463.598" y="0"/>
      <point x="342" y="0" type="curve" smooth="yes"/>
    </contour>
    <contour>
      <point x="236" y="295" type="line" name="hr01"/>
      <point x="236" y="105" type="line"/>
      <point x="310" y="105" type="line" smooth="yes"/>
      <point x="373.375" y="105"/>
      <point x="427" y="126.798"/>
      <point x="427" y="199" type="curve" smooth="yes"/>
      <point x="427" y="277.915"/>
      <point x="359.71" y="295"/>
      <point x="294" y="295" type="curve" smooth="yes"/>
    </contour>
    <contour>
      <point x="399" y="494" type="curve" smooth="yes"/>
      <point x="399" y="561.965"/>
      <point x="339.85" y="585"/>
      <point x="281" y="585" type="curve" smooth="yes"/>
      <point x="236" y="585" type="line"/>
      <point x="236" y="400" type="line"/>
      <point x="295" y="400" type="line" smooth="yes"/>
      <point x="355.298" y="400"/>
      <point x="399" y="429.681"/>
    </contour>
  </outline>
</glyph>
<glyph name="C" format="1">
  <advance width="587"/>
  <unicode hex="0043"/>
  <outline>
    <contour>
      <point x="162" y="348" type="curve" smooth="yes" name="hr00"/>
      <point x="162" y="223.293"/>
      <point x="232.896" y="101"/>
      <point x="370" y="101" type="curve" smooth="yes"/>
      <point x="424.73" y="101"/>
      <point x="482.899" y="120.897"/>
      <point x="522" y="160" type="curve"/>
      <point x="564" y="71" type="line"/>
      <point x="518.329" y="18.848"/>
      <point x="431.989" y="-4"/>
      <point x="365" y="-4" type="curve" smooth="yes"/>
      <point x="161.597" y="-4"/>
      <point x="28" y="131.3"/>
      <point x="28" y="334" type="curve" smooth="yes" name="av01"/>
      <point x="28" y="526.881"/>
      <point x="155.617" y="691"/>
      <point x="358" y="691" type="curve" smooth="yes" name="ah02"/>
      <point x="416.296" y="691"/>
      <point x="471.009" y="683.419"/>
      <point x="527" y="667" type="curve"/>
      <point x="547" y="460" type="line"/>
      <point x="466" y="460" type="line"/>
      <point x="448.764" y="497.754"/>
      <point x="432.029" y="547.845"/>
      <point x="410" y="582" type="curve"/>
      <point x="407" y="584" type="line"/>
      <point x="394.074" y="585.838"/>
      <point x="381.033" y="586"/>
      <point x="368" y="586" type="curve" smooth="yes" name="ah01"/>
      <point x="238.086" y="586"/>
      <point x="162" y="468.058"/>
    </contour>
  </outline>
</glyph>
<glyph name="D" format="1">
  <advance width="637"/>
  <unicode hex="0044"/>
  <outline>
    <contour>
      <point x="39" y="88" type="line" name="hr00"/>
      <point x="104" y="101" type="line" name="ah05"/>
      <point x="104" y="594" type="line" name="mh01"/>
      <point x="41" y="602" type="line" name="fh01"/>
      <point x="41" y="690" type="line" name="ah08"/>
      <point x="219" y="690" type="line" smooth="yes" name="ah01"/>
      <point x="441.506" y="690"/>
      <point x="606" y="594.282"/>
      <point x="606" y="353" type="curve" smooth="yes" name="ah02"/>
      <point x="606" y="127.147"/>
      <point x="491.12" y="0"/>
      <point x="262" y="0" type="curve" smooth="yes"/>
      <point x="53" y="0" type="line"/>
    </contour>
    <contour>
      <point x="469" y="350" type="curve" smooth="yes" name="ah03"/>
      <point x="469" y="505.165"/>
      <point x="390.515" y="585.036"/>
      <point x="235" y="585" type="curve" name="ah07"/>
      <point x="235" y="105" type="line" name="ah06"/>
      <point x="241.358" y="105.004"/>
      <point x="247.642" y="104"/>
      <point x="254" y="104" type="curve" smooth="yes"/>
      <point x="409.773" y="104"/>
      <point x="469" y="206.19"/>
    </contour>
  </outline>
</glyph>
<glyph name="G" format="1">
  <advance width="620"/>
  <unicode hex="0047"/>
  <outline>
    <contour>
      <point x="572" y="324" type="line" name="hr00"/>
      <point x="572" y="9" type="line"/>
      <point x="509.275" y="0.0664269"/>
      <point x="443.345" y="-4"/>
      <point x="380" y="-4" type="curve" smooth="yes"/>
      <point x="169.551" y="-4"/>
      <point x="27" y="122.68"/>
      <point x="27" y="337" type="curve" smooth="yes" name="av01"/>
      <point x="27" y="545.969"/>
      <point x="161.939" y="692"/>
      <point x="374" y="692" type="curve" smooth="yes" name="ah01"/>
      <point x="433.566" y="692"/>
      <point x="489.53" y="681.43"/>
      <point x="547" y="667" type="curve"/>
      <point x="565" y="461" type="line"/>
      <point x="484" y="461" type="line"/>
      <point x="433" y="584" type="line"/>
      <point x="412.509" y="586.271"/>
      <point x="392.617" y="587"/>
      <point x="372" y="587" type="curve" smooth="yes" name="ah06"/>
      <point x="235.486" y="587"/>
      <point x="164" y="459.916"/>
      <point x="164" y="337" type="curve" smooth="yes"/>
      <point x="164" y="184.864"/>
      <point x="262.073" y="98"/>
      <point x="411" y="98" type="curve" smooth="yes"/>
      <point x="420.982" y="98"/>
      <point x="431.166" y="98.0637"/>
      <point x="441" y="100" type="curve"/>
      <point x="441" y="229" type="line"/>
      <point x="338" y="243" type="line"/>
      <point x="356" y="324" type="line"/>
    </contour>
  </outline>
</glyph>
<glyph name="H" format="1">
  <advance width="702"/>
  <unicode hex="0048"/>
  <outline>
    <contour>
      <point x="403" y="89" type="line" name="hr00"/>
      <point x="461" y="102" type="line"/>
      <point x="461" y="302" type="line"/>
      <point x="236" y="302" type="line"/>
      <point x="236" y="99" type="line"/>
      <point x="299" y="87" type="line"/>
      <point x="299" y="57.9872"/>
      <point x="300" y="29.0108"/>
      <point x="300" y="0" type="curve"/>
      <point x="55" y="0" type="line"/>
      <point x="40" y="89" type="line"/>
      <point x="105" y="102" type="line"/>
      <point x="105" y="592" type="line"/>
      <point x="42" y="599" type="line"/>
      <point x="42" y="690" type="line"/>
      <point x="286" y="690" type="line"/>
      <point x="301" y="597" type="line"/>
      <point x="236" y="585" type="line"/>
      <point x="236" y="407" type="line"/>
      <point x="461" y="407" type="line"/>
      <point x="461" y="592" type="line"/>
      <point x="405" y="599" type="line"/>
      <point x="405" y="690" type="line"/>
      <point x="652" y="690" type="line"/>
      <point x="667" y="597" type="line"/>
      <point x="592" y="585" type="line"/>
      <point x="592" y="99" type="line"/>
      <point x="665" y="87" type="line"/>
      <point x="665" y="68" type="line" smooth="yes"/>
      <point x="665" y="45.3287"/>
      <point x="664" y="22.6869"/>
      <point x="664" y="0" type="curve"/>
      <point x="418" y="0" type="line"/>
    </contour>
  </outline>
</glyph>
<glyph name="J" format="1">
  <advance width="397"/>
  <unicode hex="004A"/>
  <outline>
    <contour>
      <point x="159" y="-4" type="curve" smooth="yes" name="hr00"/>
      <point x="105.436" y="-4"/>
      <point x="41.3763" y="22.9188"/>
      <point x="2" y="59" type="curve"/>
      <point x="72" y="160" type="line" name="mv02"/>
      <point x="90.5119" y="145.317"/>
      <point x="132.805" y="110"/>
      <point x="156" y="110" type="curve" smooth="yes"/>
      <point x="170.393" y="110"/>
      <point x="173" y="124.464"/>
      <point x="173" y="136" type="curve" smooth="yes" name="mh03"/>
      <point x="173" y="585" type="line"/>
      <point x="93" y="597" type="line" name="mh04"/>
      <point x="108" y="690" type="line" name="ah01"/>
      <point x="372" y="690" type="line" name="mh05"/>
      <point x="372" y="599" type="line"/>
      <point x="304" y="592" type="line" name="mh06"/>
      <point x="304" y="175" type="line" smooth="yes" name="hr00"/>
      <point x="304" y="78.2293"/>
      <point x="269.116" y="-4"/>
    </contour>
  </outline>
</glyph>
<glyph name="K" format="1">
  <advance width="635"/>
  <unicode hex="004B"/>
  <outline>
    <contour>
      <point x="37" y="89" type="line" name="hr00"/>
      <point x="107" y="102" type="line"/>
      <point x="107" y="592" type="line"/>
      <point x="39" y="597" type="line"/>
      <point x="39" y="690" type="line"/>
      <point x="292" y="690" type="line"/>
      <point x="307" y="600" type="line"/>
      <point x="238" y="585" type="line"/>
      <point x="238" y="345" type="line"/>
      <point x="439" y="585" type="line"/>
      <point x="362" y="601" type="line"/>
      <point x="362" y="690" type="line"/>
      <point x="614" y="690" type="line"/>
      <point x="614" y="601" type="line"/>
      <point x="575" y="593" type="line"/>
      <point x="521.235" y="522.697"/>
      <point x="459.95" y="457.865"/>
      <point x="402" y="391" type="curve"/>
      <point x="564" y="97" type="line"/>
      <point x="618" y="87" type="line"/>
      <point x="618" y="0" type="line"/>
      <point x="460" y="0" type="line"/>
      <point x="314" y="291" type="line"/>
      <point x="288.151" y="261.78"/>
      <point x="262.801" y="232.115"/>
      <point x="238" y="202" type="curve"/>
      <point x="238" y="99" type="line"/>
      <point x="304" y="87" type="line"/>
      <point x="304" y="57.9882"/>
      <point x="305" y="29.01"/>
      <point x="305" y="0" type="curve"/>
      <point x="51" y="0" type="line"/>
    </contour>
  </outline>
</glyph>
<glyph name="M" format="1">
  <advance width="895"/>
  <unicode hex="004D"/>
  <outline>
    <contour>
      <point x="49" y="690" type="line" name="hr00"/>
      <point x="306" y="690" type="line" name="mh01"/>
      <point x="450" y="178" type="line" name="mh02"/>
      <point x="595" y="690" type="line" name="mh03"/>
      <point x="834" y="690" type="line" name="mh04"/>
      <point x="849" y="597" type="line"/>
      <point x="794" y="585" type="line" name="mh05"/>
      <point x="794" y="94" type="line"/>
      <point x="845" y="87" type="line"/>
      <point x="845" y="0" type="line"/>
      <point x="633" y="0" type="line" name="mh06"/>
      <point x="624" y="90" type="line"/>
      <point x="668" y="103" type="line"/>
      <point x="668" y="596" type="line" name="mh07"/>
      <point x="501" y="13" type="line" name="mh08"/>
      <point x="367" y="13" type="line" name="mh09"/>
      <point x="204" y="589" type="line" name="mh10"/>
      <point x="204" y="98" type="line" name="mh11"/>
      <point x="250" y="87" type="line"/>
      <point x="250.024" y="58.0158"/>
      <point x="251" y="29.0257"/>
      <point x="251" y="0" type="curve"/>
      <point x="51" y="0" type="line"/>
      <point x="45" y="87" type="line"/>
      <point x="104" y="95" type="line"/>
      <point x="104" y="590" type="line" name="mh12"/>
      <point x="49" y="596" type="line"/>
    </contour>
  </outline>
</glyph>
<glyph name="N" format="1">
  <advance width="727"/>
  <unicode hex="004E"/>
  <outline>
    <contour>
      <point x="211" y="562" type="line" name="hr00"/>
      <point x="211" y="104" type="line"/>
      <point x="262" y="88" type="line"/>
      <point x="262" y="65" type="line" smooth="yes"/>
      <point x="262" y="43.3264"/>
      <point x="261" y="21.6781"/>
      <point x="261" y="0" type="curve"/>
      <point x="53" y="0" type="line"/>
      <point x="37" y="87" type="line"/>
      <point x="106" y="100" type="line"/>
      <point x="106" y="590" type="line"/>
      <point x="42" y="597" type="line"/>
      <point x="42" y="690" type="line"/>
      <point x="298" y="690" type="line"/>
      <point x="525" y="96" type="line"/>
      <point x="525" y="592" type="line"/>
      <point x="467" y="599" type="line"/>
      <point x="467" y="690" type="line"/>
      <point x="682" y="690" type="line"/>
      <point x="697" y="597" type="line"/>
      <point x="630" y="585" type="line"/>
      <point x="630" y="0" type="line"/>
      <point x="428" y="0" type="line"/>
    </contour>
  </outline>
</glyph>
<glyph name="O" format="1">
  <advance width="655"/>
  <unicode hex="004F"/>
  <outline>
    <contour>
      <point x="328" y="-4" type="curve" smooth="yes" name="hr00"/>
      <point x="123.698" y="-4"/>
      <point x="36" y="160.889"/>
      <point x="36" y="345" type="curve" smooth="yes" name="mh01"/>
      <point x="36" y="529.995"/>
      <point x="123.1" y="693"/>
      <point x="328" y="693" type="curve" smooth="yes" name="mh03"/>
      <point x="532.919" y="693"/>
      <point x="619" y="529.715"/>
      <point x="619" y="345" type="curve" smooth="yes" name="mh04"/>
      <point x="619" y="161.164"/>
      <point x="532.318" y="-4"/>
    </contour>
    <contour>
      <point x="173" y="343" type="curve" smooth="yes"/>
      <point x="173" y="249.148"/>
      <point x="210.068" y="101"/>
      <point x="328" y="101" type="curve" smooth="yes"/>
      <point x="444.905" y="101"/>
      <point x="482" y="250.206"/>
      <point x="482" y="343" type="curve" smooth="yes" name="mh05"/>
      <point x="482" y="435.518"/>
      <point x="445.226" y="588"/>
      <point x="328" y="588" type="curve" smooth="yes"/>
      <point x="209.791" y="588"/>
      <point x="173" y="436.585"/>
    </contour>
  </outline>
</glyph>
<glyph name="P" format="1">
  <advance width="585"/>
  <unicode hex="0050"/>
  <outline>
    <contour>
      <point x="238" y="327" type="line" name="hr00"/>
      <point x="339.679" y="326.992"/>
      <point x="434" y="338.976"/>
      <point x="434" y="463" type="curve" smooth="yes" name="mh03"/>
      <point x="434" y="551.621"/>
      <point x="374.028" y="585"/>
      <point x="293" y="585" type="curve" smooth="yes" name="mh05"/>
      <point x="238" y="585" type="line" name="mh06"/>
    </contour>
    <contour>
      <point x="37" y="86" type="line"/>
      <point x="107" y="100" type="line"/>
      <point x="107" y="592" type="line" name="mh07"/>
      <point x="39" y="599" type="line" name="mh08"/>
      <point x="39" y="690" type="line" name="mh09"/>
      <point x="289" y="690" type="line" smooth="yes" name="mh10"/>
      <point x="440.142" y="690"/>
      <point x="571" y="630.748"/>
      <point x="571" y="460" type="curve" smooth="yes" name="mh13"/>
      <point x="571" y="349.696"/>
      <point x="515.778" y="272.533"/>
      <point x="410.5" y="239" type="curve" smooth="yes"/>
      <point x="354.078" y="221.029"/>
      <point x="296.55" y="222"/>
      <point x="238" y="222" type="curve" name="mh16"/>
      <point x="238" y="114" type="line" smooth="yes" name="mh17"/>
      <point x="238" y="110.161"/>
      <point x="238.667" y="106.236"/>
      <point x="242.5" y="104.5" type="curve" smooth="yes"/>
      <point x="248.414" y="101.822"/>
      <point x="370.966" y="86.1674"/>
      <point x="390" y="83" type="curve"/>
      <point x="384" y="0" type="line"/>
      <point x="51" y="0" type="line" name="mh18"/>
    </contour>
  </outline>
</glyph>
<glyph name="R" format="1">
  <advance width="612"/>
  <unicode hex="0052"/>
  <outline>
    <contour>
      <point x="38" y="85" type="line" name="hr00"/>
      <point x="107" y="99" type="line"/>
      <point x="107" y="592" type="line"/>
      <point x="39" y="599" type="line"/>
      <point x="39" y="690" type="line"/>
      <point x="284" y="690" type="line" smooth="yes"/>
      <point x="429.99" y="690"/>
      <point x="572" y="633.707"/>
      <point x="572" y="465" type="curve" smooth="yes"/>
      <point x="572" y="367.521"/>
      <point x="522.237" y="300.489"/>
      <point x="433" y="264" type="curve"/>
      <point x="521" y="97" type="line"/>
      <point x="584" y="87" type="line"/>
      <point x="584" y="0" type="line"/>
      <point x="415" y="0" type="line"/>
      <point x="311" y="234" type="line"/>
      <point x="286.727" y="231.92"/>
      <point x="262.36" y="230.999"/>
      <point x="238" y="231" type="curve"/>
      <point x="238" y="95" type="line"/>
      <point x="290" y="87" type="line"/>
      <point x="290" y="0" type="line"/>
      <point x="47" y="0" type="line"/>
    </contour>
    <contour>
      <point x="238" y="337" type="line"/>
      <point x="248.825" y="335.229"/>
      <point x="260.085" y="336"/>
      <point x="271" y="336" type="curve" smooth="yes"/>
      <point x="352.364" y="336"/>
      <point x="437" y="366.633"/>
      <point x="437" y="462" type="curve" smooth="yes"/>
      <point x="437" y="576.491"/>
      <point x="326.719" y="584.003"/>
      <point x="238" y="584" type="curve"/>
    </contour>
  </outline>
</glyph>
<glyph name="S" format="1">
  <advance width="528"/>
  <unicode hex="0053"/>
  <outline>
    <contour>
      <point x="352" y="183" type="curve" smooth="yes" name="hr00"/>
      <point x="352" y="312.095"/>
      <point x="44" y="280.247"/>
      <point x="44" y="504" type="curve" smooth="yes" name="mh03"/>
      <point x="44" y="631.519"/>
      <point x="165.072" y="692"/>
      <point x="278" y="692" type="curve" smooth="yes" name="mh06"/>
      <point x="341.891" y="692"/>
      <point x="406.525" y="682.337"/>
      <point x="468" y="665" type="curve"/>
      <point x="483" y="475" type="line"/>
      <point x="399" y="475" type="line" name="mh07"/>
      <point x="350" y="581" type="line"/>
      <point x="327.55" y="584.447"/>
      <point x="304.735" y="587"/>
      <point x="282" y="587" type="curve" smooth="yes"/>
      <point x="233.089" y="587"/>
      <point x="180" y="569.337"/>
      <point x="180" y="511" type="curve" smooth="yes" name="mh08"/>
      <point x="180" y="401.568"/>
      <point x="489" y="410.649"/>
      <point x="489" y="201" type="curve" smooth="yes"/>
      <point x="489" y="57.2501"/>
      <point x="368.893" y="-4"/>
      <point x="240" y="-4" type="curve" smooth="yes"/>
      <point x="169.349" y="-4"/>
      <point x="101.217" y="14.9154"/>
      <point x="36" y="41" type="curve" name="mh12"/>
      <point x="56" y="234" type="line"/>
      <point x="140" y="227" type="line"/>
      <point x="148" y="116" type="line"/>
      <point x="177.275" y="109.235"/>
      <point x="203.538" y="101"/>
      <point x="234" y="101" type="curve" smooth="yes"/>
      <point x="286.777" y="101"/>
      <point x="352" y="118.568"/>
    </contour>
  </outline>
</glyph>
<glyph name="T" format="1">
  <advance width="615"/>
  <unicode hex="0054"/>
  <outline>
    <contour>
      <point x="128" y="80" type="line" name="hr00"/>
      <point x="243" y="102" type="line"/>
      <point x="243" y="585" type="line" name="mh01"/>
      <point x="130" y="585" type="line" name="hr02"/>
      <point x="87" y="485" type="line"/>
      <point x="10" y="485" type="line" name="hr01"/>
      <point x="29" y="690" type="line" name="mv01"/>
      <point x="584" y="690" type="line"/>
      <point x="606" y="486" type="line"/>
      <point x="530" y="486" type="line"/>
      <point x="486" y="585" type="line"/>
      <point x="372" y="585" type="line" name="mh02"/>
      <point x="372" y="102" type="line"/>
      <point x="488" y="80" type="line"/>
      <point x="478" y="0" type="line"/>
      <point x="138" y="0" type="line"/>
    </contour>
  </outline>
</glyph>
<glyph name="U" format="1">
  <advance width="670"/>
  <unicode hex="0055"/>
  <outline>
    <contour>
      <point x="219" y="250" type="line" smooth="yes" name="hr00"/>
      <point x="219" y="153.396"/>
      <point x="250.648" y="101"/>
      <point x="353" y="101" type="curve" smooth="yes"/>
      <point x="448.748" y="101"/>
      <point x="479" y="165.318"/>
      <point x="479" y="251" type="curve" smooth="yes"/>
      <point x="479" y="593" type="line" name="mh01"/>
      <point x="415" y="602" type="line"/>
      <point x="415" y="690" type="line" name="mv01"/>
      <point x="643" y="690" type="line" name="mh02"/>
      <point x="643" y="599" type="line" name="hr02"/>
      <point x="584" y="586" type="line" name="mh03"/>
      <point x="584" y="248" type="line" smooth="yes"/>
      <point x="584" y="98.4881"/>
      <point x="509.85" y="-4"/>
      <point x="353" y="-4" type="curve" smooth="yes"/>
      <point x="177.079" y="-4"/>
      <point x="88" y="66.2551"/>
      <point x="88" y="248" type="curve" smooth="yes" name="hr01"/>
      <point x="88" y="592" type="line" name="mh05"/>
      <point x="21" y="601" type="line"/>
      <point x="21" y="690" type="line" name="mh06"/>
      <point x="290" y="690" type="line"/>
      <point x="290" y="602" type="line"/>
      <point x="219" y="591" type="line" name="mh07"/>
    </contour>
  </outline>
</glyph>
<glyph name="V" format="1">
  <advance width="639"/>
  <unicode hex="0056"/>
  <outline>
    <contour>
      <point x="244" y="690" type="line" name="hr00"/>
      <point x="258" y="611" type="line"/>
      <point x="181" y="594" type="line"/>
      <point x="338" y="130" type="line"/>
      <point x="348.805" y="169.34"/>
      <point x="364.442" y="208.278"/>
      <point x="377.5" y="247" type="curve" smooth="yes"/>
      <point x="416.402" y="362.359"/>
      <point x="457.19" y="477.643"/>
      <point x="493" y="594" type="curve"/>
      <point x="402" y="612" type="line"/>
      <point x="402" y="690" type="line"/>
      <point x="635" y="690" type="line"/>
      <point x="635" y="601" type="line"/>
      <point x="598" y="594" type="line"/>
      <point x="391" y="0" type="line"/>
      <point x="250" y="0" type="line"/>
      <point x="40" y="594" type="line"/>
      <point x="4" y="601" type="line"/>
      <point x="4" y="690" type="line"/>
    </contour>
  </outline>
</glyph>
<glyph name="W" format="1">
  <advance width="985"/>
  <unicode hex="0057"/>
  <outline>
    <contour>
      <point x="988" y="690" type="line" name="hr00"/>
      <point x="988" y="602" type="line"/>
      <point x="910" y="582" type="line"/>
      <point x="800" y="0" type="line" name="mh01"/>
      <point x="632" y="0" type="line" name="mh02"/>
      <point x="491" y="506" type="line"/>
      <point x="355" y="0" type="line" name="mh03"/>
      <point x="181" y="0" type="line" name="mh04"/>
      <point x="71" y="587" type="line" name="mh05"/>
      <point x="16" y="600" type="line"/>
      <point x="16" y="690" type="line" name="mh06"/>
      <point x="260" y="690" type="line" name="hr02"/>
      <point x="277" y="611" type="line"/>
      <point x="207" y="601" type="line" name="mh07"/>
      <point x="289" y="143" type="line" name="mh08"/>
      <point x="443" y="677" type="line" name="mh09"/>
      <point x="585" y="677" type="line" name="hr01"/>
      <point x="734" y="129" type="line"/>
      <point x="812" y="601" type="line"/>
      <point x="728" y="614" type="line"/>
      <point x="739" y="690" type="line"/>
    </contour>
  </outline>
</glyph>
<glyph name="X" format="1">
  <advance width="594"/>
  <unicode hex="0058"/>
  <outline>
    <contour>
      <point x="577" y="690" type="line" name="hr00"/>
      <point x="577" y="600" type="line"/>
      <point x="536" y="592" type="line" name="mh01"/>
      <point x="370" y="334" type="line" name="mh02"/>
      <point x="416.849" y="253.186"/>
      <point x="464.668" y="172.935"/>
      <point x="513" y="93" type="curve"/>
      <point x="577" y="71" type="line"/>
      <point x="577" y="0" type="line"/>
      <point x="306" y="0" type="line"/>
      <point x="306" y="71" type="line"/>
      <point x="363" y="77" type="line"/>
      <point x="273" y="232" type="line"/>
      <point x="183" y="76" type="line"/>
      <point x="238" y="70" type="line"/>
      <point x="238" y="0" type="line"/>
      <point x="13" y="0" type="line"/>
      <point x="13" y="71" type="line"/>
      <point x="59" y="79" type="line"/>
      <point x="216" y="331" type="line"/>
      <point x="66" y="591" type="line" name="mh03"/>
      <point x="24" y="603" type="line"/>
      <point x="24" y="690" type="line" name="mh04"/>
      <point x="277" y="690" type="line"/>
      <point x="291" y="612" type="line" name="mh05"/>
      <point x="221" y="597" type="line" name="mh06"/>
      <point x="251.123" y="543.214"/>
      <point x="281.973" y="489.842"/>
      <point x="312" y="436" type="curve" name="mv01"/>
      <point x="412" y="595" type="line" name="mh07"/>
      <point x="354" y="613" type="line"/>
      <point x="354" y="690" type="line"/>
    </contour>
  </outline>
</glyph>
<glyph name="Z" format="1">
  <advance width="562"/>
  <unicode hex="005A"/>
  <outline>
    <contour>
      <point x="28" y="79" type="line" name="hr00"/>
      <point x="365" y="585" type="line"/>
      <point x="144" y="585" type="line" name="hr01"/>
      <point x="125" y="475" type="line"/>
      <point x="47" y="475" type="line"/>
      <point x="47" y="690" type="line" name="mh01"/>
      <point x="507" y="690" type="line"/>
      <point x="527" y="597" type="line"/>
      <point x="481.978" y="520.839"/>
      <point x="431.72" y="446.868"/>
      <point x="383" y="373" type="curve" smooth="yes"/>
      <point x="323.978" y="283.512"/>
      <point x="265.013" y="193.82"/>
      <point x="205" y="105" type="curve"/>
      <point x="420" y="105" type="line"/>
      <point x="438" y="215" type="line"/>
      <point x="518" y="215" type="line"/>
      <point x="518" y="0" type="line"/>
      <point x="47" y="0" type="line"/>
    </contour>
  </outline>
</glyph>
<glyph name="bracketleft" format="1">
  <advance width="336"/>
  <unicode hex="005B"/>
  <outline>
    <contour>
      <point x="194" y="640" type="line" name="hr00"/>
      <point x="194" y="-102" type="line"/>
      <point x="346" y="-102" type="line"/>
      <point x="346" y="-181" type="line" smooth="yes"/>
      <point x="346" y="-185.683"/>
      <point x="344.025" y="-189"/>
      <point x="339" y="-189" type="curve" smooth="yes"/>
      <point x="81" y="-189" type="line"/>
      <point x="74" y="-177" type="line"/>
      <point x="74" y="714" type="line"/>
      <point x="81" y="726" type="line"/>
      <point x="339" y="726" type="line" smooth="yes"/>
      <point x="343.39" y="726"/>
      <point x="346" y="723.39"/>
      <point x="346" y="719" type="curve" smooth="yes"/>
      <point x="346" y="640" type="line"/>
    </contour>
  </outline>
</glyph>
<glyph name="backslash" format="1">
  <advance width="486"/>
  <unicode hex="005C"/>
  <outline>
    <contour>
      <point x="21" y="676" type="line" name="hr00"/>
      <point x="20" y="690" type="line" name="mh01"/>
      <point x="148" y="690" type="line" name="mh02"/>
      <point x="466" y="13" type="line"/>
      <point x="463" y="0" type="line"/>
      <point x="338" y="0" type="line"/>
    </contour>
  </outline>
</glyph>
<glyph name="bracketright" format="1">
  <advance width="336"/>
  <unicode hex="005D"/>
  <outline>
    <contour>
      <point x="-10" y="640" type="line" name="hr00"/>
      <point x="-10" y="719" type="line" smooth="yes"/>
      <point x="-10" y="722.89"/>
      <point x="-8.19969" y="726"/>
      <point x="-4" y="726" type="curve" smooth="yes"/>
      <point x="254" y="726" type="line"/>
      <point x="262" y="714" type="line"/>
      <point x="262" y="-167" type="line"/>
      <point x="254" y="-179" type="line"/>
      <point x="-4" y="-179" type="line" smooth="yes"/>
      <point x="-8.57803" y="-179"/>
      <point x="-10" y="-174.966"/>
      <point x="-10" y="-171" type="curve" smooth="yes"/>
      <point x="-10" y="-92" type="line"/>
      <point x="141" y="-92" type="line"/>
      <point x="141" y="640" type="line"/>
    </contour>
  </outline>
</glyph>
<glyph name="b" format="1">
  <advance width="499"/>
  <unicode hex="0062"/>
  <outline>
    <contour>
      <point x="12" y="648" type="line" name="hr00"/>
      <point x="1" y="716" type="line"/>
      <point x="150" y="736" type="line"/>
      <point x="184" y="701" type="line"/>
      <point x="184" y="472" type="line"/>
      <point x="211.292" y="485.63"/>
      <point x="240.686" y="491"/>
      <point x="271" y="491" type="curve" smooth="yes" name="mh01"/>
      <point x="409.472" y="491"/>
      <point x="468" y="374.681"/>
      <point x="468" y="251" type="curve" smooth="yes"/>
      <point x="468" y="106.757"/>
      <point x="401.83" y="-4"/>
      <point x="245" y="-4" type="curve" smooth="yes"/>
      <point x="212.07" y="-4"/>
      <point x="178.29" y="1.2336"/>
      <point x="149" y="17" type="curve"/>
      <point x="96" y="-4" type="line"/>
      <point x="64" y="23" type="line"/>
      <point x="64" y="651" type="line"/>
    </contour>
    <contour>
      <point x="247" y="397" type="curve" smooth="yes"/>
      <point x="225.249" y="397"/>
      <point x="201.87" y="391.973"/>
      <point x="184" y="379" type="curve"/>
      <point x="184" y="103" type="line"/>
      <point x="199.021" y="93.0782"/>
      <point x="227.162" y="90"/>
      <point x="245" y="90" type="curve" smooth="yes"/>
      <point x="326.15" y="90"/>
      <point x="344" y="183.106"/>
      <point x="344" y="246" type="curve" smooth="yes" name="mh03"/>
      <point x="344" y="308.597"/>
      <point x="327.164" y="397"/>
    </contour>
  </outline>
</glyph>
<glyph name="c" format="1">
  <advance width="431"/>
  <unicode hex="0063"/>
  <outline>
    <contour>
      <point x="408" y="52" type="curve" name="hr00"/>
      <point x="400.425" y="81.2122"/>
      <point x="391.426" y="110.333"/>
      <point x="382" y="139" type="curve"/>
      <point x="350.542" y="110.926"/>
      <point x="313.18" y="91"/>
      <point x="270" y="91" type="curve" smooth="yes"/>
      <point x="185.456" y="91"/>
      <point x="154" y="164.01"/>
      <point x="154" y="238" type="curve" smooth="yes"/>
      <point x="154" y="299.08"/>
      <point x="171.706" y="397.16"/>
      <point x="251" y="397" type="curve"/>
      <point x="294" y="337" type="line"/>
      <point x="415" y="402" type="line"/>
      <point x="384.678" y="463.164"/>
      <point x="312.768" y="491"/>
      <point x="248" y="491" type="curve" smooth="yes"/>
      <point x="95.6466" y="491"/>
      <point x="30" y="373.16"/>
      <point x="30" y="233" type="curve" smooth="yes"/>
      <point x="30" y="101.582"/>
      <point x="112.266" y="-4"/>
      <point x="249" y="-4" type="curve" smooth="yes"/>
      <point x="305.064" y="-4"/>
      <point x="367.594" y="10.6016"/>
    </contour>
  </outline>
</glyph>
<glyph name="d" format="1">
  <advance width="514"/>
  <unicode hex="0064"/>
  <outline>
    <contour>
      <point x="314" y="648" type="line" name="hr00"/>
      <point x="314" y="478" type="line"/>
      <point x="291.448" y="487.045"/>
      <point x="267.242" y="491"/>
      <point x="243" y="491" type="curve" smooth="yes"/>
      <point x="95.6569" y="491"/>
      <point x="31" y="367.579"/>
      <point x="31" y="234" type="curve" smooth="yes"/>
      <point x="31" y="116.119"/>
      <point x="87.7781" y="-4"/>
      <point x="221" y="-4" type="curve" smooth="yes"/>
      <point x="260.344" y="-4"/>
      <point x="300.59" y="7.19644"/>
      <point x="327" y="38" type="curve"/>
      <point x="343.284" y="7.57195"/>
      <point x="372.712" y="-4"/>
      <point x="406" y="-4" type="curve" smooth="yes"/>
      <point x="439.85" y="-4"/>
      <point x="472.592" y="11.8691"/>
      <point x="495" y="37" type="curve"/>
      <point x="476" y="89" type="line"/>
      <point x="469.537" y="85.622"/>
      <point x="461.309" y="83"/>
      <point x="454" y="83" type="curve" smooth="yes"/>
      <point x="440.517" y="83"/>
      <point x="435" y="92.2532"/>
      <point x="435" y="105" type="curve" smooth="yes"/>
      <point x="435" y="700" type="line"/>
      <point x="400" y="737" type="line"/>
      <point x="252" y="716" type="line"/>
      <point x="263" y="648" type="line"/>
    </contour>
    <contour>
      <point x="244" y="91" type="curve" smooth="yes"/>
      <point x="169.102" y="91"/>
      <point x="155" y="174.312"/>
      <point x="155" y="233" type="curve" smooth="yes"/>
      <point x="155" y="299.598"/>
      <point x="168.929" y="398"/>
      <point x="255" y="398" type="curve" smooth="yes"/>
      <point x="275.259" y="398"/>
      <point x="298.211" y="391.006"/>
      <point x="314" y="378" type="curve"/>
      <point x="314" y="140" type="line" smooth="yes"/>
      <point x="314" y="114.105"/>
      <point x="266.224" y="91"/>
    </contour>
  </outline>
</glyph>
<glyph name="f" format="1">
  <advance width="359"/>
  <unicode hex="0066"/>
  <outline>
    <contour>
      <point x="220" y="400" type="line" name="hr00"/>
      <point x="220" y="74" type="line"/>
      <point x="316" y="63" type="line"/>
      <point x="316" y="41.9933"/>
      <point x="315.021" y="21.0018"/>
      <point x="315" y="0" type="curve"/>
      <point x="59" y="0" type="line"/>
      <point x="45" y="63" type="line" name="mh01"/>
      <point x="99" y="76" type="line"/>
      <point x="99" y="400" type="line"/>
      <point x="27" y="400" type="line"/>
      <point x="12" y="481" type="line"/>
      <point x="19" y="491" type="line"/>
      <point x="100" y="491" type="line"/>
      <point x="100" y="537.73"/>
      <point x="97.1561" y="586.272"/>
      <point x="113.5" y="631" type="curve" smooth="yes"/>
      <point x="138.202" y="698.602"/>
      <point x="188.795" y="734"/>
      <point x="261" y="734" type="curve" smooth="yes" name="mh02"/>
      <point x="321.851" y="734"/>
      <point x="378.83" y="701.855"/>
      <point x="414" y="653" type="curve"/>
      <point x="300" y="584" type="line"/>
      <point x="260" y="639" type="line" name="mh03"/>
      <point x="228.802" y="639.039"/>
      <point x="220" y="620.536"/>
      <point x="220" y="592" type="curve" smooth="yes"/>
      <point x="220" y="491" type="line"/>
      <point x="241.084" y="491"/>
      <point x="339" y="498.258"/>
      <point x="339" y="485" type="curve" smooth="yes"/>
      <point x="339" y="400" type="line"/>
    </contour>
  </outline>
</glyph>
<glyph name="g" format="1">
  <advance width="503"/>
  <unicode hex="0067"/>
  <outline>
    <contour>
      <point x="232" y="491" type="curve" smooth="yes" name="hr00"/>
      <point x="278.091" y="491"/>
      <point x="324.487" y="476.401"/>
      <point x="361" y="448" type="curve"/>
      <point x="470" y="503" type="line"/>
      <point x="493" y="500" type="line"/>
      <point x="504" y="401" type="line" name="hr01"/>
      <point x="411" y="390" type="line"/>
      <point x="425.256" y="362.91"/>
      <point x="432" y="332.528"/>
      <point x="432" y="302" type="curve" smooth="yes"/>
      <point x="432" y="220.345"/>
      <point x="382.639" y="156.818"/>
      <point x="305" y="133" type="curve" smooth="yes"/>
      <point x="276.765" y="124.338"/>
      <point x="235.308" y="118.109"/>
      <point x="206" y="123" type="curve"/>
      <point x="188" y="96" type="line"/>
      <point x="190" y="82" type="line"/>
      <point x="282.907" y="63.0017"/>
      <point x="449" y="49.3407"/>
      <point x="449" y="-81" type="curve" smooth="yes"/>
      <point x="449" y="-210.896"/>
      <point x="330.823" y="-272"/>
      <point x="215" y="-272" type="curve" smooth="yes"/>
      <point x="124.624" y="-272"/>
      <point x="22" y="-227.396"/>
      <point x="22" y="-123" type="curve" smooth="yes"/>
      <point x="22" y="-65.1563"/>
      <point x="49.786" y="-23.2178"/>
      <point x="99" y="6" type="curve"/>
      <point x="82.1219" y="24.2763"/>
      <point x="75" y="48.467"/>
      <point x="75" y="73" type="curve" smooth="yes"/>
      <point x="75" y="105.204"/>
      <point x="88.6483" y="133.108"/>
      <point x="112" y="155" type="curve"/>
      <point x="59.0127" y="188.302"/>
      <point x="33" y="240.115"/>
      <point x="33" y="302" type="curve" smooth="yes"/>
      <point x="33" y="413.376"/>
      <point x="123.648" y="491"/>
    </contour>
    <contour>
      <point x="232" y="397" type="curve" smooth="yes"/>
      <point x="180.093" y="397"/>
      <point x="157" y="353.93"/>
      <point x="157" y="307" type="curve" smooth="yes"/>
      <point x="157" y="259.399"/>
      <point x="179.233" y="216"/>
      <point x="232" y="216" type="curve" smooth="yes" name="hr02"/>
      <point x="285.424" y="216"/>
      <point x="308" y="258.479"/>
      <point x="308" y="307" type="curve" smooth="yes"/>
      <point x="308" y="354.688"/>
      <point x="284.439" y="397"/>
    </contour>
    <contour>
      <point x="353" y="-98" type="curve" smooth="yes"/>
      <point x="353" y="-86.5353"/>
      <point x="345.169" y="-79.6008"/>
      <point x="335.5" y="-75" type="curve" smooth="yes"/>
      <point x="285.137" y="-51.0348"/>
      <point x="223.197" y="-51.7321"/>
      <point x="170" y="-34" type="curve"/>
      <point x="148.744" y="-47.5194"/>
      <point x="131" y="-66.1877"/>
      <point x="131" y="-93" type="curve" smooth="yes"/>
      <point x="131" y="-143.887"/>
      <point x="204.439" y="-152"/>
      <point x="242" y="-152" type="curve" smooth="yes"/>
      <point x="272.744" y="-152"/>
      <point x="353" y="-139.425"/>
    </contour>
  </outline>
</glyph>
<glyph name="h" format="1">
  <advance width="547"/>
  <unicode hex="0068"/>
  <outline>
    <contour>
      <point x="350" y="331" type="line" smooth="yes" name="hr00"/>
      <point x="350" y="371.614"/>
      <point x="328.771" y="393"/>
      <point x="288" y="393" type="curve" smooth="yes" name="mv02"/>
      <point x="261.666" y="393"/>
      <point x="217.441" y="377.499"/>
      <point x="201" y="356" type="curve" name="mh01"/>
      <point x="201" y="75" type="line"/>
      <point x="258" y="64" type="line"/>
      <point x="258" y="42.6602"/>
      <point x="257.012" y="21.3354"/>
      <point x="257" y="0" type="curve"/>
      <point x="35" y="0" type="line"/>
      <point x="23" y="64" type="line" name="mh02"/>
      <point x="80" y="77" type="line"/>
      <point x="80" y="648" type="line" name="mh03"/>
      <point x="28" y="648" type="line"/>
      <point x="18" y="716" type="line" name="mh04"/>
      <point x="166" y="737" type="line"/>
      <point x="201" y="700" type="line" name="mh05"/>
      <point x="201" y="455" type="line"/>
      <point x="231.666" y="477.588"/>
      <point x="279.151" y="491"/>
      <point x="317" y="491" type="curve" smooth="yes" name="mh06"/>
      <point x="399.732" y="491"/>
      <point x="471" y="449.225"/>
      <point x="471" y="359" type="curve" smooth="yes" name="mh07"/>
      <point x="471" y="76" type="line"/>
      <point x="526" y="64" type="line" name="mh08"/>
      <point x="526" y="42.6602"/>
      <point x="525.012" y="21.3354"/>
      <point x="525" y="0" type="curve"/>
      <point x="300" y="0" type="line"/>
      <point x="300" y="64" type="line"/>
      <point x="350" y="75" type="line" name="mv03"/>
    </contour>
  </outline>
</glyph>
<glyph name="i" format="1">
  <advance width="288"/>
  <unicode hex="0069"/>
  <outline>
    <contour>
      <point x="68" y="663" type="curve" smooth="yes" name="hr00"/>
      <point x="68" y="623.15"/>
      <point x="101.15" y="590"/>
      <point x="141" y="590" type="curve" smooth="yes"/>
      <point x="180.974" y="590"/>
      <point x="213" y="623.326"/>
      <point x="213" y="663" type="curve" smooth="yes"/>
      <point x="213" y="702.353"/>
      <point x="180.344" y="735"/>
      <point x="141" y="735" type="curve" smooth="yes"/>
      <point x="101.785" y="735"/>
      <point x="68" y="702.52"/>
    </contour>
    <contour>
      <point x="175" y="492" type="line"/>
      <point x="125.09" y="485.27"/>
      <point x="75.9116" y="473.025"/>
      <point x="26" y="466" type="curve"/>
      <point x="37" y="398" type="line"/>
      <point x="88" y="398" type="line" name="hr01"/>
      <point x="88" y="77" type="line"/>
      <point x="32" y="64" type="line"/>
      <point x="43" y="0" type="line"/>
      <point x="264" y="0" type="line"/>
      <point x="264" y="64" type="line"/>
      <point x="209" y="75" type="line"/>
      <point x="209" y="456" type="line"/>
    </contour>
  </outline>
</glyph>
<glyph name="j" format="1">
  <advance width="264"/>
  <unicode hex="006A"/>
  <outline>
    <contour>
      <point x="200" y="456" type="line" name="hr00"/>
      <point x="165" y="492" type="line"/>
      <point x="17" y="466" type="line"/>
      <point x="28" y="398" type="line"/>
      <point x="79" y="398" type="line"/>
      <point x="79" y="-105" type="line" smooth="yes"/>
      <point x="79" y="-123.208"/>
      <point x="81.9164" y="-161"/>
      <point x="55" y="-161" type="curve" smooth="yes"/>
      <point x="44.4527" y="-161"/>
      <point x="34.6104" y="-154.749"/>
      <point x="27" y="-148" type="curve"/>
      <point x="-27" y="-233" type="line"/>
      <point x="-0.839006" y="-255.424"/>
      <point x="32.5134" y="-268"/>
      <point x="67" y="-268" type="curve" smooth="yes"/>
      <point x="166.779" y="-268"/>
      <point x="200" y="-194.292"/>
      <point x="200" y="-103" type="curve" smooth="yes"/>
    </contour>
    <contour>
      <point x="52" y="663" type="curve" smooth="yes" name="hr01"/>
      <point x="52" y="623.785"/>
      <point x="84.4798" y="590"/>
      <point x="124" y="590" type="curve" smooth="yes"/>
      <point x="163.85" y="590"/>
      <point x="197" y="623.15"/>
      <point x="197" y="663" type="curve" smooth="yes"/>
      <point x="197" y="702.52"/>
      <point x="163.215" y="735"/>
      <point x="124" y="735" type="curve" smooth="yes"/>
      <point x="85.1055" y="735"/>
      <point x="52" y="701.895"/>
    </contour>
  </outline>
</glyph>
<glyph name="l" format="1">
  <advance width="284"/>
  <unicode hex="006C"/>
  <outline>
    <contour>
      <point x="165" y="737" type="line" name="hr00"/>
      <point x="16" y="716" type="line"/>
      <point x="27" y="648" type="line"/>
      <point x="79" y="648" type="line"/>
      <point x="79" y="77" type="line"/>
      <point x="23" y="63" type="line"/>
      <point x="34" y="0" type="line"/>
      <point x="265" y="0" type="line"/>
      <point x="265" y="63" type="line"/>
      <point x="200" y="79" type="line"/>
      <point x="200" y="700" type="line"/>
    </contour>
  </outline>
</glyph>
<glyph name="m" format="1">
  <advance width="821"/>
  <unicode hex="006D"/>
  <outline>
    <contour>
      <point x="358" y="75" type="line" name="hr00"/>
      <point x="310" y="64" type="line"/>
      <point x="310" y="0" type="line"/>
      <point x="530" y="0" type="line"/>
      <point x="530.101" y="21.3359"/>
      <point x="530.981" y="42.6604"/>
      <point x="531" y="64" type="curve"/>
      <point x="478" y="74" type="line"/>
      <point x="478" y="356" type="line"/>
      <point x="495.424" y="376.697"/>
      <point x="538.695" y="393"/>
      <point x="565" y="393" type="curve" smooth="yes"/>
      <point x="605.826" y="393"/>
      <point x="627" y="371.982"/>
      <point x="627" y="331" type="curve" smooth="yes"/>
      <point x="627" y="75" type="line"/>
      <point x="571" y="63" type="line"/>
      <point x="571" y="0" type="line"/>
      <point x="798" y="0" type="line"/>
      <point x="798.101" y="21.3359"/>
      <point x="798.981" y="42.6604"/>
      <point x="799" y="64" type="curve"/>
      <point x="748" y="76" type="line"/>
      <point x="748" y="359" type="line" smooth="yes"/>
      <point x="748" y="448.855"/>
      <point x="680.123" y="491"/>
      <point x="597" y="491" type="curve" smooth="yes"/>
      <point x="541.831" y="491"/>
      <point x="492.813" y="476.683"/>
      <point x="448" y="444" type="curve"/>
      <point x="417.595" y="478.723"/>
      <point x="369.608" y="491"/>
      <point x="325" y="491" type="curve" smooth="yes"/>
      <point x="287.207" y="491"/>
      <point x="239.91" y="477.19"/>
      <point x="209" y="455" type="curve"/>
      <point x="174" y="492" type="line" name="hr01"/>
      <point x="124.438" y="485.101"/>
      <point x="75.5999" y="472.946"/>
      <point x="26" y="466" type="curve"/>
      <point x="37" y="398" type="line"/>
      <point x="88" y="398" type="line"/>
      <point x="88" y="77" type="line"/>
      <point x="30" y="63" type="line"/>
      <point x="43" y="0" type="line"/>
      <point x="265" y="0" type="line"/>
      <point x="265.099" y="21.0026"/>
      <point x="265.982" y="41.9936"/>
      <point x="266" y="63" type="curve"/>
      <point x="209" y="75" type="line"/>
      <point x="209" y="356" type="line"/>
      <point x="226.424" y="376.697"/>
      <point x="269.695" y="393"/>
      <point x="296" y="393" type="curve" smooth="yes" name="hr02"/>
      <point x="336.826" y="393"/>
      <point x="358" y="371.982"/>
      <point x="358" y="331" type="curve" smooth="yes"/>
    </contour>
  </outline>
</glyph>
<glyph name="n" format="1">
  <advance width="555"/>
  <unicode hex="006E"/>
  <outline>
    <contour>
      <point x="174" y="492" type="line" name="hr00"/>
      <point x="124.438" y="485.089"/>
      <point x="75.5997" y="472.951"/>
      <point x="26" y="466" type="curve"/>
      <point x="37" y="398" type="line"/>
      <point x="88" y="398" type="line"/>
      <point x="88" y="77" type="line"/>
      <point x="32" y="64" type="line"/>
      <point x="43" y="0" type="line"/>
      <point x="265" y="0" type="line"/>
      <point x="265.099" y="21.0026"/>
      <point x="265.982" y="41.9936"/>
      <point x="266" y="63" type="curve"/>
      <point x="209" y="75" type="line"/>
      <point x="209" y="356" type="line"/>
      <point x="226.424" y="376.697"/>
      <point x="269.695" y="393"/>
      <point x="296" y="393" type="curve" smooth="yes" name="hr01"/>
      <point x="336.826" y="393"/>
      <point x="358" y="371.982"/>
      <point x="358" y="331" type="curve" smooth="yes"/>
      <point x="358" y="75" type="line"/>
      <point x="308" y="64" type="line"/>
      <point x="308" y="0" type="line"/>
      <point x="533" y="0" type="line"/>
      <point x="533.101" y="21.3359"/>
      <point x="533.981" y="42.6604"/>
      <point x="534" y="64" type="curve"/>
      <point x="479" y="73" type="line"/>
      <point x="479" y="359" type="line" smooth="yes"/>
      <point x="479" y="449.721"/>
      <point x="408.049" y="491"/>
      <point x="325" y="491" type="curve" smooth="yes" name="hr02"/>
      <point x="287.207" y="491"/>
      <point x="239.91" y="477.19"/>
      <point x="209" y="455" type="curve"/>
    </contour>
  </outline>
</glyph>
<glyph name="o" format="1">
  <advance width="499"/>
  <unicode hex="006F"/>
  <outline>
    <contour>
      <point x="29" y="246" type="curve" smooth="yes" name="hr00"/>
      <point x="29" y="116.006"/>
      <point x="109.773" y="-4"/>
      <point x="249" y="-4" type="curve" smooth="yes"/>
      <point x="388.18" y="-4"/>
      <point x="470" y="115.724"/>
      <point x="470" y="246" type="curve" smooth="yes"/>
      <point x="470" y="377.067"/>
      <point x="387.429" y="491"/>
      <point x="249" y="491" type="curve" smooth="yes"/>
      <point x="110.517" y="491"/>
      <point x="29" y="376.79"/>
    </contour>
    <contour>
      <point x="153" y="240" type="curve" smooth="yes"/>
      <point x="153" y="301.919"/>
      <point x="168.824" y="397"/>
      <point x="249" y="397" type="curve" smooth="yes"/>
      <point x="329.958" y="397"/>
      <point x="346" y="302.875"/>
      <point x="346" y="240" type="curve" smooth="yes"/>
      <point x="346" y="175.272"/>
      <point x="330.178" y="90"/>
      <point x="249" y="90" type="curve" smooth="yes"/>
      <point x="168.568" y="90"/>
      <point x="153" y="176.235"/>
    </contour>
  </outline>
</glyph>
<glyph name="p" format="1">
  <advance width="515"/>
  <unicode hex="0070"/>
  <outline>
    <contour>
      <point x="166" y="491" type="line" name="hr00"/>
      <point x="16" y="467" type="line"/>
      <point x="29" y="395" type="line"/>
      <point x="80" y="402" type="line"/>
      <point x="80" y="-195" type="line"/>
      <point x="29" y="-210" type="line"/>
      <point x="45" y="-273" type="line"/>
      <point x="318" y="-273" type="line"/>
      <point x="318.187" y="-251.33"/>
      <point x="318.954" y="-229.673"/>
      <point x="319" y="-208" type="curve"/>
      <point x="201" y="-182" type="line"/>
      <point x="201" y="4" type="line"/>
      <point x="220.559" y="-1.16975"/>
      <point x="240.758" y="-4"/>
      <point x="261" y="-4" type="curve" smooth="yes"/>
      <point x="416.781" y="-4"/>
      <point x="484" y="104.714"/>
      <point x="484" y="251" type="curve" smooth="yes"/>
      <point x="484" y="375.469"/>
      <point x="425.607" y="491"/>
      <point x="287" y="491" type="curve" smooth="yes"/>
      <point x="252.951" y="491"/>
      <point x="219.237" y="483.883"/>
      <point x="189" y="468" type="curve"/>
    </contour>
    <contour>
      <point x="264" y="397" type="curve" smooth="yes"/>
      <point x="342.763" y="397"/>
      <point x="360" y="308.049"/>
      <point x="360" y="246" type="curve" smooth="yes"/>
      <point x="360" y="183.219"/>
      <point x="340.883" y="90"/>
      <point x="261" y="90" type="curve" smooth="yes"/>
      <point x="242.879" y="90"/>
      <point x="216.565" y="93.0513"/>
      <point x="201" y="103" type="curve"/>
      <point x="201" y="379" type="line"/>
      <point x="218.873" y="392.024"/>
      <point x="242.224" y="397"/>
    </contour>
  </outline>
</glyph>
<glyph name="q" format="1">
  <advance width="499"/>
  <unicode hex="0071"/>
  <outline>
    <contour>
      <point x="435" y="469" type="line" name="hr00"/>
      <point x="401" y="493" type="line"/>
      <point x="343" y="470" type="line"/>
      <point x="309.85" y="484.845"/>
      <point x="273.172" y="491"/>
      <point x="237" y="491" type="curve" smooth="yes" name="hr01"/>
      <point x="94.5622" y="491"/>
      <point x="31" y="359.415"/>
      <point x="31" y="233" type="curve" smooth="yes"/>
      <point x="31" y="111.311"/>
      <point x="89.0908" y="-4"/>
      <point x="225" y="-4" type="curve" smooth="yes"/>
      <point x="256.855" y="-4"/>
      <point x="289.025" y="3.22135"/>
      <point x="314" y="24" type="curve"/>
      <point x="314" y="-186" type="line"/>
      <point x="191" y="-210" type="line"/>
      <point x="202" y="-273" type="line"/>
      <point x="490" y="-273" type="line"/>
      <point x="490" y="-200" type="line"/>
      <point x="435" y="-181" type="line"/>
    </contour>
    <contour>
      <point x="247" y="91" type="curve" smooth="yes"/>
      <point x="167.226" y="91"/>
      <point x="155" y="183.692"/>
      <point x="155" y="245" type="curve" smooth="yes"/>
      <point x="155" y="310.346"/>
      <point x="169.643" y="398"/>
      <point x="252" y="398" type="curve" smooth="yes"/>
      <point x="273.04" y="398"/>
      <point x="298.497" y="392.322"/>
      <point x="314" y="377" type="curve"/>
      <point x="314" y="149" type="line" smooth="yes"/>
      <point x="314" y="119.049"/>
      <point x="274.918" y="91"/>
    </contour>
  </outline>
</glyph>
<glyph name="r" format="1">
  <advance width="428"/>
  <unicode hex="0072"/>
  <outline>
    <contour>
      <point x="166" y="491" type="line" name="hr00"/>
      <point x="119.426" y="484.471"/>
      <point x="73.4162" y="472.783"/>
      <point x="27" y="465" type="curve"/>
      <point x="38" y="397" type="line"/>
      <point x="89" y="401" type="line"/>
      <point x="89" y="80" type="line"/>
      <point x="29" y="64" type="line"/>
      <point x="44" y="0" type="line"/>
      <point x="332" y="0" type="line"/>
      <point x="331.879" y="21.3361"/>
      <point x="331.024" y="42.6603"/>
      <point x="331" y="64" type="curve"/>
      <point x="290.383" y="74.285"/>
      <point x="250.149" y="86.996"/>
      <point x="210" y="99" type="curve"/>
      <point x="210" y="286" type="line" smooth="yes"/>
      <point x="210" y="326.193"/>
      <point x="229.598" y="390.862"/>
      <point x="280" y="391" type="curve"/>
      <point x="310" y="341" type="line"/>
      <point x="431" y="404" type="line"/>
      <point x="412.6" y="463.153"/>
      <point x="361.629" y="491"/>
      <point x="302" y="491" type="curve" smooth="yes"/>
      <point x="262.651" y="491"/>
      <point x="224.494" y="468.908"/>
      <point x="200" y="439" type="curve"/>
    </contour>
  </outline>
</glyph>
<glyph name="s" format="1">
  <advance width="412"/>
  <unicode hex="0073"/>
  <outline>
    <contour>
      <point x="17" y="110" type="line" name="hr00"/>
      <point x="45.2576" y="38.9161"/>
      <point x="129.726" y="-3"/>
      <point x="203" y="-3" type="curve" smooth="yes"/>
      <point x="294.593" y="-3"/>
      <point x="381" y="50.3889"/>
      <point x="381" y="150" type="curve" smooth="yes"/>
      <point x="381" y="296.604"/>
      <point x="164" y="299.269"/>
      <point x="164" y="359" type="curve" smooth="yes"/>
      <point x="164" y="386.488"/>
      <point x="182.582" y="397"/>
      <point x="208" y="397" type="curve" smooth="yes"/>
      <point x="215.363" y="397"/>
      <point x="225.282" y="395.863"/>
      <point x="232" y="392" type="curve"/>
      <point x="256" y="341" type="line"/>
      <point x="383" y="392" type="line"/>
      <point x="350.42" y="457.22"/>
      <point x="284.636" y="491"/>
      <point x="213" y="491" type="curve" smooth="yes"/>
      <point x="129.763" y="491"/>
      <point x="40" y="437.626"/>
      <point x="40" y="346" type="curve" smooth="yes"/>
      <point x="40" y="193.758"/>
      <point x="259" y="205.605"/>
      <point x="259" y="137" type="curve" smooth="yes"/>
      <point x="259" y="108.63"/>
      <point x="235.95" y="91"/>
      <point x="209" y="91" type="curve" smooth="yes"/>
      <point x="196.367" y="91"/>
      <point x="183.401" y="91.3079"/>
      <point x="171" y="94" type="curve"/>
      <point x="145" y="159" type="line"/>
    </contour>
  </outline>
</glyph>
<glyph name="t" format="1">
  <advance width="345"/>
  <unicode hex="0074"/>
  <outline>
    <contour>
      <point x="318" y="400" type="line" name="hr00"/>
      <point x="318" y="485" type="line" smooth="yes"/>
      <point x="318" y="498.13"/>
      <point x="229.988" y="491"/>
      <point x="212" y="491" type="curve"/>
      <point x="212" y="666" type="line"/>
      <point x="203" y="682" type="line"/>
      <point x="96" y="659" type="line"/>
      <point x="93.3009" y="603.23"/>
      <point x="94.6871" y="546.843"/>
      <point x="94" y="491" type="curve"/>
      <point x="9" y="491" type="line"/>
      <point x="2" y="481" type="line"/>
      <point x="17" y="400" type="line"/>
      <point x="93" y="400" type="line"/>
      <point x="92.3178" y="312.682"/>
      <point x="91" y="225.32"/>
      <point x="91" y="138" type="curve" smooth="yes"/>
      <point x="91" y="51.7046"/>
      <point x="126.363" y="-4"/>
      <point x="217" y="-4" type="curve" smooth="yes"/>
      <point x="253.909" y="-4"/>
      <point x="308.459" y="12.8397"/>
      <point x="334" y="41" type="curve"/>
      <point x="328.576" y="68.108"/>
      <point x="318.368" y="95.9708"/>
      <point x="309" y="122" type="curve"/>
      <point x="292.835" y="108.652"/>
      <point x="264.223" y="93"/>
      <point x="243" y="93" type="curve" smooth="yes"/>
      <point x="213.109" y="93"/>
      <point x="212" y="113.399"/>
      <point x="212" y="139" type="curve" smooth="yes"/>
      <point x="212" y="400" type="line"/>
    </contour>
  </outline>
</glyph>
<glyph name="y" format="1">
  <advance width="498"/>
  <unicode hex="0079"/>
  <outline>
    <contour>
      <point x="496" y="455" type="line" name="hr00"/>
      <point x="418.903" y="249.105"/>
      <point x="354.068" y="38.538"/>
      <point x="276" y="-167" type="curve" smooth="yes"/>
      <point x="267.924" y="-188.262"/>
      <point x="257.968" y="-209.763"/>
      <point x="243.5" y="-227.5" type="curve" smooth="yes"/>
      <point x="217.148" y="-259.805"/>
      <point x="192.205" y="-274"/>
      <point x="150" y="-274" type="curve" smooth="yes"/>
      <point x="108.618" y="-274"/>
      <point x="59.364" y="-256.345"/>
      <point x="29" y="-228" type="curve"/>
      <point x="83" y="-144" type="line"/>
      <point x="94.9712" y="-154.574"/>
      <point x="125.272" y="-180"/>
      <point x="142" y="-180" type="curve" smooth="yes"/>
      <point x="184.342" y="-180"/>
      <point x="205.782" y="-86.1652"/>
      <point x="215" y="-61" type="curve"/>
      <point x="46" y="407" type="line"/>
      <point x="8" y="407" type="line"/>
      <point x="0" y="479" type="line"/>
      <point x="150" y="491" type="line"/>
      <point x="280" y="119" type="line"/>
      <point x="314.429" y="215.039"/>
      <point x="351.083" y="310.445"/>
      <point x="384" y="407" type="curve"/>
      <point x="338" y="407" type="line"/>
      <point x="330" y="480" type="line"/>
      <point x="476" y="491" type="line"/>
    </contour>
  </outline>
</glyph>
<glyph name="braceleft" format="1">
  <advance width="367"/>
  <unicode hex="007B"/>
  <outline>
    <contour>
      <point x="2" y="316" type="line" name="hr00"/>
      <point x="55.7255" y="315.996"/>
      <point x="113" y="348.571"/>
      <point x="113" y="408" type="curve" smooth="yes"/>
      <point x="113" y="439.739"/>
      <point x="109" y="471.264"/>
      <point x="109" y="503" type="curve" smooth="yes"/>
      <point x="109" y="627.265"/>
      <point x="146.927" y="713"/>
      <point x="285" y="713" type="curve" smooth="yes"/>
      <point x="313.365" y="713"/>
      <point x="349.778" y="708.885"/>
      <point x="376" y="698" type="curve" name="hr01"/>
      <point x="340" y="582" type="line"/>
      <point x="262" y="615" type="line"/>
      <point x="220.229" y="598.32"/>
      <point x="233" y="465.309"/>
      <point x="233" y="426" type="curve" smooth="yes"/>
      <point x="233" y="377.974"/>
      <point x="228.782" y="314.55"/>
      <point x="180.5" y="289.5" type="curve" smooth="yes"/>
      <point x="163.684" y="280.775"/>
      <point x="145.249" y="281.375"/>
      <point x="129" y="274" type="curve"/>
      <point x="256.9" y="258.189"/>
      <point x="232" y="141.365"/>
      <point x="232" y="44" type="curve" smooth="yes"/>
      <point x="232" y="16.0888"/>
      <point x="230.717" y="-51.5155"/>
      <point x="262" y="-64" type="curve"/>
      <point x="340" y="-30" type="line"/>
      <point x="376" y="-147" type="line"/>
      <point x="349.778" y="-157.885"/>
      <point x="313.365" y="-162"/>
      <point x="285" y="-162" type="curve" smooth="yes"/>
      <point x="146.291" y="-162"/>
      <point x="109" y="-75.0699"/>
      <point x="109" y="49" type="curve" smooth="yes"/>
      <point x="109" y="79.41"/>
      <point x="113" y="109.59"/>
      <point x="113" y="140" type="curve" smooth="yes"/>
      <point x="113" y="200.798"/>
      <point x="57.5535" y="234.004"/>
      <point x="2" y="234" type="curve"/>
    </contour>
  </outline>
</glyph>
<glyph name="braceright" format="1">
  <advance width="368"/>
  <unicode hex="007D"/>
  <outline>
    <contour>
      <point x="366" y="234" type="line" name="hr00"/>
      <point x="310.402" y="234.004"/>
      <point x="255" y="200.764"/>
      <point x="255" y="140" type="curve" smooth="yes" name="hr01"/>
      <point x="255" y="109.59"/>
      <point x="259" y="79.41"/>
      <point x="259" y="49" type="curve" smooth="yes"/>
      <point x="259" y="-74.8522"/>
      <point x="221.592" y="-162"/>
      <point x="83" y="-162" type="curve" smooth="yes"/>
      <point x="52.7" y="-162"/>
      <point x="19.4199" y="-157.9"/>
      <point x="-9" y="-147" type="curve"/>
      <point x="28" y="-30" type="line"/>
      <point x="106" y="-64" type="line"/>
      <point x="146.976" y="-46.7647"/>
      <point x="135" y="84.7992"/>
      <point x="135" y="124" type="curve" smooth="yes"/>
      <point x="135" y="157.784"/>
      <point x="137.721" y="205.172"/>
      <point x="157.5" y="234" type="curve" smooth="yes"/>
      <point x="178.007" y="263.89"/>
      <point x="199.789" y="263.863"/>
      <point x="231" y="273" type="curve" smooth="yes"/>
      <point x="233.7" y="273.79"/>
      <point x="236.365" y="275.012"/>
      <point x="239" y="276" type="curve"/>
      <point x="221.082" y="278.231"/>
      <point x="203.154" y="280.891"/>
      <point x="187" y="289.5" type="curve" smooth="yes"/>
      <point x="119.929" y="325.243"/>
      <point x="136" y="443.474"/>
      <point x="136" y="507" type="curve" smooth="yes" name="mh01"/>
      <point x="136" y="535.761"/>
      <point x="137.635" y="602.37"/>
      <point x="106" y="615" type="curve"/>
      <point x="28" y="582" type="line" name="mv02"/>
      <point x="-9" y="698" type="line"/>
      <point x="19.4199" y="708.9"/>
      <point x="52.7" y="713"/>
      <point x="83" y="713" type="curve" smooth="yes" name="mv03"/>
      <point x="221.051" y="713"/>
      <point x="259" y="627.295"/>
      <point x="259" y="503" type="curve" smooth="yes" name="mh03"/>
      <point x="259" y="471.264"/>
      <point x="255" y="439.739"/>
      <point x="255" y="408" type="curve" smooth="yes"/>
      <point x="255" y="348.571"/>
      <point x="312.275" y="315.996"/>
      <point x="366" y="316" type="curve" name="hr02"/>
    </contour>
  </outline>
</glyph>
<glyph name="asciitilde" format="1">
  <advance width="436"/>
  <unicode hex="007E"/>
  <outline>
    <contour>
      <point x="343" y="697" type="line" name="mh01"/>
      <point x="424" y="622" type="line" name="hr01"/>
      <point x="396.709" y="584.786"/>
      <point x="352.07" y="543"/>
      <point x="303" y="543" type="curve" smooth="yes" name="mv01"/>
      <point x="243.985" y="543"/>
      <point x="216.049" y="588"/>
      <point x="163" y="588" type="curve" smooth="yes" name="mv02"/>
      <point x="128.818" y="588"/>
      <point x="103.692" y="566.305"/>
      <point x="94" y="534" type="curve"/>
      <point x="20" y="579" type="line" name="mv03"/>
      <point x="20" y="597" type="line" smooth="yes" name="hr02"/>
      <point x="20" y="601.149"/>
      <point x="31.848" y="620.964"/>
      <point x="34.5" y="625" type="curve" smooth="yes"/>
      <point x="60.7241" y="664.91"/>
      <point x="104.271" y="689"/>
      <point x="152" y="689" type="curve" smooth="yes" name="mv04"/>
      <point x="213.779" y="689"/>
      <point x="273.762" y="639.101"/>
      <point x="289" y="639" type="curve" name="hr03"/>
    </contour>
  </outline>
</glyph>
<glyph name="cent" format="1">
  <advance width="438"/>
  <unicode hex="00A2"/>
  <outline>
    <contour>
      <point x="303" y="689" type="line" name="hr00"/>
      <point x="303" y="484" type="line"/>
      <point x="347.572" y="472.863"/>
      <point x="390.724" y="443.727"/>
      <point x="412" y="402" type="curve"/>
      <point x="291" y="337" type="line"/>
      <point x="248" y="397" type="line"/>
      <point x="168.127" y="397.024"/>
      <point x="151" y="299.843"/>
      <point x="151" y="238" type="curve" smooth="yes"/>
      <point x="151" y="163.438"/>
      <point x="181.779" y="91"/>
      <point x="267" y="91" type="curve" smooth="yes"/>
      <point x="312.709" y="91"/>
      <point x="345.148" y="110.782"/>
      <point x="379" y="139" type="curve"/>
      <point x="387.229" y="110.267"/>
      <point x="395.632" y="80.312"/>
      <point x="405" y="52" type="curve"/>
      <point x="378.106" y="23.6902"/>
      <point x="340.78" y="8.31066"/>
      <point x="303" y="1" type="curve"/>
      <point x="303" y="-200" type="line"/>
      <point x="182" y="-200" type="line"/>
      <point x="182" y="5" type="line"/>
      <point x="75.4896" y="35.9219"/>
      <point x="27" y="126.993"/>
      <point x="27" y="233" type="curve" smooth="yes"/>
      <point x="27" y="342.034"/>
      <point x="66.1236" y="452.098"/>
      <point x="182" y="483" type="curve"/>
      <point x="182" y="689" type="line" name="at01"/>
    </contour>
  </outline>
</glyph>
<glyph name="sterling" format="1">
  <advance width="528"/>
  <unicode hex="00A3"/>
  <outline>
    <contour>
      <point x="283" y="318" type="line" name="hr00"/>
      <point x="276.851" y="258.967"/>
      <point x="265.57" y="198.47"/>
      <point x="244" y="143" type="curve"/>
      <point x="281.348" y="135.219"/>
      <point x="364.36" y="102.093"/>
      <point x="393" y="102" type="curve"/>
      <point x="429" y="144" type="line"/>
      <point x="498" y="34" type="line"/>
      <point x="470.87" y="4.15341"/>
      <point x="423.677" y="-4"/>
      <point x="385" y="-4" type="curve" smooth="yes"/>
      <point x="305.69" y="-4"/>
      <point x="235.027" y="41"/>
      <point x="176" y="41" type="curve" smooth="yes"/>
      <point x="143.701" y="41"/>
      <point x="113.017" y="30.0469"/>
      <point x="103" y="-4" type="curve"/>
      <point x="28" y="3" type="line"/>
      <point x="25" y="48" type="line"/>
      <point x="35.0223" y="70.5546"/>
      <point x="50.2957" y="90.0046"/>
      <point x="67" y="108" type="curve" smooth="yes"/>
      <point x="121.009" y="166.184"/>
      <point x="144.33" y="240.642"/>
      <point x="155" y="318" type="curve"/>
      <point x="90" y="318" type="line"/>
      <point x="90" y="404" type="line"/>
      <point x="98" y="413" type="line"/>
      <point x="162" y="413" type="line"/>
      <point x="165.46" y="444.132"/>
      <point x="162" y="476.657"/>
      <point x="162" y="508" type="curve" smooth="yes"/>
      <point x="162" y="615.255"/>
      <point x="220.55" y="692"/>
      <point x="333" y="692" type="curve" smooth="yes"/>
      <point x="384.741" y="692"/>
      <point x="433.285" y="669.511"/>
      <point x="474" y="639" type="curve"/>
      <point x="383" y="538" type="line"/>
      <point x="341" y="586" type="line"/>
      <point x="331.609" y="586.009"/>
      <point x="321.198" y="585.027"/>
      <point x="313" y="580" type="curve" smooth="yes"/>
      <point x="281.839" y="560.893"/>
      <point x="292.752" y="444.526"/>
      <point x="291" y="413" type="curve"/>
      <point x="416" y="413" type="line" smooth="yes"/>
      <point x="420.902" y="413"/>
      <point x="423" y="409.547"/>
      <point x="423" y="405" type="curve" smooth="yes"/>
      <point x="423" y="318" type="line"/>
    </contour>
  </outline>
</glyph>
<glyph name="currency" format="1">
  <advance width="585"/>
  <unicode hex="00A4"/>
  <outline>
    <contour>
      <point x="97" y="346" type="curve" smooth="yes" name="hr00"/>
      <point x="97" y="380.992"/>
      <point x="105.121" y="415.745"/>
      <point x="123" y="446" type="curve"/>
      <point x="44" y="525" type="line"/>
      <point x="119" y="600" type="line"/>
      <point x="199" y="519" type="line"/>
      <point x="228.026" y="534.204"/>
      <point x="260.158" y="543"/>
      <point x="293" y="543" type="curve" smooth="yes" name="mh01"/>
      <point x="325.842" y="543"/>
      <point x="357.974" y="534.204"/>
      <point x="387" y="519" type="curve"/>
      <point x="467" y="600" type="line"/>
      <point x="542" y="525" type="line"/>
      <point x="462" y="445" type="line"/>
      <point x="479.678" y="415.085"/>
      <point x="489" y="380.734"/>
      <point x="489" y="346" type="curve" smooth="yes"/>
      <point x="489" y="312.378"/>
      <point x="480.631" y="279.267"/>
      <point x="464" y="250" type="curve"/>
      <point x="542" y="172" type="line"/>
      <point x="467" y="98" type="line"/>
      <point x="390" y="175" type="line"/>
      <point x="360.321" y="158.509"/>
      <point x="326.938" y="150"/>
      <point x="293" y="150" type="curve" smooth="yes"/>
      <point x="259.068" y="150"/>
      <point x="225.562" y="158.202"/>
      <point x="196" y="175" type="curve"/>
      <point x="119" y="98" type="line"/>
      <point x="44" y="172" type="line"/>
      <point x="122" y="250" type="line"/>
      <point x="105.369" y="279.267"/>
      <point x="97" y="312.378"/>
    </contour>
    <contour>
      <point x="201" y="346" type="curve" smooth="yes"/>
      <point x="201" y="290.433"/>
      <point x="237.629" y="254"/>
      <point x="293" y="254" type="curve" smooth="yes"/>
      <point x="347.974" y="254"/>
      <point x="384" y="291.351"/>
      <point x="384" y="346" type="curve" smooth="yes"/>
      <point x="384" y="400.649"/>
      <point x="347.974" y="438"/>
      <point x="293" y="438" type="curve" smooth="yes"/>
      <point x="237.629" y="438"/>
      <point x="201" y="401.567"/>
    </contour>
  </outline>
</glyph>
<glyph name="section" format="1">
  <advance width="512"/>
  <unicode hex="00A7"/>
  <outline>
    <contour>
      <point x="470" y="249" type="curve" smooth="yes" name="mh01"/>
      <point x="470" y="206.092"/>
      <point x="448.411" y="168.087"/>
      <point x="418" y="139" type="curve"/>
      <point x="450.063" y="108.286"/>
      <point x="463" y="74.1074"/>
      <point x="463" y="30" type="curve" smooth="yes"/>
      <point x="463" y="-109.346"/>
      <point x="345.46" y="-161"/>
      <point x="223" y="-161" type="curve" smooth="yes" name="mv01"/>
      <point x="154.407" y="-161"/>
      <point x="95.3161" y="-143.708"/>
      <point x="32" y="-119" type="curve"/>
      <point x="52" y="75" type="line"/>
      <point x="136" y="67" type="line"/>
      <point x="145" y="-54" type="line"/>
      <point x="172.757" y="-60.9402"/>
      <point x="199.266" y="-66"/>
      <point x="228" y="-66" type="curve" smooth="yes"/>
      <point x="273.131" y="-66"/>
      <point x="327" y="-51.8895"/>
      <point x="327" y="3" type="curve" smooth="yes"/>
      <point x="327" y="113.825"/>
      <point x="51" y="95.2217"/>
      <point x="51" y="276" type="curve" smooth="yes" name="mh02"/>
      <point x="51" y="321.713"/>
      <point x="73.7488" y="358.232"/>
      <point x="108" y="387" type="curve"/>
      <point x="70.6292" y="421.378"/>
      <point x="52" y="461.047"/>
      <point x="52" y="512" type="curve" smooth="yes" name="mh03"/>
      <point x="52" y="630.698"/>
      <point x="160.826" y="692"/>
      <point x="268" y="692" type="curve" smooth="yes" name="mv03"/>
      <point x="331.877" y="692"/>
      <point x="395.548" y="682.331"/>
      <point x="457" y="665" type="curve"/>
      <point x="472" y="474" type="line"/>
      <point x="388" y="474" type="line"/>
      <point x="343" y="589" type="line"/>
      <point x="320.117" y="594.269"/>
      <point x="296.477" y="597"/>
      <point x="273" y="597" type="curve" smooth="yes" name="mv04"/>
      <point x="230.923" y="597"/>
      <point x="189" y="578.353"/>
      <point x="189" y="530" type="curve" smooth="yes"/>
      <point x="189" y="411.304"/>
      <point x="470" y="433.155"/>
    </contour>
    <contour>
      <point x="202" y="331" type="curve" name="av01"/>
      <point x="192.413" y="320.142"/>
      <point x="187" y="306.522"/>
      <point x="187" y="292" type="curve" smooth="yes"/>
      <point x="187" y="240.047"/>
      <point x="285.133" y="226.977"/>
      <point x="317" y="203" type="curve"/>
      <point x="326.136" y="212.135"/>
      <point x="334" y="223.64"/>
      <point x="334" y="237" type="curve" smooth="yes"/>
      <point x="334" y="285.718"/>
      <point x="239.545" y="314.313"/>
    </contour>
  </outline>
</glyph>
<glyph name="copyright" format="1">
  <advance width="752"/>
  <unicode hex="00A9"/>
  <outline>
    <contour>
      <point x="30" y="373" type="curve" smooth="yes" name="hr00"/>
      <point x="30" y="562.793"/>
      <point x="184.995" y="719"/>
      <point x="375" y="719" type="curve" smooth="yes"/>
      <point x="564.145" y="719"/>
      <point x="722" y="562.442"/>
      <point x="722" y="373" type="curve" smooth="yes"/>
      <point x="722" y="183.558"/>
      <point x="564.145" y="27"/>
      <point x="375" y="27" type="curve" smooth="yes"/>
      <point x="184.995" y="27"/>
      <point x="30" y="183.207"/>
    </contour>
    <contour>
      <point x="160" y="374" type="curve" smooth="yes"/>
      <point x="160" y="254.964"/>
      <point x="256.561" y="157"/>
      <point x="376" y="157" type="curve" smooth="yes"/>
      <point x="495.611" y="157"/>
      <point x="591" y="254.959"/>
      <point x="591" y="374" type="curve" smooth="yes"/>
      <point x="591" y="492.069"/>
      <point x="493.988" y="589"/>
      <point x="376" y="589" type="curve" smooth="yes"/>
      <point x="258.328" y="589"/>
      <point x="160" y="492.008"/>
    </contour>
    <contour>
      <point x="482" y="220" type="line"/>
      <point x="453.939" y="201.851"/>
      <point x="421.514" y="191"/>
      <point x="388" y="191" type="curve" smooth="yes"/>
      <point x="283.97" y="191"/>
      <point x="203" y="265.437"/>
      <point x="203" y="371" type="curve" smooth="yes"/>
      <point x="203" y="480.412"/>
      <point x="276.406" y="558"/>
      <point x="387" y="558" type="curve" smooth="yes"/>
      <point x="409.514" y="558"/>
      <point x="431.841" y="556.02"/>
      <point x="454" y="552" type="curve"/>
      <point x="463" y="413" type="line"/>
      <point x="408" y="413" type="line"/>
      <point x="393" y="459" type="line"/>
      <point x="387.681" y="460.076"/>
      <point x="382.393" y="460"/>
      <point x="377" y="460" type="curve" smooth="yes"/>
      <point x="323.666" y="460"/>
      <point x="297" y="423.942"/>
      <point x="297" y="373" type="curve" smooth="yes"/>
      <point x="297" y="324.89"/>
      <point x="336.674" y="289"/>
      <point x="384" y="289" type="curve" smooth="yes"/>
      <point x="406.368" y="289"/>
      <point x="427.164" y="296.09"/>
      <point x="447" y="306" type="curve"/>
    </contour>
  </outline>
</glyph>
<glyph name="ordfeminine" format="1">
  <advance width="385"/>
  <unicode hex="00AA"/>
  <outline>
    <contour>
      <point x="320" y="591" type="curve" name="hr00"/>
      <point x="320.055" y="683.386"/>
      <point x="265.482" y="724"/>
      <point x="176" y="724" type="curve" smooth="yes"/>
      <point x="115.74" y="724"/>
      <point x="55.8769" y="704.036"/>
      <point x="33" y="643" type="curve"/>
      <point x="146" y="617" type="line"/>
      <point x="155" y="640" type="line"/>
      <point x="162.108" y="643.855"/>
      <point x="169.063" y="645"/>
      <point x="177" y="645" type="curve" smooth="yes" name="hr01"/>
      <point x="206.183" y="645"/>
      <point x="209" y="620.283"/>
      <point x="209" y="598" type="curve"/>
      <point x="139.351" y="597.121"/>
      <point x="32" y="587.363"/>
      <point x="32" y="495" type="curve" smooth="yes"/>
      <point x="32" y="437.914"/>
      <point x="84.4929" y="401"/>
      <point x="138" y="401" type="curve" smooth="yes"/>
      <point x="170.64" y="401"/>
      <point x="205.455" y="409.95"/>
      <point x="228" y="435" type="curve"/>
      <point x="243.126" y="415.8"/>
      <point x="265.377" y="404"/>
      <point x="290" y="404" type="curve" smooth="yes"/>
      <point x="316.006" y="404"/>
      <point x="340.872" y="415.881"/>
      <point x="360" y="433" type="curve"/>
      <point x="342" y="493" type="line"/>
      <point x="334.796" y="492.269"/>
      <point x="328.302" y="491"/>
      <point x="321" y="491" type="curve"/>
      <point x="318.339" y="498.601"/>
      <point x="318.475" y="588.611"/>
    </contour>
    <contour>
      <point x="164" y="482" type="curve" smooth="yes"/>
      <point x="147.705" y="482"/>
      <point x="136" y="493.763"/>
      <point x="136" y="510" type="curve" smooth="yes"/>
      <point x="136" y="545.543"/>
      <point x="183.981" y="545.026"/>
      <point x="209" y="545" type="curve"/>
      <point x="209" y="501" type="line"/>
      <point x="198.533" y="486.548"/>
      <point x="181.096" y="482"/>
    </contour>
  </outline>
</glyph>
<glyph name="uni00AD" format="1">
  <advance width="429"/>
  <unicode hex="00AD"/>
  <outline>
    <contour>
      <point x="459" y="419" type="line" name="hr00"/>
      <point x="-30" y="419" type="line"/>
      <point x="-30" y="314" type="line"/>
      <point x="459" y="314" type="line"/>
    </contour>
  </outline>
</glyph>
<glyph name="threesuperior" format="1">
  <advance width="323"/>
  <unicode hex="00B3"/>
  <outline>
    <contour>
      <point x="62" y="511" type="line" name="hr00"/>
      <point x="84.3126" y="488.691"/>
      <point x="113.42" y="476"/>
      <point x="145" y="476" type="curve" smooth="yes"/>
      <point x="164.5" y="476"/>
      <point x="185" y="485.909"/>
      <point x="185" y="508" type="curve" smooth="yes"/>
      <point x="185" y="543.329"/>
      <point x="136.199" y="540.003"/>
      <point x="112" y="540" type="curve"/>
      <point x="112" y="592" type="line"/>
      <point x="138.575" y="591.995"/>
      <point x="178" y="594.894"/>
      <point x="178" y="630" type="curve" smooth="yes"/>
      <point x="178" y="643.679"/>
      <point x="164.454" y="652"/>
      <point x="152" y="652" type="curve" smooth="yes"/>
      <point x="143.265" y="652"/>
      <point x="137.272" y="650.074"/>
      <point x="129" y="648" type="curve"/>
      <point x="114" y="621" type="line"/>
      <point x="31" y="650" type="line"/>
      <point x="54.1411" y="705.826"/>
      <point x="109.659" y="728"/>
      <point x="167" y="728" type="curve" smooth="yes"/>
      <point x="217.301" y="728"/>
      <point x="283" y="698.282"/>
      <point x="283" y="640" type="curve" smooth="yes"/>
      <point x="283" y="603.478"/>
      <point x="264.761" y="579.413"/>
      <point x="229" y="570" type="curve"/>
      <point x="267.134" y="560.449"/>
      <point x="290" y="538.097"/>
      <point x="290" y="497" type="curve" smooth="yes"/>
      <point x="290" y="418.463"/>
      <point x="209.925" y="402"/>
      <point x="147" y="402" type="curve" smooth="yes"/>
      <point x="108.579" y="402"/>
      <point x="56.7262" y="416.516"/>
      <point x="28" y="443" type="curve"/>
    </contour>
  </outline>
</glyph>
<glyph name="mu" format="1">
  <advance width="562"/>
  <unicode hex="00B5"/>
  <unicode hex="03BC"/>
  <outline>
    <contour>
      <point x="88" y="-274" type="line" name="hr00"/>
      <point x="88" y="398" type="line"/>
      <point x="35" y="398" type="line"/>
      <point x="25" y="465" type="line"/>
      <point x="175" y="492" type="line"/>
      <point x="209" y="458" type="line"/>
      <point x="209" y="151" type="line" smooth="yes"/>
      <point x="209" y="114.464"/>
      <point x="242.699" y="92"/>
      <point x="276" y="92" type="curve" smooth="yes" name="mh01"/>
      <point x="308.225" y="92"/>
      <point x="344.789" y="113.481"/>
      <point x="357" y="144" type="curve"/>
      <point x="357" y="401" type="line"/>
      <point x="312" y="398" type="line"/>
      <point x="301" y="465" type="line"/>
      <point x="443" y="492" type="line"/>
      <point x="478" y="454" type="line"/>
      <point x="478" y="105" type="line" smooth="yes"/>
      <point x="478" y="81.8709"/>
      <point x="488.405" y="81.4183"/>
      <point x="508" y="85" type="curve"/>
      <point x="527" y="29" type="line"/>
      <point x="508.165" y="7.13246"/>
      <point x="478.197" y="-4"/>
      <point x="450" y="-4" type="curve" smooth="yes"/>
      <point x="413.996" y="-4"/>
      <point x="384.566" y="9.25425"/>
      <point x="369" y="43" type="curve"/>
      <point x="340.975" y="12.5349"/>
      <point x="303.491" y="-4"/>
      <point x="262" y="-4" type="curve" smooth="yes"/>
      <point x="242.82" y="-4"/>
      <point x="223.717" y="-1.01063"/>
      <point x="205" y="3" type="curve"/>
      <point x="207.414" y="-11.4841"/>
      <point x="209" y="-26.3046"/>
      <point x="209" y="-41" type="curve" smooth="yes"/>
      <point x="209" y="-274" type="line"/>
    </contour>
  </outline>
</glyph>
<glyph name="cedilla" format="1">
  <advance width="415"/>
  <unicode hex="00B8"/>
  <outline>
    <contour>
      <point x="158" y="-101" type="line" name="hr00"/>
      <point x="197.286" y="-104.701"/>
      <point x="249" y="-105.375"/>
      <point x="249" y="-159" type="curve" smooth="yes"/>
      <point x="249" y="-191.406"/>
      <point x="214.913" y="-209.824"/>
      <point x="186" y="-210" type="curve"/>
      <point x="114" y="-162" type="line"/>
      <point x="64" y="-259" type="line"/>
      <point x="107.558" y="-274.93"/>
      <point x="144.837" y="-286"/>
      <point x="192" y="-286" type="curve" smooth="yes"/>
      <point x="269.291" y="-286"/>
      <point x="357" y="-244.021"/>
      <point x="357" y="-156" type="curve" smooth="yes"/>
      <point x="357" y="-89.7879"/>
      <point x="314.263" y="-53.6391"/>
      <point x="253" y="-41" type="curve"/>
      <point x="271" y="15" type="line"/>
      <point x="168" y="15" type="line"/>
      <point x="134" y="-82" type="line"/>
    </contour>
  </outline>
</glyph>
<glyph name="ordmasculine" format="1">
  <advance width="354"/>
  <unicode hex="00BA"/>
  <outline>
    <contour>
      <point x="30" y="563" type="curve" smooth="yes" name="hr00"/>
      <point x="30" y="468.019"/>
      <point x="74.9516" y="399"/>
      <point x="176" y="399" type="curve" smooth="yes"/>
      <point x="276.843" y="399"/>
      <point x="324" y="467.483"/>
      <point x="324" y="563" type="curve" smooth="yes"/>
      <point x="324" y="659.755"/>
      <point x="277.688" y="726"/>
      <point x="176" y="726" type="curve" smooth="yes"/>
      <point x="74.1107" y="726"/>
      <point x="30" y="659.21"/>
    </contour>
    <contour>
      <point x="135" y="561" type="curve" smooth="yes"/>
      <point x="135" y="591.97"/>
      <point x="134.864" y="632"/>
      <point x="176" y="632" type="curve" smooth="yes"/>
      <point x="217.182" y="632"/>
      <point x="219" y="592.636"/>
      <point x="219" y="561" type="curve" smooth="yes"/>
      <point x="219" y="528.663"/>
      <point x="217.499" y="492"/>
      <point x="176" y="492" type="curve" smooth="yes"/>
      <point x="134.515" y="492"/>
      <point x="135" y="529.307"/>
    </contour>
  </outline>
</glyph>
<glyph name="onequarter" format="1">
  <advance width="757"/>
  <unicode hex="00BC"/>
  <outline>
    <contour>
      <point x="254" y="0" type="line" name="mh01"/>
      <point x="129" y="0" type="line"/>
      <point x="126" y="13" type="line" name="mh02"/>
      <point x="444" y="691" type="line" name="mh03"/>
      <point x="572" y="691" type="line" name="mh04"/>
      <point x="571" y="677" type="line" name="mh05"/>
    </contour>
    <contour>
      <point x="725" y="101" type="line"/>
      <point x="680" y="101" type="line" name="hr03"/>
      <point x="680" y="66" type="line"/>
      <point x="726" y="58" type="line"/>
      <point x="726" y="0" type="line"/>
      <point x="486" y="0" type="line" name="hr02"/>
      <point x="480" y="49" type="line"/>
      <point x="564" y="63" type="line"/>
      <point x="564" y="101" type="line"/>
      <point x="394" y="101" type="line" name="hr01"/>
      <point x="394" y="181" type="line" name="mh06"/>
      <point x="564" y="400" type="line" name="mv01"/>
      <point x="680" y="400" type="line"/>
      <point x="680" y="185" type="line"/>
      <point x="725" y="185" type="line"/>
    </contour>
    <contour>
      <point x="45" y="371" type="line"/>
      <point x="91" y="378" type="line"/>
      <point x="91" y="608" type="line"/>
      <point x="37" y="600" type="line"/>
      <point x="29" y="666" type="line"/>
      <point x="193" y="714" type="line"/>
      <point x="206" y="702" type="line"/>
      <point x="206" y="381" type="line"/>
      <point x="248" y="373" type="line"/>
      <point x="248" y="315" type="line" name="mh07"/>
      <point x="45" y="315" type="line"/>
    </contour>
    <contour>
      <point x="564" y="185" type="line" name="mh08"/>
      <point x="564" y="269" type="line" name="mh09"/>
      <point x="490" y="185" type="line" name="mh10"/>
    </contour>
  </outline>
</glyph>
<glyph name="onehalf" format="1">
  <advance width="784"/>
  <unicode hex="00BD"/>
  <outline>
    <contour>
      <point x="472" y="-1" type="line" name="hr00"/>
      <point x="453" y="68" type="line"/>
      <point x="485.893" y="110.215"/>
      <point x="622" y="232.122"/>
      <point x="622" y="280" type="curve" smooth="yes"/>
      <point x="622" y="294.506"/>
      <point x="612.506" y="304"/>
      <point x="598" y="304" type="curve" smooth="yes"/>
      <point x="592.143" y="304"/>
      <point x="585.574" y="304.123"/>
      <point x="580" y="302" type="curve"/>
      <point x="562" y="249" type="line" name="mh02"/>
      <point x="445" y="294" type="line" name="mh03"/>
      <point x="473.808" y="356.062"/>
      <point x="527.433" y="399"/>
      <point x="598" y="399" type="curve" smooth="yes"/>
      <point x="674.644" y="399"/>
      <point x="740" y="370.608"/>
      <point x="740" y="284" type="curve" smooth="yes" name="mh05"/>
      <point x="740" y="218.596"/>
      <point x="662.121" y="125.644"/>
      <point x="612" y="88" type="curve" name="mh08"/>
      <point x="679" y="88" type="line" name="mh09"/>
      <point x="703" y="149" type="line" name="mh10"/>
      <point x="755" y="149" type="line"/>
      <point x="739" y="-1" type="line" name="mh11"/>
    </contour>
    <contour>
      <point x="263" y="0" type="line" name="mh12"/>
      <point x="138" y="0" type="line"/>
      <point x="135" y="13" type="line"/>
      <point x="453" y="691" type="line" name="mh13"/>
      <point x="581" y="691" type="line" name="mv02"/>
      <point x="580" y="677" type="line" name="mh14"/>
    </contour>
    <contour>
      <point x="45" y="371" type="line"/>
      <point x="91" y="378" type="line"/>
      <point x="91" y="608" type="line"/>
      <point x="37" y="600" type="line"/>
      <point x="29" y="666" type="line"/>
      <point x="193" y="714" type="line" name="mh15"/>
      <point x="206" y="702" type="line"/>
      <point x="206" y="381" type="line"/>
      <point x="244" y="373" type="line"/>
      <point x="244" y="315" type="line" name="mh16"/>
      <point x="45" y="315" type="line" name="mh17"/>
    </contour>
  </outline>
</glyph>
<glyph name="threequarters" format="1">
  <advance width="805"/>
  <unicode hex="00BE"/>
  <outline>
    <contour>
      <point x="317" y="0" type="line" name="mh01"/>
      <point x="192" y="0" type="line" name="mh02"/>
      <point x="189" y="13" type="line"/>
      <point x="507" y="691" type="line" name="mv01"/>
      <point x="635" y="691" type="line" name="mh03"/>
      <point x="634" y="677" type="line" name="mh04"/>
    </contour>
    <contour>
      <point x="771" y="101" type="line"/>
      <point x="726" y="101" type="line"/>
      <point x="726" y="66" type="line"/>
      <point x="772" y="58" type="line"/>
      <point x="772" y="0" type="line"/>
      <point x="532" y="0" type="line" name="hr01"/>
      <point x="526" y="49" type="line"/>
      <point x="610" y="63" type="line"/>
      <point x="610" y="101" type="line"/>
      <point x="440" y="101" type="line"/>
      <point x="440" y="181" type="line"/>
      <point x="617" y="400" type="line"/>
      <point x="726" y="400" type="line"/>
      <point x="726" y="185" type="line"/>
      <point x="771" y="185" type="line"/>
    </contour>
    <contour>
      <point x="332" y="607" type="curve" smooth="yes"/>
      <point x="332" y="573.187"/>
      <point x="316.294" y="536.022"/>
      <point x="283" y="523" type="curve"/>
      <point x="316.35" y="502.156"/>
      <point x="339" y="483.638"/>
      <point x="339" y="441" type="curve" smooth="yes"/>
      <point x="339" y="346.83"/>
      <point x="255.525" y="313"/>
      <point x="174" y="313" type="curve" smooth="yes"/>
      <point x="123.902" y="313"/>
      <point x="74.2492" y="328.101"/>
      <point x="37" y="363" type="curve"/>
      <point x="94" y="444" type="line"/>
      <point x="113.721" y="425.262"/>
      <point x="145.132" y="407"/>
      <point x="173" y="407" type="curve" smooth="yes" name="hr02"/>
      <point x="195.373" y="407"/>
      <point x="217" y="418.305"/>
      <point x="217" y="443" type="curve" smooth="yes"/>
      <point x="217" y="487.323"/>
      <point x="173.662" y="480.982"/>
      <point x="143" y="481" type="curve"/>
      <point x="143" y="554" type="line" name="hr03"/>
      <point x="147.962" y="553.669"/>
      <point x="153.029" y="553"/>
      <point x="158" y="553" type="curve" smooth="yes"/>
      <point x="182.539" y="553"/>
      <point x="215" y="557.873"/>
      <point x="215" y="589" type="curve" smooth="yes"/>
      <point x="215" y="610.405"/>
      <point x="196.257" y="621"/>
      <point x="177" y="621" type="curve" smooth="yes"/>
      <point x="166.421" y="621"/>
      <point x="161.388" y="619.682"/>
      <point x="152" y="615" type="curve" name="hr04"/>
      <point x="134" y="565" type="line" name="mh05"/>
      <point x="26" y="605" type="line"/>
      <point x="48.6001" y="675.326"/>
      <point x="119.636" y="715"/>
      <point x="191" y="715" type="curve" smooth="yes" name="mh06"/>
      <point x="262.397" y="715"/>
      <point x="332" y="690.062"/>
    </contour>
    <contour>
      <point x="610" y="185" type="line"/>
      <point x="610" y="269" type="line"/>
      <point x="536" y="185" type="line"/>
    </contour>
  </outline>
</glyph>
<glyph name="questiondown" format="1">
  <advance width="407"/>
  <unicode hex="00BF"/>
  <outline>
    <contour>
      <point x="195" y="252" type="line" name="hr00"/>
      <point x="195" y="129.483"/>
      <point x="22" y="127.144"/>
      <point x="22" y="-50" type="curve" smooth="yes"/>
      <point x="22" y="-151.198"/>
      <point x="108.319" y="-202"/>
      <point x="201" y="-202" type="curve" smooth="yes"/>
      <point x="259.608" y="-202"/>
      <point x="302.85" y="-189.467"/>
      <point x="357" y="-170" type="curve"/>
      <point x="373" y="5" type="line"/>
      <point x="302" y="5" type="line"/>
      <point x="276" y="-90" type="line"/>
      <point x="261.861" y="-97.751"/>
      <point x="238.671" y="-99"/>
      <point x="223" y="-99" type="curve" smooth="yes" name="hr01"/>
      <point x="183.56" y="-99"/>
      <point x="159" y="-73.1793"/>
      <point x="159" y="-34" type="curve" smooth="yes"/>
      <point x="159" y="55.5835"/>
      <point x="304" y="64.6554"/>
      <point x="304" y="185" type="curve" smooth="yes" name="hr02"/>
      <point x="304" y="207.339"/>
      <point x="300.883" y="231.388"/>
      <point x="295" y="253" type="curve"/>
    </contour>
    <contour>
      <point x="312" y="425" type="curve" smooth="yes"/>
      <point x="312" y="461.835"/>
      <point x="281.835" y="492"/>
      <point x="245" y="492" type="curve" smooth="yes"/>
      <point x="208.04" y="492"/>
      <point x="179" y="461.657"/>
      <point x="179" y="425" type="curve" smooth="yes" name="hr03"/>
      <point x="179" y="388.216"/>
      <point x="208.216" y="359"/>
      <point x="245" y="359" type="curve" smooth="yes"/>
      <point x="281.657" y="359"/>
      <point x="312" y="388.04"/>
    </contour>
  </outline>
</glyph>
<glyph name="Atilde" format="1">
  <advance width="621"/>
  <unicode hex="00C3"/>
  <outline>
    <contour>
      <point x="433" y="881" type="line" name="hr02"/>
      <point x="514" y="805" type="line"/>
      <point x="486.439" y="767.417"/>
      <point x="440.005" y="727"/>
      <point x="391" y="727" type="curve" smooth="yes"/>
      <point x="335.099" y="727"/>
      <point x="305.475" y="772"/>
      <point x="253" y="772" type="curve" smooth="yes"/>
      <point x="219.22" y="772"/>
      <point x="193.998" y="749.647"/>
      <point x="184" y="718" type="curve" name="hr01"/>
      <point x="110" y="762" type="line"/>
      <point x="110" y="781" type="line" smooth="yes"/>
      <point x="110" y="785.15"/>
      <point x="121.85" y="804.966"/>
      <point x="124.5" y="809" type="curve" smooth="yes"/>
      <point x="150.706" y="848.9"/>
      <point x="194.285" y="873"/>
      <point x="242" y="873" type="curve" smooth="yes"/>
      <point x="303.836" y="873"/>
      <point x="363.616" y="823.131"/>
      <point x="379" y="823" type="curve"/>
    </contour>
    <contour>
      <point x="349" y="0" type="line"/>
      <point x="349" y="75" type="line"/>
      <point x="429" y="96" type="line"/>
      <point x="393" y="218" type="line"/>
      <point x="197" y="218" type="line"/>
      <point x="159" y="92" type="line"/>
      <point x="247" y="76" type="line"/>
      <point x="247" y="0" type="line"/>
      <point x="8" y="0" type="line"/>
      <point x="-5" y="78" type="line"/>
      <point x="50" y="96" type="line"/>
      <point x="248" y="691" type="line" name="mh01"/>
      <point x="372" y="691" type="line"/>
      <point x="573" y="96" type="line"/>
      <point x="619" y="78" type="line"/>
      <point x="609" y="0" type="line"/>
    </contour>
    <contour>
      <point x="228" y="323" type="line"/>
      <point x="349" y="323" type="line"/>
      <point x="296" y="549" type="line"/>
    </contour>
  </outline>
</glyph>
<glyph name="Adieresis" format="1">
  <advance width="621"/>
  <unicode hex="00C4"/>
  <outline>
    <contour>
      <point x="349" y="0" type="line" name="hr00"/>
      <point x="349" y="75" type="line"/>
      <point x="429" y="96" type="line"/>
      <point x="393" y="218" type="line"/>
      <point x="197" y="218" type="line"/>
      <point x="159" y="92" type="line"/>
      <point x="247" y="76" type="line"/>
      <point x="247" y="0" type="line"/>
      <point x="8" y="0" type="line"/>
      <point x="-5" y="78" type="line"/>
      <point x="50" y="96" type="line"/>
      <point x="248" y="690" type="line" name="ah01"/>
      <point x="372" y="690" type="line" name="mh01"/>
      <point x="573" y="96" type="line"/>
      <point x="619" y="78" type="line"/>
      <point x="609" y="0" type="line"/>
    </contour>
    <contour>
      <point x="228" y="323" type="line" name="mh02"/>
      <point x="349" y="323" type="line"/>
      <point x="296" y="548" type="line" name="mh03"/>
    </contour>
    <contour>
      <point x="155" y="804" type="curve" smooth="yes"/>
      <point x="155" y="841.995"/>
      <point x="184.629" y="873"/>
      <point x="223" y="873" type="curve" smooth="yes"/>
      <point x="261.83" y="873"/>
      <point x="292" y="842.83"/>
      <point x="292" y="804" type="curve" smooth="yes" name="mh04"/>
      <point x="292" y="765.041"/>
      <point x="261.66" y="736"/>
      <point x="223" y="736" type="curve" smooth="yes" name="mv01"/>
      <point x="184.729" y="736"/>
      <point x="155" y="765.808"/>
    </contour>
    <contour>
      <point x="333" y="804" type="curve" smooth="yes"/>
      <point x="333" y="842.66"/>
      <point x="362.041" y="873"/>
      <point x="401" y="873" type="curve" smooth="yes"/>
      <point x="440.124" y="873"/>
      <point x="468" y="842.443"/>
      <point x="468" y="804" type="curve" smooth="yes"/>
      <point x="468" y="765.381"/>
      <point x="439.923" y="736"/>
      <point x="401" y="736" type="curve" smooth="yes" name="mv02"/>
      <point x="362.209" y="736"/>
      <point x="333" y="765.209"/>
    </contour>
  </outline>
</glyph>
<glyph name="Aring" format="1">
  <advance width="617"/>
  <unicode hex="00C5"/>
  <outline>
    <contour>
      <point x="347" y="0" type="line" name="hr00"/>
      <point x="347" y="75" type="line"/>
      <point x="427" y="96" type="line"/>
      <point x="391" y="218" type="line"/>
      <point x="195" y="218" type="line"/>
      <point x="157" y="92" type="line"/>
      <point x="245" y="76" type="line"/>
      <point x="245" y="0" type="line"/>
      <point x="6" y="0" type="line"/>
      <point x="-7" y="78" type="line"/>
      <point x="48" y="96" type="line"/>
      <point x="234" y="656" type="line"/>
      <point x="208.381" y="675.925"/>
      <point x="195" y="707.96"/>
      <point x="195" y="740" type="curve" smooth="yes"/>
      <point x="195" y="800.074"/>
      <point x="240.997" y="846"/>
      <point x="301" y="846" type="curve" smooth="yes" name="mh01"/>
      <point x="360.164" y="846"/>
      <point x="407" y="799.253"/>
      <point x="407" y="740" type="curve" smooth="yes"/>
      <point x="407" y="712.668"/>
      <point x="397.521" y="685.519"/>
      <point x="378" y="666" type="curve"/>
      <point x="571" y="96" type="line"/>
      <point x="617" y="78" type="line"/>
      <point x="607" y="0" type="line"/>
    </contour>
    <contour>
      <point x="226" y="323" type="line"/>
      <point x="347" y="323" type="line"/>
      <point x="294" y="549" type="line"/>
    </contour>
    <contour>
      <point x="262" y="740" type="curve" smooth="yes"/>
      <point x="262" y="715.372"/>
      <point x="276.484" y="701"/>
      <point x="301" y="701" type="curve" smooth="yes"/>
      <point x="325.089" y="701"/>
      <point x="339" y="716.247"/>
      <point x="339" y="740" type="curve" smooth="yes"/>
      <point x="339" y="763.753"/>
      <point x="325.089" y="779"/>
      <point x="301" y="779" type="curve" smooth="yes"/>
      <point x="276.484" y="779"/>
      <point x="262" y="764.628"/>
    </contour>
  </outline>
</glyph>
<glyph name="Ccedilla" format="1">
  <advance width="589"/>
  <unicode hex="00C7"/>
  <outline>
    <contour>
      <point x="272" y="-82" type="line" name="hr00"/>
      <point x="301" y="1" type="line"/>
      <point x="127.032" y="28.4644"/>
      <point x="30" y="162.372"/>
      <point x="30" y="334" type="curve" smooth="yes" name="mh01"/>
      <point x="30" y="527.047"/>
      <point x="157.845" y="691"/>
      <point x="360" y="691" type="curve" smooth="yes" name="mh02"/>
      <point x="418.278" y="691"/>
      <point x="473.033" y="683.425"/>
      <point x="529" y="667" type="curve"/>
      <point x="549" y="460" type="line"/>
      <point x="468" y="460" type="line"/>
      <point x="450.776" y="497.728"/>
      <point x="434.034" y="547.838"/>
      <point x="412" y="582" type="curve"/>
      <point x="409" y="584" type="line"/>
      <point x="396.074" y="585.838"/>
      <point x="383.033" y="586"/>
      <point x="370" y="586" type="curve" smooth="yes"/>
      <point x="237.963" y="586"/>
      <point x="166" y="468.961"/>
      <point x="166" y="348" type="curve" smooth="yes"/>
      <point x="166" y="222.332"/>
      <point x="232.631" y="101"/>
      <point x="372" y="101" type="curve" smooth="yes" name="mh03"/>
      <point x="426.731" y="101"/>
      <point x="484.888" y="120.886"/>
      <point x="524" y="160" type="curve"/>
      <point x="566" y="71" type="line"/>
      <point x="529.743" y="26.8775"/>
      <point x="457.981" y="4.46667"/>
      <point x="403" y="-2" type="curve" name="mh04"/>
      <point x="391" y="-41" type="line" name="mh05"/>
      <point x="451.717" y="-53.1405"/>
      <point x="495" y="-91.2949"/>
      <point x="495" y="-156" type="curve" smooth="yes"/>
      <point x="495" y="-245.089"/>
      <point x="407.873" y="-286"/>
      <point x="330" y="-286" type="curve" smooth="yes" name="hr01"/>
      <point x="282.527" y="-286"/>
      <point x="246.123" y="-274.882"/>
      <point x="202" y="-259" type="curve"/>
      <point x="252" y="-162" type="line"/>
      <point x="324" y="-210" type="line"/>
      <point x="353.252" y="-209.739"/>
      <point x="387" y="-191.763"/>
      <point x="387" y="-159" type="curve" smooth="yes"/>
      <point x="387" y="-103.912"/>
      <point x="335.299" y="-104.826"/>
      <point x="296" y="-101" type="curve"/>
    </contour>
  </outline>
</glyph>
<glyph name="Ecircumflex" format="1">
  <advance width="555"/>
  <unicode hex="00CA"/>
  <outline>
    <contour>
      <point x="92" y="737" type="line" name="hr00"/>
      <point x="263" y="903" type="line" name="av01"/>
      <point x="300" y="903" type="line"/>
      <point x="472" y="736" type="line"/>
      <point x="465" y="724" type="line"/>
      <point x="379" y="724" type="line"/>
      <point x="281" y="782" type="line"/>
      <point x="184" y="724" type="line"/>
      <point x="99" y="724" type="line"/>
    </contour>
    <contour>
      <point x="497" y="691" type="line" name="mh01"/>
      <point x="516" y="487" type="line" name="hr01"/>
      <point x="438" y="487" type="line"/>
      <point x="397" y="586" type="line" name="hr02"/>
      <point x="235" y="586" type="line"/>
      <point x="235" y="408" type="line"/>
      <point x="387" y="408" type="line"/>
      <point x="387" y="303" type="line"/>
      <point x="235" y="303" type="line"/>
      <point x="235" y="105" type="line"/>
      <point x="404" y="105" type="line"/>
      <point x="441" y="204" type="line"/>
      <point x="520" y="204" type="line"/>
      <point x="499" y="0" type="line"/>
      <point x="53" y="0" type="line"/>
      <point x="39" y="88" type="line"/>
      <point x="104" y="101" type="line"/>
      <point x="104" y="595" type="line"/>
      <point x="41" y="602" type="line"/>
      <point x="41" y="691" type="line"/>
    </contour>
  </outline>
</glyph>
<glyph name="Edieresis" format="1">
  <advance width="555"/>
  <unicode hex="00CB"/>
  <outline>
    <contour>
      <point x="497" y="691" type="line" name="hr00"/>
      <point x="516" y="487" type="line"/>
      <point x="438" y="487" type="line" name="hr03"/>
      <point x="397" y="586" type="line"/>
      <point x="235" y="586" type="line"/>
      <point x="235" y="408" type="line"/>
      <point x="387" y="408" type="line"/>
      <point x="387" y="303" type="line"/>
      <point x="235" y="303" type="line"/>
      <point x="235" y="105" type="line"/>
      <point x="404" y="105" type="line" name="hr02"/>
      <point x="441" y="204" type="line"/>
      <point x="520" y="204" type="line" name="hr01"/>
      <point x="499" y="0" type="line"/>
      <point x="53" y="0" type="line"/>
      <point x="39" y="88" type="line"/>
      <point x="104" y="101" type="line"/>
      <point x="104" y="595" type="line"/>
      <point x="41" y="602" type="line"/>
      <point x="41" y="691" type="line" name="mv01"/>
    </contour>
    <contour>
      <point x="131" y="804" type="curve" smooth="yes"/>
      <point x="131" y="841.995"/>
      <point x="160.629" y="873"/>
      <point x="199" y="873" type="curve" smooth="yes"/>
      <point x="237.83" y="873"/>
      <point x="268" y="842.83"/>
      <point x="268" y="804" type="curve" smooth="yes"/>
      <point x="268" y="765.041"/>
      <point x="237.66" y="736"/>
      <point x="199" y="736" type="curve" smooth="yes"/>
      <point x="160.729" y="736"/>
      <point x="131" y="765.808"/>
    </contour>
    <contour>
      <point x="309" y="804" type="curve" smooth="yes"/>
      <point x="309" y="842.66"/>
      <point x="338.041" y="873"/>
      <point x="377" y="873" type="curve" smooth="yes"/>
      <point x="416.124" y="873"/>
      <point x="444" y="842.443"/>
      <point x="444" y="804" type="curve" smooth="yes"/>
      <point x="444" y="765.381"/>
      <point x="415.923" y="736"/>
      <point x="377" y="736" type="curve" smooth="yes"/>
      <point x="338.209" y="736"/>
      <point x="309" y="765.209"/>
    </contour>
  </outline>
</glyph>
<glyph name="Idieresis" format="1">
  <advance width="348"/>
  <unicode hex="00CF"/>
  <outline>
    <contour>
      <point x="37" y="89" type="line" name="hr00"/>
      <point x="107" y="102" type="line"/>
      <point x="107" y="593" type="line"/>
      <point x="39" y="600" type="line"/>
      <point x="39" y="691" type="line"/>
      <point x="299" y="691" type="line"/>
      <point x="314" y="598" type="line"/>
      <point x="238" y="586" type="line"/>
      <point x="238" y="99" type="line"/>
      <point x="312" y="87" type="line"/>
      <point x="312" y="68" type="line" smooth="yes"/>
      <point x="312" y="45.3287"/>
      <point x="311" y="22.6869"/>
      <point x="311" y="0" type="curve"/>
      <point x="51" y="0" type="line"/>
    </contour>
    <contour>
      <point x="23" y="804" type="curve" smooth="yes"/>
      <point x="23" y="841.995"/>
      <point x="52.6295" y="873"/>
      <point x="91" y="873" type="curve" smooth="yes"/>
      <point x="129.83" y="873"/>
      <point x="160" y="842.83"/>
      <point x="160" y="804" type="curve" smooth="yes" name="hr01"/>
      <point x="160" y="765.041"/>
      <point x="129.66" y="736"/>
      <point x="91" y="736" type="curve" smooth="yes"/>
      <point x="52.7295" y="736"/>
      <point x="23" y="765.808"/>
    </contour>
    <contour>
      <point x="201" y="804" type="curve" smooth="yes"/>
      <point x="201" y="842.66"/>
      <point x="230.041" y="873"/>
      <point x="269" y="873" type="curve" smooth="yes"/>
      <point x="308.124" y="873"/>
      <point x="336" y="842.443"/>
      <point x="336" y="804" type="curve" smooth="yes"/>
      <point x="336" y="765.381"/>
      <point x="307.923" y="736"/>
      <point x="269" y="736" type="curve" smooth="yes"/>
      <point x="230.209" y="736"/>
      <point x="201" y="765.209"/>
    </contour>
  </outline>
</glyph>
<glyph name="Eth" format="1">
  <advance width="639"/>
  <unicode hex="00D0"/>
  <outline>
    <contour>
      <point x="41" y="88" type="line" name="hr00"/>
      <point x="106" y="101" type="line"/>
      <point x="106" y="309" type="line"/>
      <point x="14" y="309" type="line"/>
      <point x="14" y="391" type="line"/>
      <point x="28" y="403" type="line"/>
      <point x="106" y="403" type="line"/>
      <point x="106" y="595" type="line"/>
      <point x="43" y="603" type="line"/>
      <point x="43" y="691" type="line" name="mh01"/>
      <point x="222" y="691" type="line" smooth="yes"/>
      <point x="444.221" y="691"/>
      <point x="608" y="594.68"/>
      <point x="608" y="354" type="curve" smooth="yes"/>
      <point x="608" y="130.438"/>
      <point x="492.513" y="0"/>
      <point x="265" y="0" type="curve" smooth="yes"/>
      <point x="48" y="0" type="line"/>
    </contour>
    <contour>
      <point x="237" y="309" type="line"/>
      <point x="237" y="105" type="line"/>
      <point x="243.358" y="105.004"/>
      <point x="249.642" y="104"/>
      <point x="256" y="104" type="curve" smooth="yes"/>
      <point x="411.741" y="104"/>
      <point x="472" y="207.063"/>
      <point x="472" y="351" type="curve" smooth="yes" name="mh03"/>
      <point x="472" y="506.768"/>
      <point x="393.247" y="586.028"/>
      <point x="237" y="586" type="curve"/>
      <point x="237" y="403" type="line" name="mh05"/>
      <point x="362" y="403" type="line" smooth="yes"/>
      <point x="366.441" y="403"/>
      <point x="369" y="400.441"/>
      <point x="369" y="396" type="curve" smooth="yes"/>
      <point x="369" y="309" type="line"/>
    </contour>
  </outline>
</glyph>
<glyph name="Ntilde" format="1">
  <advance width="727"/>
  <unicode hex="00D1"/>
  <outline>
    <contour>
      <point x="211" y="562" type="line" name="hr00"/>
      <point x="211" y="104" type="line"/>
      <point x="262" y="88" type="line"/>
      <point x="262" y="65" type="line" smooth="yes"/>
      <point x="262" y="43.3264"/>
      <point x="261" y="21.6781"/>
      <point x="261" y="0" type="curve"/>
      <point x="53" y="0" type="line"/>
      <point x="37" y="87" type="line"/>
      <point x="106" y="100" type="line"/>
      <point x="106" y="590" type="line"/>
      <point x="42" y="597" type="line"/>
      <point x="42" y="690" type="line"/>
      <point x="298" y="690" type="line"/>
      <point x="525" y="96" type="line"/>
      <point x="525" y="592" type="line"/>
      <point x="467" y="599" type="line"/>
      <point x="467" y="690" type="line"/>
      <point x="682" y="690" type="line"/>
      <point x="697" y="597" type="line"/>
      <point x="630" y="585" type="line"/>
      <point x="630" y="0" type="line"/>
      <point x="428" y="0" type="line"/>
    </contour>
    <contour>
      <point x="486" y="881" type="line"/>
      <point x="567" y="805" type="line"/>
      <point x="539.439" y="767.417"/>
      <point x="493.005" y="727"/>
      <point x="444" y="727" type="curve" smooth="yes"/>
      <point x="388.099" y="727"/>
      <point x="358.475" y="772"/>
      <point x="306" y="772" type="curve" smooth="yes"/>
      <point x="272.22" y="772"/>
      <point x="246.998" y="749.647"/>
      <point x="237" y="718" type="curve"/>
      <point x="163" y="762" type="line" name="hr01"/>
      <point x="163" y="781" type="line" smooth="yes"/>
      <point x="163" y="785.15"/>
      <point x="174.85" y="804.966"/>
      <point x="177.5" y="809" type="curve" smooth="yes"/>
      <point x="203.706" y="848.9"/>
      <point x="247.285" y="873"/>
      <point x="295" y="873" type="curve" smooth="yes"/>
      <point x="356.836" y="873"/>
      <point x="416.616" y="823.131"/>
      <point x="432" y="823" type="curve"/>
    </contour>
  </outline>
</glyph>
<glyph name="Ograve" format="1">
  <advance width="655"/>
  <unicode hex="00D2"/>
  <outline>
    <contour>
      <point x="328" y="-4" type="curve" smooth="yes" name="hr00"/>
      <point x="123.698" y="-4"/>
      <point x="36" y="160.889"/>
      <point x="36" y="345" type="curve" smooth="yes"/>
      <point x="36" y="529.995"/>
      <point x="123.1" y="693"/>
      <point x="328" y="693" type="curve" smooth="yes" name="mh01"/>
      <point x="532.919" y="693"/>
      <point x="619" y="529.715"/>
      <point x="619" y="345" type="curve" smooth="yes"/>
      <point x="619" y="161.164"/>
      <point x="532.318" y="-4"/>
    </contour>
    <contour>
      <point x="173" y="343" type="curve" smooth="yes"/>
      <point x="173" y="249.148"/>
      <point x="210.068" y="101"/>
      <point x="328" y="101" type="curve" smooth="yes"/>
      <point x="444.905" y="101"/>
      <point x="482" y="250.206"/>
      <point x="482" y="343" type="curve" smooth="yes"/>
      <point x="482" y="435.518"/>
      <point x="445.226" y="588"/>
      <point x="328" y="588" type="curve" smooth="yes"/>
      <point x="209.791" y="588"/>
      <point x="173" y="436.585"/>
    </contour>
    <contour>
      <point x="388" y="724" type="line"/>
      <point x="205" y="868" type="line"/>
      <point x="282" y="959" type="line"/>
      <point x="317" y="942" type="line"/>
      <point x="429" y="765" type="line"/>
    </contour>
  </outline>
</glyph>
<glyph name="Oacute" format="1">
  <advance width="655"/>
  <unicode hex="00D3"/>
  <outline>
    <contour>
      <point x="328" y="-4" type="curve" smooth="yes" name="hr00"/>
      <point x="123.698" y="-4"/>
      <point x="36" y="160.889"/>
      <point x="36" y="345" type="curve" smooth="yes"/>
      <point x="36" y="529.995"/>
      <point x="123.1" y="693"/>
      <point x="328" y="693" type="curve" smooth="yes" name="mv01"/>
      <point x="532.919" y="693"/>
      <point x="619" y="529.715"/>
      <point x="619" y="345" type="curve" smooth="yes"/>
      <point x="619" y="161.164"/>
      <point x="532.318" y="-4"/>
    </contour>
    <contour>
      <point x="173" y="343" type="curve" smooth="yes"/>
      <point x="173" y="249.148"/>
      <point x="210.068" y="101"/>
      <point x="328" y="101" type="curve" smooth="yes"/>
      <point x="444.905" y="101"/>
      <point x="482" y="250.206"/>
      <point x="482" y="343" type="curve" smooth="yes"/>
      <point x="482" y="435.518"/>
      <point x="445.226" y="588"/>
      <point x="328" y="588" type="curve" smooth="yes"/>
      <point x="209.791" y="588"/>
      <point x="173" y="436.585"/>
    </contour>
    <contour>
      <point x="229" y="795" type="line"/>
      <point x="358" y="959" type="line"/>
      <point x="395" y="974" type="line"/>
      <point x="473" y="865" type="line"/>
      <point x="276" y="741" type="line"/>
    </contour>
  </outline>
</glyph>
<glyph name="Ocircumflex" format="1">
  <advance width="655"/>
  <unicode hex="00D4"/>
  <outline>
    <contour>
      <point x="147" y="737" type="line" name="mh01"/>
      <point x="318" y="903" type="line" name="mv01"/>
      <point x="355" y="903" type="line"/>
      <point x="527" y="736" type="line" name="mh02"/>
      <point x="520" y="724" type="line"/>
      <point x="434" y="724" type="line"/>
      <point x="336" y="782" type="line"/>
      <point x="238" y="724" type="line"/>
      <point x="153" y="724" type="line"/>
    </contour>
    <contour>
      <point x="328" y="-4" type="curve" smooth="yes"/>
      <point x="123.698" y="-4"/>
      <point x="36" y="160.889"/>
      <point x="36" y="345" type="curve" smooth="yes"/>
      <point x="36" y="529.995"/>
      <point x="123.1" y="693"/>
      <point x="328" y="693" type="curve" smooth="yes" name="mv02"/>
      <point x="532.919" y="693"/>
      <point x="619" y="529.715"/>
      <point x="619" y="345" type="curve" smooth="yes"/>
      <point x="619" y="161.164"/>
      <point x="532.318" y="-4"/>
    </contour>
    <contour>
      <point x="173" y="343" type="curve" smooth="yes"/>
      <point x="173" y="249.148"/>
      <point x="210.068" y="101"/>
      <point x="328" y="101" type="curve" smooth="yes"/>
      <point x="444.905" y="101"/>
      <point x="482" y="250.206"/>
      <point x="482" y="343" type="curve" smooth="yes"/>
      <point x="482" y="435.518"/>
      <point x="445.226" y="588"/>
      <point x="328" y="588" type="curve" smooth="yes"/>
      <point x="209.791" y="588"/>
      <point x="173" y="436.585"/>
    </contour>
  </outline>
</glyph>
<glyph name="Otilde" format="1">
  <advance width="655"/>
  <unicode hex="00D5"/>
  <outline>
    <contour>
      <point x="443" y="881" type="line" name="hr02"/>
      <point x="524" y="805" type="line"/>
      <point x="496.838" y="766.198"/>
      <point x="450.607" y="727"/>
      <point x="401" y="727" type="curve" smooth="yes"/>
      <point x="345.099" y="727"/>
      <point x="315.475" y="772"/>
      <point x="263" y="772" type="curve" smooth="yes"/>
      <point x="228.372" y="772"/>
      <point x="205.518" y="749.253"/>
      <point x="194" y="718" type="curve" name="hr01"/>
      <point x="121" y="762" type="line"/>
      <point x="121" y="781" type="line" smooth="yes"/>
      <point x="121" y="784.93"/>
      <point x="132.513" y="805.03"/>
      <point x="135" y="809" type="curve" smooth="yes"/>
      <point x="160.144" y="849.13"/>
      <point x="204.965" y="873"/>
      <point x="252" y="873" type="curve" smooth="yes"/>
      <point x="315.015" y="873"/>
      <point x="374.997" y="823.128"/>
      <point x="390" y="823" type="curve"/>
    </contour>
    <contour>
      <point x="328" y="-4" type="curve" smooth="yes" name="ab01"/>
      <point x="123.698" y="-4"/>
      <point x="36" y="160.889"/>
      <point x="36" y="345" type="curve" smooth="yes"/>
      <point x="36" y="529.995"/>
      <point x="123.1" y="693"/>
      <point x="328" y="693" type="curve" smooth="yes" name="ah01"/>
      <point x="532.919" y="693"/>
      <point x="619" y="529.715"/>
      <point x="619" y="345" type="curve" smooth="yes"/>
      <point x="619" y="161.164"/>
      <point x="532.318" y="-4"/>
    </contour>
    <contour>
      <point x="173" y="343" type="curve" smooth="yes"/>
      <point x="173" y="249.148"/>
      <point x="210.068" y="101"/>
      <point x="328" y="101" type="curve" smooth="yes" name="av01"/>
      <point x="444.905" y="101"/>
      <point x="482" y="250.206"/>
      <point x="482" y="343" type="curve" smooth="yes"/>
      <point x="482" y="435.518"/>
      <point x="445.226" y="588"/>
      <point x="328" y="588" type="curve" smooth="yes" name="ah02"/>
      <point x="209.791" y="588"/>
      <point x="173" y="436.585"/>
    </contour>
  </outline>
</glyph>
<glyph name="Odieresis" format="1">
  <advance width="655"/>
  <unicode hex="00D6"/>
  <outline>
    <contour>
      <point x="328" y="-4" type="curve" smooth="yes" name="hr00"/>
      <point x="123.698" y="-4"/>
      <point x="36" y="160.889"/>
      <point x="36" y="345" type="curve" smooth="yes" name="mh01"/>
      <point x="36" y="529.995"/>
      <point x="123.1" y="693"/>
      <point x="328" y="693" type="curve" smooth="yes" name="mv01"/>
      <point x="532.919" y="693"/>
      <point x="619" y="529.715"/>
      <point x="619" y="345" type="curve" smooth="yes" name="mh02"/>
      <point x="619" y="161.164"/>
      <point x="532.318" y="-4"/>
    </contour>
    <contour>
      <point x="173" y="343" type="curve" smooth="yes"/>
      <point x="173" y="249.148"/>
      <point x="210.068" y="101"/>
      <point x="328" y="101" type="curve" smooth="yes"/>
      <point x="444.905" y="101"/>
      <point x="482" y="250.206"/>
      <point x="482" y="343" type="curve" smooth="yes"/>
      <point x="482" y="435.518"/>
      <point x="445.226" y="588"/>
      <point x="328" y="588" type="curve" smooth="yes"/>
      <point x="209.791" y="588"/>
      <point x="173" y="436.585"/>
    </contour>
    <contour>
      <point x="174" y="804" type="curve" smooth="yes"/>
      <point x="174" y="841.995"/>
      <point x="203.629" y="873"/>
      <point x="242" y="873" type="curve" smooth="yes"/>
      <point x="280.83" y="873"/>
      <point x="311" y="842.83"/>
      <point x="311" y="804" type="curve" smooth="yes"/>
      <point x="311" y="765.041"/>
      <point x="280.66" y="736"/>
      <point x="242" y="736" type="curve" smooth="yes"/>
      <point x="203.729" y="736"/>
      <point x="174" y="765.808"/>
    </contour>
    <contour>
      <point x="352" y="804" type="curve" smooth="yes" name="hr01"/>
      <point x="352" y="842.66"/>
      <point x="381.041" y="873"/>
      <point x="420" y="873" type="curve" smooth="yes"/>
      <point x="459.124" y="873"/>
      <point x="487" y="842.443"/>
      <point x="487" y="804" type="curve" smooth="yes" name="mh03"/>
      <point x="487" y="765.381"/>
      <point x="458.923" y="736"/>
      <point x="420" y="736" type="curve" smooth="yes" name="mv02"/>
      <point x="381.209" y="736"/>
      <point x="352" y="765.209"/>
    </contour>
  </outline>
</glyph>
<glyph name="Oslash" format="1">
  <advance width="655"/>
  <unicode hex="00D8"/>
  <outline>
    <contour>
      <point x="328" y="-4" type="curve" smooth="yes" name="hr00"/>
      <point x="296.192" y="-4"/>
      <point x="264.349" y="0.345216"/>
      <point x="234" y="10" type="curve"/>
      <point x="201" y="-63" type="line"/>
      <point x="76" y="-63" type="line"/>
      <point x="72" y="-40" type="line"/>
      <point x="125" y="77" type="line"/>
      <point x="56.9171" y="148.108"/>
      <point x="36" y="249.49"/>
      <point x="36" y="345" type="curve" smooth="yes" name="mh01"/>
      <point x="36" y="529.995"/>
      <point x="123.1" y="693"/>
      <point x="328" y="693" type="curve" smooth="yes" name="ah01"/>
      <point x="353.238" y="693"/>
      <point x="378.531" y="690.289"/>
      <point x="403" y="684" type="curve"/>
      <point x="436" y="757" type="line"/>
      <point x="563" y="757" type="line"/>
      <point x="563" y="733" type="line"/>
      <point x="515" y="627" type="line"/>
      <point x="593.162" y="556.501"/>
      <point x="619" y="446.57"/>
      <point x="619" y="345" type="curve" smooth="yes"/>
      <point x="619" y="160.989"/>
      <point x="532.174" y="-4"/>
    </contour>
    <contour>
      <point x="482" y="343" type="curve" smooth="yes" name="mh02"/>
      <point x="482" y="393.839"/>
      <point x="474.395" y="445.515"/>
      <point x="453" y="492" type="curve" name="mh03"/>
      <point x="280" y="111" type="line"/>
      <point x="294.948" y="103.885"/>
      <point x="311.525" y="101"/>
      <point x="328" y="101" type="curve" smooth="yes"/>
      <point x="444.855" y="101"/>
      <point x="482" y="250.133"/>
    </contour>
    <contour>
      <point x="173" y="343" type="curve" smooth="yes" name="ah03"/>
      <point x="173" y="301.782"/>
      <point x="177.928" y="260.221"/>
      <point x="191" y="221" type="curve"/>
      <point x="357" y="584" type="line"/>
      <point x="347.622" y="586.876"/>
      <point x="337.786" y="588"/>
      <point x="328" y="588" type="curve" smooth="yes" name="ah02"/>
      <point x="209.827" y="588"/>
      <point x="173" y="436.688"/>
    </contour>
  </outline>
</glyph>
<glyph name="Ugrave" format="1">
  <advance width="670"/>
  <unicode hex="00D9"/>
  <outline>
    <contour>
      <point x="219" y="250" type="line" smooth="yes" name="hr00"/>
      <point x="219" y="153.396"/>
      <point x="250.648" y="101"/>
      <point x="353" y="101" type="curve" smooth="yes"/>
      <point x="448.748" y="101"/>
      <point x="479" y="165.318"/>
      <point x="479" y="251" type="curve" smooth="yes"/>
      <point x="479" y="594" type="line"/>
      <point x="415" y="603" type="line"/>
      <point x="415" y="691" type="line"/>
      <point x="643" y="691" type="line"/>
      <point x="643" y="600" type="line" name="hr02"/>
      <point x="584" y="587" type="line" name="mh01"/>
      <point x="584" y="248" type="line" smooth="yes"/>
      <point x="584" y="98.4881"/>
      <point x="509.85" y="-4"/>
      <point x="353" y="-4" type="curve" smooth="yes"/>
      <point x="177.079" y="-4"/>
      <point x="88" y="66.2551"/>
      <point x="88" y="248" type="curve" smooth="yes" name="hr01"/>
      <point x="88" y="593" type="line"/>
      <point x="21" y="602" type="line"/>
      <point x="21" y="691" type="line" name="ah01"/>
      <point x="290" y="691" type="line"/>
      <point x="290" y="603" type="line"/>
      <point x="219" y="592" type="line" name="mh02"/>
    </contour>
    <contour>
      <point x="395" y="724" type="line"/>
      <point x="212" y="868" type="line"/>
      <point x="289" y="959" type="line"/>
      <point x="324" y="942" type="line"/>
      <point x="436" y="765" type="line"/>
    </contour>
  </outline>
</glyph>
<glyph name="Udieresis" format="1">
  <advance width="670"/>
  <unicode hex="00DC"/>
  <outline>
    <contour>
      <point x="219" y="250" type="line" smooth="yes" name="hr00"/>
      <point x="219" y="153.396"/>
      <point x="250.648" y="101"/>
      <point x="353" y="101" type="curve" smooth="yes"/>
      <point x="448.748" y="101"/>
      <point x="479" y="165.318"/>
      <point x="479" y="251" type="curve" smooth="yes"/>
      <point x="479" y="593" type="line" name="mh01"/>
      <point x="415" y="602" type="line"/>
      <point x="415" y="690" type="line"/>
      <point x="643" y="690" type="line"/>
      <point x="643" y="599" type="line"/>
      <point x="584" y="586" type="line"/>
      <point x="584" y="248" type="line" smooth="yes"/>
      <point x="584" y="98.4881"/>
      <point x="509.85" y="-4"/>
      <point x="353" y="-4" type="curve" smooth="yes" name="hr01"/>
      <point x="177.079" y="-4"/>
      <point x="88" y="66.2551"/>
      <point x="88" y="248" type="curve" smooth="yes"/>
      <point x="88" y="592" type="line" name="mh02"/>
      <point x="21" y="601" type="line"/>
      <point x="21" y="690" type="line" name="mh03"/>
      <point x="290" y="690" type="line"/>
      <point x="290" y="602" type="line"/>
      <point x="219" y="591" type="line"/>
    </contour>
    <contour>
      <point x="193" y="804" type="curve" smooth="yes" name="mh04"/>
      <point x="193" y="841.995"/>
      <point x="222.629" y="873"/>
      <point x="261" y="873" type="curve" smooth="yes"/>
      <point x="299.83" y="873"/>
      <point x="330" y="842.83"/>
      <point x="330" y="804" type="curve" smooth="yes" name="hr02"/>
      <point x="330" y="765.041"/>
      <point x="299.66" y="736"/>
      <point x="261" y="736" type="curve" smooth="yes" name="mv01"/>
      <point x="222.729" y="736"/>
      <point x="193" y="765.808"/>
    </contour>
    <contour>
      <point x="371" y="804" type="curve" smooth="yes" name="mh05"/>
      <point x="371" y="842.66"/>
      <point x="400.041" y="873"/>
      <point x="439" y="873" type="curve" smooth="yes"/>
      <point x="478.124" y="873"/>
      <point x="506" y="842.443"/>
      <point x="506" y="804" type="curve" smooth="yes" name="hr03"/>
      <point x="506" y="765.381"/>
      <point x="477.923" y="736"/>
      <point x="439" y="736" type="curve" smooth="yes" name="mv02"/>
      <point x="400.209" y="736"/>
      <point x="371" y="765.209"/>
    </contour>
  </outline>
</glyph>
<glyph name="Yacute" format="1">
  <advance width="583"/>
  <unicode hex="00DD"/>
  <outline>
    <contour>
      <point x="242" y="691" type="line" name="hr00"/>
      <point x="257" y="612" type="line"/>
      <point x="186" y="598" type="line" name="mh01"/>
      <point x="310" y="382" type="line" name="mv01"/>
      <point x="422" y="601" type="line"/>
      <point x="361" y="612" type="line"/>
      <point x="361" y="691" type="line"/>
      <point x="582" y="691" type="line"/>
      <point x="582" y="603" type="line"/>
      <point x="538" y="592" type="line"/>
      <point x="360" y="251" type="line"/>
      <point x="360" y="96" type="line"/>
      <point x="475" y="73" type="line"/>
      <point x="466" y="0" type="line"/>
      <point x="125" y="0" type="line"/>
      <point x="115" y="73" type="line"/>
      <point x="229" y="96" type="line"/>
      <point x="229" y="252" type="line"/>
      <point x="38" y="592" type="line" name="mh02"/>
      <point x="-2" y="602" type="line"/>
      <point x="-2" y="691" type="line" name="mh03"/>
    </contour>
    <contour>
      <point x="232" y="795" type="line"/>
      <point x="361" y="959" type="line"/>
      <point x="398" y="974" type="line"/>
      <point x="476" y="865" type="line"/>
      <point x="279" y="741" type="line"/>
    </contour>
  </outline>
</glyph>
<glyph name="Thorn" format="1">
  <advance width="556"/>
  <unicode hex="00DE"/>
  <outline>
    <contour>
      <point x="40" y="89" type="line" name="hr00"/>
      <point x="108" y="102" type="line"/>
      <point x="108" y="593" type="line"/>
      <point x="40" y="600" type="line"/>
      <point x="40" y="691" type="line"/>
      <point x="301" y="691" type="line"/>
      <point x="315" y="598" type="line"/>
      <point x="240" y="586" type="line"/>
      <point x="240" y="558" type="line"/>
      <point x="252.012" y="558.002"/>
      <point x="263.99" y="559"/>
      <point x="276" y="559" type="curve" smooth="yes"/>
      <point x="410.037" y="559"/>
      <point x="545" y="507.756"/>
      <point x="545" y="352" type="curve" smooth="yes" name="hr01"/>
      <point x="545" y="183.05"/>
      <point x="381.634" y="134.058"/>
      <point x="240" y="147" type="curve"/>
      <point x="240" y="99" type="line"/>
      <point x="354" y="87" type="line"/>
      <point x="354" y="0" type="line"/>
      <point x="40" y="0" type="line"/>
    </contour>
    <contour>
      <point x="409" y="352" type="curve" smooth="yes"/>
      <point x="409" y="444.164"/>
      <point x="310.753" y="451.643"/>
      <point x="240" y="453" type="curve"/>
      <point x="240" y="251" type="line"/>
      <point x="311.833" y="250.996"/>
      <point x="409" y="258.835"/>
    </contour>
  </outline>
</glyph>
<glyph name="germandbls" format="1">
  <advance width="562"/>
  <unicode hex="00DF"/>
  <outline>
    <contour>
      <point x="79" y="83" type="line" name="hr00"/>
      <point x="29" y="72" type="line"/>
      <point x="36" y="0" type="line"/>
      <point x="200" y="0" type="line"/>
      <point x="200" y="532" type="line" smooth="yes"/>
      <point x="200" y="586.805"/>
      <point x="217.789" y="640"/>
      <point x="282" y="640" type="curve" smooth="yes"/>
      <point x="327.93" y="640"/>
      <point x="357" y="601.682"/>
      <point x="357" y="558" type="curve" smooth="yes"/>
      <point x="357" y="471.145"/>
      <point x="266" y="464.836"/>
      <point x="266" y="377" type="curve" smooth="yes" name="hr01"/>
      <point x="266" y="271.928"/>
      <point x="421" y="259.417"/>
      <point x="421" y="159" type="curve" smooth="yes"/>
      <point x="421" y="117.545"/>
      <point x="385.238" y="90.5328"/>
      <point x="346" y="90" type="curve"/>
      <point x="290" y="141" type="line"/>
      <point x="239" y="20" type="line"/>
      <point x="280.88" y="5.49629"/>
      <point x="316.831" y="-4"/>
      <point x="362" y="-4" type="curve" smooth="yes"/>
      <point x="462.27" y="-4"/>
      <point x="547" y="55.4979"/>
      <point x="547" y="162" type="curve" smooth="yes"/>
      <point x="547" y="303.34"/>
      <point x="382" y="334.369"/>
      <point x="382" y="384" type="curve" smooth="yes"/>
      <point x="382" y="415.211"/>
      <point x="480" y="440.311"/>
      <point x="480" y="560" type="curve" smooth="yes" name="hr02"/>
      <point x="480" y="685.763"/>
      <point x="395.919" y="735"/>
      <point x="280" y="735" type="curve" smooth="yes"/>
      <point x="154.234" y="735"/>
      <point x="79" y="655.722"/>
      <point x="79" y="531" type="curve" smooth="yes"/>
    </contour>
  </outline>
</glyph>
<glyph name="agrave" format="1">
  <advance width="463"/>
  <unicode hex="00E0"/>
  <outline>
    <contour>
      <point x="223" y="491" type="curve" smooth="yes" name="av01"/>
      <point x="145.415" y="491"/>
      <point x="60.9124" y="448.187"/>
      <point x="30" y="374" type="curve"/>
      <point x="154" y="320" type="line"/>
      <point x="180" y="394" type="line"/>
      <point x="188.683" y="397.418"/>
      <point x="199.791" y="397"/>
      <point x="209" y="397" type="curve" smooth="yes"/>
      <point x="226.832" y="397"/>
      <point x="274" y="393.082"/>
      <point x="274" y="367" type="curve" smooth="yes"/>
      <point x="274" y="288" type="line"/>
      <point x="176.44" y="285.62"/>
      <point x="29" y="251.805"/>
      <point x="29" y="129" type="curve" smooth="yes"/>
      <point x="29" y="42.6437"/>
      <point x="92.103" y="-4"/>
      <point x="174" y="-4" type="curve" smooth="yes"/>
      <point x="216.647" y="-4"/>
      <point x="255.98" y="13.9822"/>
      <point x="286" y="44" type="curve"/>
      <point x="302.335" y="11.3139"/>
      <point x="329.993" y="-4"/>
      <point x="366" y="-4" type="curve" smooth="yes"/>
      <point x="397.666" y="-4"/>
      <point x="422.242" y="8.72205"/>
      <point x="446" y="29" type="curve"/>
      <point x="428" y="85" type="line"/>
      <point x="422.928" y="84.5207"/>
      <point x="418.144" y="83"/>
      <point x="413" y="83" type="curve" smooth="yes"/>
      <point x="398.422" y="83"/>
      <point x="395" y="92.2641"/>
      <point x="395" y="105" type="curve" smooth="yes"/>
      <point x="395" y="330" type="line" smooth="yes" name="hr00"/>
      <point x="395" y="436.642"/>
      <point x="325.935" y="491"/>
    </contour>
    <contour>
      <point x="198" y="92" type="curve" smooth="yes"/>
      <point x="170.897" y="92"/>
      <point x="153" y="110.968"/>
      <point x="153" y="138" type="curve" smooth="yes"/>
      <point x="153" y="192.779"/>
      <point x="233.58" y="201.872"/>
      <point x="274" y="204" type="curve"/>
      <point x="274" y="139" type="line"/>
      <point x="260.443" y="110.206"/>
      <point x="229.331" y="92"/>
    </contour>
    <contour>
      <point x="282" y="509" type="line" name="mh01"/>
      <point x="89" y="630" type="line"/>
      <point x="166" y="736" type="line"/>
      <point x="202" y="722" type="line"/>
      <point x="328" y="561" type="line"/>
    </contour>
  </outline>
</glyph>
<glyph name="acircumflex" format="1">
  <advance width="463"/>
  <unicode hex="00E2"/>
  <outline>
    <contour>
      <point x="79" y="541" type="line" name="mh01"/>
      <point x="213" y="700" type="line" name="mh02"/>
      <point x="245" y="700" type="line" name="mv01"/>
      <point x="379" y="540" type="line" name="mh03"/>
      <point x="373" y="529" type="line"/>
      <point x="295" y="529" type="line" name="mv02"/>
      <point x="228" y="581" type="line"/>
      <point x="161" y="529" type="line"/>
      <point x="84" y="529" type="line"/>
    </contour>
    <contour>
      <point x="428" y="85" type="curve"/>
      <point x="446" y="29" type="line" name="hr01"/>
      <point x="422.242" y="8.72205"/>
      <point x="397.666" y="-4"/>
      <point x="366" y="-4" type="curve" smooth="yes"/>
      <point x="329.993" y="-4"/>
      <point x="302.335" y="11.3139"/>
      <point x="286" y="44" type="curve"/>
      <point x="255.98" y="13.9822"/>
      <point x="216.647" y="-4"/>
      <point x="174" y="-4" type="curve" smooth="yes"/>
      <point x="92.103" y="-4"/>
      <point x="29" y="42.6437"/>
      <point x="29" y="129" type="curve" smooth="yes"/>
      <point x="29" y="251.805"/>
      <point x="176.44" y="285.62"/>
      <point x="274" y="288" type="curve"/>
      <point x="274" y="367" type="line" smooth="yes"/>
      <point x="274" y="393.082"/>
      <point x="226.832" y="397"/>
      <point x="209" y="397" type="curve" smooth="yes"/>
      <point x="199.791" y="397"/>
      <point x="188.683" y="397.418"/>
      <point x="180" y="394" type="curve"/>
      <point x="154" y="320" type="line"/>
      <point x="30" y="374" type="line"/>
      <point x="60.9124" y="448.187"/>
      <point x="145.415" y="491"/>
      <point x="223" y="491" type="curve" smooth="yes" name="mv03"/>
      <point x="325.935" y="491"/>
      <point x="395" y="436.642"/>
      <point x="395" y="330" type="curve" smooth="yes"/>
      <point x="395" y="105" type="line" smooth="yes"/>
      <point x="395" y="78.9747"/>
      <point x="409.055" y="83.2096"/>
    </contour>
    <contour>
      <point x="198" y="92" type="curve" smooth="yes"/>
      <point x="229.331" y="92"/>
      <point x="260.443" y="110.206"/>
      <point x="274" y="139" type="curve"/>
      <point x="274" y="204" type="line"/>
      <point x="233.58" y="201.872"/>
      <point x="153" y="192.779"/>
      <point x="153" y="138" type="curve" smooth="yes"/>
      <point x="153" y="110.968"/>
      <point x="170.897" y="92"/>
    </contour>
  </outline>
</glyph>
<glyph name="atilde" format="1">
  <advance width="463"/>
  <unicode hex="00E3"/>
  <outline>
    <contour>
      <point x="314" y="697" type="line" name="hr00"/>
      <point x="388" y="627" type="line"/>
      <point x="366.065" y="595.318"/>
      <point x="328.657" y="554"/>
      <point x="287" y="554" type="curve" smooth="yes" name="mh01"/>
      <point x="240.316" y="554"/>
      <point x="210.344" y="595"/>
      <point x="169" y="595" type="curve" smooth="yes" name="mh02"/>
      <point x="138.717" y="595"/>
      <point x="117.364" y="575.432"/>
      <point x="109" y="547" type="curve"/>
      <point x="45" y="589" type="line" name="mv01"/>
      <point x="46.481" y="647.416"/>
      <point x="109.067" y="690"/>
      <point x="164" y="690" type="curve" smooth="yes" name="mv02"/>
      <point x="219.924" y="690"/>
      <point x="253.952" y="650.131"/>
      <point x="278" y="646" type="curve" name="mh03"/>
    </contour>
    <contour>
      <point x="428" y="85" type="curve"/>
      <point x="446" y="29" type="line"/>
      <point x="422.242" y="8.72205"/>
      <point x="397.666" y="-4"/>
      <point x="366" y="-4" type="curve" smooth="yes"/>
      <point x="329.993" y="-4"/>
      <point x="302.335" y="11.3139"/>
      <point x="286" y="44" type="curve" name="mh04"/>
      <point x="255.98" y="13.9822"/>
      <point x="216.647" y="-4"/>
      <point x="174" y="-4" type="curve" smooth="yes"/>
      <point x="92.103" y="-4"/>
      <point x="29" y="42.6437"/>
      <point x="29" y="129" type="curve" smooth="yes" name="mh06"/>
      <point x="29" y="251.805"/>
      <point x="176.44" y="285.62"/>
      <point x="274" y="288" type="curve"/>
      <point x="274" y="367" type="line" smooth="yes"/>
      <point x="274" y="393.082"/>
      <point x="226.832" y="397"/>
      <point x="209" y="397" type="curve" smooth="yes"/>
      <point x="199.791" y="397"/>
      <point x="188.683" y="397.418"/>
      <point x="180" y="394" type="curve"/>
      <point x="154" y="320" type="line"/>
      <point x="30" y="374" type="line"/>
      <point x="60.9124" y="448.187"/>
      <point x="145.415" y="491"/>
      <point x="223" y="491" type="curve" smooth="yes" name="mv06"/>
      <point x="325.935" y="491"/>
      <point x="395" y="436.642"/>
      <point x="395" y="330" type="curve" smooth="yes" name="mh08"/>
      <point x="395" y="105" type="line" smooth="yes"/>
      <point x="395" y="78.9747"/>
      <point x="409.055" y="83.2096"/>
    </contour>
    <contour>
      <point x="198" y="92" type="curve" smooth="yes"/>
      <point x="229.331" y="92"/>
      <point x="260.443" y="110.206"/>
      <point x="274" y="139" type="curve"/>
      <point x="274" y="204" type="line" name="hr01"/>
      <point x="233.58" y="201.872"/>
      <point x="153" y="192.779"/>
      <point x="153" y="138" type="curve" smooth="yes"/>
      <point x="153" y="110.968"/>
      <point x="170.897" y="92"/>
    </contour>
  </outline>
</glyph>
<glyph name="adieresis" format="1">
  <advance width="463"/>
  <unicode hex="00E4"/>
  <outline>
    <contour>
      <point x="70" y="634" type="curve" smooth="yes" name="mh01"/>
      <point x="70" y="668.818"/>
      <point x="97.182" y="696"/>
      <point x="132" y="696" type="curve" smooth="yes" name="fv01"/>
      <point x="166.818" y="696"/>
      <point x="194" y="668.818"/>
      <point x="194" y="634" type="curve" smooth="yes" name="mh02"/>
      <point x="194" y="599.182"/>
      <point x="166.818" y="572"/>
      <point x="132" y="572" type="curve" smooth="yes" name="mv01"/>
      <point x="97.182" y="572"/>
      <point x="70" y="599.182"/>
    </contour>
    <contour>
      <point x="231" y="634" type="curve" smooth="yes" name="mh03"/>
      <point x="231" y="668.818"/>
      <point x="258.182" y="696"/>
      <point x="293" y="696" type="curve" smooth="yes"/>
      <point x="327.818" y="696"/>
      <point x="355" y="668.818"/>
      <point x="355" y="634" type="curve" smooth="yes"/>
      <point x="355" y="599.182"/>
      <point x="327.818" y="572"/>
      <point x="293" y="572" type="curve" smooth="yes" name="mv02"/>
      <point x="258.182" y="572"/>
      <point x="231" y="599.182"/>
    </contour>
    <contour>
      <point x="428" y="85" type="curve"/>
      <point x="446" y="29" type="line"/>
      <point x="422.242" y="8.72205"/>
      <point x="397.666" y="-4"/>
      <point x="366" y="-4" type="curve" smooth="yes"/>
      <point x="329.993" y="-4"/>
      <point x="302.335" y="11.3139"/>
      <point x="286" y="44" type="curve"/>
      <point x="255.98" y="13.9822"/>
      <point x="216.647" y="-4"/>
      <point x="174" y="-4" type="curve" smooth="yes"/>
      <point x="92.103" y="-4"/>
      <point x="29" y="42.6437"/>
      <point x="29" y="129" type="curve" smooth="yes" name="mh05"/>
      <point x="29" y="251.805"/>
      <point x="176.44" y="285.62"/>
      <point x="274" y="288" type="curve"/>
      <point x="274" y="367" type="line" smooth="yes"/>
      <point x="274" y="393.082"/>
      <point x="226.832" y="397"/>
      <point x="209" y="397" type="curve" smooth="yes"/>
      <point x="199.791" y="397"/>
      <point x="188.683" y="397.418"/>
      <point x="180" y="394" type="curve"/>
      <point x="154" y="320" type="line"/>
      <point x="30" y="374" type="line" name="hr01"/>
      <point x="60.9124" y="448.187"/>
      <point x="145.415" y="491"/>
      <point x="223" y="491" type="curve" smooth="yes" name="mv03"/>
      <point x="325.935" y="491"/>
      <point x="395" y="436.642"/>
      <point x="395" y="330" type="curve" smooth="yes" name="mh06"/>
      <point x="395" y="105" type="line" smooth="yes" name="mh04"/>
      <point x="395" y="78.9747"/>
      <point x="409.055" y="83.2096"/>
    </contour>
    <contour>
      <point x="198" y="92" type="curve" smooth="yes"/>
      <point x="229.331" y="92"/>
      <point x="260.443" y="110.206"/>
      <point x="274" y="139" type="curve"/>
      <point x="274" y="204" type="line"/>
      <point x="233.58" y="201.872"/>
      <point x="153" y="192.779"/>
      <point x="153" y="138" type="curve" smooth="yes"/>
      <point x="153" y="110.968"/>
      <point x="170.897" y="92"/>
    </contour>
  </outline>
</glyph>
<glyph name="aring" format="1">
  <advance width="463"/>
  <unicode hex="00E5"/>
  <outline>
    <contour>
      <point x="118" y="631" type="curve" smooth="yes" name="hr00"/>
      <point x="118" y="691.071"/>
      <point x="163.999" y="737"/>
      <point x="224" y="737" type="curve" smooth="yes" name="mv01"/>
      <point x="283.83" y="737"/>
      <point x="330" y="690.83"/>
      <point x="330" y="631" type="curve" smooth="yes"/>
      <point x="330" y="570.999"/>
      <point x="284.071" y="525"/>
      <point x="224" y="525" type="curve" smooth="yes"/>
      <point x="163.854" y="525"/>
      <point x="118" y="570.854"/>
    </contour>
    <contour>
      <point x="181" y="631" type="curve" smooth="yes"/>
      <point x="181" y="604.408"/>
      <point x="197.408" y="588"/>
      <point x="224" y="588" type="curve" smooth="yes" name="hr01"/>
      <point x="250.592" y="588"/>
      <point x="267" y="604.408"/>
      <point x="267" y="631" type="curve" smooth="yes"/>
      <point x="267" y="657.592"/>
      <point x="250.592" y="674"/>
      <point x="224" y="674" type="curve" smooth="yes"/>
      <point x="197.408" y="674"/>
      <point x="181" y="657.592"/>
    </contour>
    <contour>
      <point x="428" y="85" type="curve"/>
      <point x="446" y="29" type="line"/>
      <point x="422.242" y="8.72205"/>
      <point x="397.666" y="-4"/>
      <point x="366" y="-4" type="curve" smooth="yes"/>
      <point x="329.993" y="-4"/>
      <point x="302.335" y="11.3139"/>
      <point x="286" y="44" type="curve"/>
      <point x="255.98" y="13.9822"/>
      <point x="216.647" y="-4"/>
      <point x="174" y="-4" type="curve" smooth="yes"/>
      <point x="92.103" y="-4"/>
      <point x="29" y="42.6437"/>
      <point x="29" y="129" type="curve" smooth="yes"/>
      <point x="29" y="251.805"/>
      <point x="176.44" y="285.62"/>
      <point x="274" y="288" type="curve"/>
      <point x="274" y="367" type="line" smooth="yes"/>
      <point x="274" y="393.082"/>
      <point x="226.832" y="397"/>
      <point x="209" y="397" type="curve" smooth="yes"/>
      <point x="199.791" y="397"/>
      <point x="188.683" y="397.418"/>
      <point x="180" y="394" type="curve"/>
      <point x="154" y="320" type="line"/>
      <point x="30" y="374" type="line" name="hr02"/>
      <point x="60.9124" y="448.187"/>
      <point x="145.415" y="491"/>
      <point x="223" y="491" type="curve" smooth="yes" name="mv02"/>
      <point x="325.935" y="491"/>
      <point x="395" y="436.642"/>
      <point x="395" y="330" type="curve" smooth="yes"/>
      <point x="395" y="105" type="line" smooth="yes"/>
      <point x="395" y="78.9747"/>
      <point x="409.055" y="83.2096"/>
    </contour>
    <contour>
      <point x="198" y="92" type="curve" smooth="yes"/>
      <point x="229.331" y="92"/>
      <point x="260.443" y="110.206"/>
      <point x="274" y="139" type="curve"/>
      <point x="274" y="204" type="line"/>
      <point x="233.58" y="201.872"/>
      <point x="153" y="192.779"/>
      <point x="153" y="138" type="curve" smooth="yes"/>
      <point x="153" y="110.968"/>
      <point x="170.897" y="92"/>
    </contour>
  </outline>
</glyph>
<glyph name="ae" format="1">
  <advance width="698"/>
  <unicode hex="00E6"/>
  <outline>
    <contour>
      <point x="499" y="491" type="curve" smooth="yes" name="hr00"/>
      <point x="447.624" y="491"/>
      <point x="395.845" y="475.012"/>
      <point x="356" y="442" type="curve"/>
      <point x="322.06" y="477.925"/>
      <point x="271.018" y="491"/>
      <point x="223" y="491" type="curve" smooth="yes"/>
      <point x="143.55" y="491"/>
      <point x="63.1075" y="448.41"/>
      <point x="30" y="374" type="curve"/>
      <point x="154" y="320" type="line"/>
      <point x="180" y="394" type="line"/>
      <point x="189.269" y="397.352"/>
      <point x="199.314" y="397"/>
      <point x="209" y="397" type="curve" smooth="yes"/>
      <point x="225.721" y="397"/>
      <point x="274" y="392.252"/>
      <point x="274" y="367" type="curve" smooth="yes"/>
      <point x="274" y="288" type="line"/>
      <point x="176.885" y="285.344"/>
      <point x="29" y="251.557"/>
      <point x="29" y="129" type="curve" smooth="yes"/>
      <point x="29" y="43.594"/>
      <point x="92.4156" y="-4"/>
      <point x="174" y="-4" type="curve" smooth="yes"/>
      <point x="232.851" y="-4"/>
      <point x="289.542" y="29.1437"/>
      <point x="325" y="75" type="curve"/>
      <point x="368.141" y="21.0993"/>
      <point x="435.208" y="-4"/>
      <point x="503" y="-4" type="curve" smooth="yes"/>
      <point x="551.537" y="-4"/>
      <point x="633.388" y="16.3208"/>
      <point x="666" y="56" type="curve"/>
      <point x="643" y="143" type="line"/>
      <point x="612.426" y="113.894"/>
      <point x="559.198" y="91"/>
      <point x="517" y="91" type="curve" smooth="yes"/>
      <point x="449.472" y="91"/>
      <point x="410.529" y="133.303"/>
      <point x="402" y="198" type="curve"/>
      <point x="418.971" y="196.889"/>
      <point x="436.002" y="197"/>
      <point x="453" y="197" type="curve" smooth="yes"/>
      <point x="558.661" y="197"/>
      <point x="667" y="228.292"/>
      <point x="667" y="354" type="curve" smooth="yes"/>
      <point x="667" y="441.328"/>
      <point x="577.286" y="491"/>
    </contour>
    <contour>
      <point x="403" y="282" type="curve"/>
      <point x="407.086" y="332.479"/>
      <point x="443.831" y="397"/>
      <point x="501" y="397" type="curve" smooth="yes"/>
      <point x="529.633" y="397"/>
      <point x="546" y="377.983"/>
      <point x="546" y="350" type="curve" smooth="yes"/>
      <point x="546" y="293.856"/>
      <point x="480.11" y="281"/>
      <point x="436" y="281" type="curve" smooth="yes"/>
      <point x="425.026" y="281"/>
      <point x="413.921" y="280.736"/>
    </contour>
    <contour>
      <point x="198" y="92" type="curve" smooth="yes"/>
      <point x="170.709" y="92"/>
      <point x="153" y="111.139"/>
      <point x="153" y="138" type="curve" smooth="yes"/>
      <point x="153" y="193.282"/>
      <point x="233.155" y="202.39"/>
      <point x="274" y="204" type="curve"/>
      <point x="274" y="140" type="line"/>
      <point x="262.082" y="111.081"/>
      <point x="228.526" y="92"/>
    </contour>
  </outline>
</glyph>
<glyph name="ccedilla" format="1">
  <advance width="431"/>
  <unicode hex="00E7"/>
  <outline>
    <contour>
      <point x="409" y="52" type="curve" name="hr00"/>
      <point x="374.818" y="17.8191"/>
      <point x="326.21" y="1.71911"/>
      <point x="279" y="-3" type="curve"/>
      <point x="267" y="-38" type="line"/>
      <point x="313.39" y="-48.5917"/>
      <point x="343" y="-75.3962"/>
      <point x="343" y="-125" type="curve" smooth="yes"/>
      <point x="343" y="-195.306"/>
      <point x="275.779" y="-221"/>
      <point x="216" y="-221" type="curve" smooth="yes"/>
      <point x="186.453" y="-221"/>
      <point x="152.261" y="-214.473"/>
      <point x="125" y="-203" type="curve"/>
      <point x="159" y="-129" type="line"/>
      <point x="214" y="-169" type="line"/>
      <point x="239.115" y="-167.307"/>
      <point x="266" y="-156.27"/>
      <point x="266" y="-127" type="curve" smooth="yes"/>
      <point x="266" y="-86.5454"/>
      <point x="229.549" y="-77.9818"/>
      <point x="196" y="-78" type="curve"/>
      <point x="184" y="-62" type="line"/>
      <point x="205" y="0" type="line"/>
      <point x="88.0875" y="24.8006"/>
      <point x="31" y="118.385"/>
      <point x="31" y="233" type="curve" smooth="yes"/>
      <point x="31" y="372.332"/>
      <point x="95.0542" y="491"/>
      <point x="249" y="491" type="curve" smooth="yes" name="mv01"/>
      <point x="319.951" y="491"/>
      <point x="378.659" y="463.754"/>
      <point x="416" y="402" type="curve"/>
      <point x="295" y="337" type="line"/>
      <point x="252" y="397" type="line"/>
      <point x="172.106" y="397.028"/>
      <point x="155" y="299.836"/>
      <point x="155" y="238" type="curve" smooth="yes"/>
      <point x="155" y="163.441"/>
      <point x="185.777" y="91"/>
      <point x="271" y="91" type="curve" smooth="yes"/>
      <point x="316.789" y="91"/>
      <point x="349.143" y="110.776"/>
      <point x="383" y="139" type="curve"/>
      <point x="391.233" y="110.283"/>
      <point x="399.634" y="80.3039"/>
    </contour>
  </outline>
</glyph>
<glyph name="eacute" format="1">
  <advance width="454"/>
  <unicode hex="00E9"/>
  <outline>
    <contour>
      <point x="253" y="491" type="curve" smooth="yes" name="hr00"/>
      <point x="336.404" y="491"/>
      <point x="424" y="448.064"/>
      <point x="424" y="354" type="curve" smooth="yes"/>
      <point x="424" y="213.601"/>
      <point x="265.508" y="188.083"/>
      <point x="156" y="198" type="curve"/>
      <point x="165.152" y="127.758"/>
      <point x="205.942" y="91"/>
      <point x="277" y="91" type="curve" smooth="yes"/>
      <point x="327.653" y="91"/>
      <point x="360.632" y="108.669"/>
      <point x="397" y="143" type="curve"/>
      <point x="420" y="56" type="line"/>
      <point x="387.551" y="14.5212"/>
      <point x="307.182" y="-4"/>
      <point x="257" y="-4" type="curve" smooth="yes"/>
      <point x="115.743" y="-4"/>
      <point x="30" y="103.592"/>
      <point x="30" y="239" type="curve" smooth="yes"/>
      <point x="30" y="373.43"/>
      <point x="108.366" y="491"/>
    </contour>
    <contour>
      <point x="135" y="561" type="line"/>
      <point x="261" y="722" type="line"/>
      <point x="297" y="736" type="line"/>
      <point x="374" y="630" type="line"/>
      <point x="181" y="509" type="line"/>
    </contour>
    <contour>
      <point x="157" y="282" type="curve"/>
      <point x="161.909" y="281.039"/>
      <point x="167.018" y="281"/>
      <point x="172" y="281" type="curve" smooth="yes"/>
      <point x="190" y="281" type="line" smooth="yes"/>
      <point x="233.987" y="281"/>
      <point x="301" y="294.08"/>
      <point x="301" y="350" type="curve" smooth="yes"/>
      <point x="301" y="378.715"/>
      <point x="283.839" y="396"/>
      <point x="255" y="396" type="curve" smooth="yes"/>
      <point x="197.28" y="396"/>
      <point x="161.43" y="332.955"/>
    </contour>
  </outline>
</glyph>
<glyph name="edieresis" format="1">
  <advance width="454"/>
  <unicode hex="00EB"/>
  <outline>
    <contour>
      <point x="253" y="491" type="curve" smooth="yes" name="hr00"/>
      <point x="336.404" y="491"/>
      <point x="424" y="448.064"/>
      <point x="424" y="354" type="curve" smooth="yes"/>
      <point x="424" y="213.601"/>
      <point x="265.508" y="188.083"/>
      <point x="156" y="198" type="curve"/>
      <point x="165.152" y="127.758"/>
      <point x="205.942" y="91"/>
      <point x="277" y="91" type="curve" smooth="yes"/>
      <point x="327.653" y="91"/>
      <point x="360.632" y="108.669"/>
      <point x="397" y="143" type="curve"/>
      <point x="420" y="56" type="line"/>
      <point x="387.551" y="14.5212"/>
      <point x="307.182" y="-4"/>
      <point x="257" y="-4" type="curve" smooth="yes"/>
      <point x="115.743" y="-4"/>
      <point x="30" y="103.592"/>
      <point x="30" y="239" type="curve" smooth="yes"/>
      <point x="30" y="373.43"/>
      <point x="108.366" y="491"/>
    </contour>
    <contour>
      <point x="263" y="634" type="curve" smooth="yes"/>
      <point x="263" y="668.818"/>
      <point x="290.182" y="696"/>
      <point x="325" y="696" type="curve" smooth="yes"/>
      <point x="359.818" y="696"/>
      <point x="387" y="668.818"/>
      <point x="387" y="634" type="curve" smooth="yes"/>
      <point x="387" y="599.182"/>
      <point x="359.818" y="572"/>
      <point x="325" y="572" type="curve" smooth="yes"/>
      <point x="290.182" y="572"/>
      <point x="263" y="599.182"/>
    </contour>
    <contour>
      <point x="102" y="634" type="curve" smooth="yes"/>
      <point x="102" y="668.818"/>
      <point x="129.182" y="696"/>
      <point x="164" y="696" type="curve" smooth="yes"/>
      <point x="198.818" y="696"/>
      <point x="226" y="668.818"/>
      <point x="226" y="634" type="curve" smooth="yes"/>
      <point x="226" y="599.182"/>
      <point x="198.818" y="572"/>
      <point x="164" y="572" type="curve" smooth="yes"/>
      <point x="129.182" y="572"/>
      <point x="102" y="599.182"/>
    </contour>
    <contour>
      <point x="157" y="282" type="curve"/>
      <point x="161.909" y="281.039"/>
      <point x="167.018" y="281"/>
      <point x="172" y="281" type="curve" smooth="yes"/>
      <point x="190" y="281" type="line" smooth="yes"/>
      <point x="233.987" y="281"/>
      <point x="301" y="294.08"/>
      <point x="301" y="350" type="curve" smooth="yes"/>
      <point x="301" y="378.715"/>
      <point x="283.839" y="396"/>
      <point x="255" y="396" type="curve" smooth="yes"/>
      <point x="197.28" y="396"/>
      <point x="161.43" y="332.955"/>
    </contour>
  </outline>
</glyph>
<glyph name="icircumflex" format="1">
  <advance width="288"/>
  <unicode hex="00EE"/>
  <outline>
    <contour>
      <point x="-4" y="541" type="line" name="hr00"/>
      <point x="129" y="700" type="line" name="mv01"/>
      <point x="162" y="700" type="line"/>
      <point x="296" y="540" type="line"/>
      <point x="290" y="529" type="line"/>
      <point x="212" y="529" type="line"/>
      <point x="145" y="581" type="line"/>
      <point x="78" y="529" type="line"/>
      <point x="1" y="529" type="line"/>
    </contour>
    <contour>
      <point x="209" y="456" type="line" name="mh01"/>
      <point x="209" y="75" type="line"/>
      <point x="264" y="64" type="line"/>
      <point x="264" y="0" type="line"/>
      <point x="43" y="0" type="line"/>
      <point x="32" y="64" type="line"/>
      <point x="88" y="77" type="line"/>
      <point x="88" y="398" type="line"/>
      <point x="37" y="398" type="line"/>
      <point x="26" y="466" type="line"/>
      <point x="75.5836" y="473.632"/>
      <point x="125.24" y="486.44"/>
      <point x="175" y="492" type="curve"/>
    </contour>
  </outline>
</glyph>
<glyph name="eth" format="1">
  <advance width="545"/>
  <unicode hex="00F0"/>
  <outline>
    <contour>
      <point x="185" y="736" type="line" name="hr00"/>
      <point x="230.109" y="718.886"/>
      <point x="273.768" y="697.2"/>
      <point x="313" y="669" type="curve"/>
      <point x="396" y="735" type="line" name="mh01"/>
      <point x="462" y="633" type="line" name="mh02"/>
      <point x="399" y="595" type="line"/>
      <point x="468.663" y="519.532"/>
      <point x="510" y="429.567"/>
      <point x="510" y="326" type="curve" smooth="yes"/>
      <point x="510" y="161.762"/>
      <point x="443.191" y="-4"/>
      <point x="254" y="-4" type="curve" smooth="yes"/>
      <point x="126.611" y="-4"/>
      <point x="29" y="89.5279"/>
      <point x="29" y="218" type="curve" smooth="yes" name="mh03"/>
      <point x="29" y="343.088"/>
      <point x="100.736" y="455"/>
      <point x="236" y="455" type="curve" smooth="yes"/>
      <point x="284.655" y="455"/>
      <point x="332.879" y="442.293"/>
      <point x="369" y="408" type="curve"/>
      <point x="352.174" y="454.602"/>
      <point x="321.113" y="494.693"/>
      <point x="283" y="526" type="curve" name="mv01"/>
      <point x="170" y="459" type="line"/>
      <point x="133" y="526" type="line" name="mh04"/>
      <point x="203" y="582" type="line"/>
      <point x="180.348" y="594.461"/>
      <point x="156.743" y="604.822"/>
      <point x="133" y="615" type="curve"/>
    </contour>
    <contour>
      <point x="263" y="101" type="curve" smooth="yes"/>
      <point x="343.766" y="101"/>
      <point x="381" y="182.186"/>
      <point x="381" y="254" type="curve" smooth="yes"/>
      <point x="381" y="311.673"/>
      <point x="320.367" y="356"/>
      <point x="267" y="356" type="curve" smooth="yes"/>
      <point x="187.931" y="356"/>
      <point x="155" y="297.468"/>
      <point x="155" y="225" type="curve" smooth="yes"/>
      <point x="155" y="164.657"/>
      <point x="198.011" y="101"/>
    </contour>
  </outline>
</glyph>
<glyph name="ntilde" format="1">
  <advance width="555"/>
  <unicode hex="00F1"/>
  <outline>
    <contour>
      <point x="392" y="698" type="line" name="hr02"/>
      <point x="465" y="628" type="line"/>
      <point x="442.672" y="595.749"/>
      <point x="407.764" y="555"/>
      <point x="365" y="555" type="curve" smooth="yes"/>
      <point x="318.903" y="555"/>
      <point x="286.093" y="596"/>
      <point x="247" y="596" type="curve" smooth="yes"/>
      <point x="216.139" y="596"/>
      <point x="194.597" y="577.221"/>
      <point x="186" y="548" type="curve"/>
      <point x="122" y="590" type="line"/>
      <point x="123.497" y="649.028"/>
      <point x="186.743" y="691"/>
      <point x="242" y="691" type="curve" smooth="yes" name="mv01"/>
      <point x="296.289" y="691"/>
      <point x="330.521" y="651.205"/>
      <point x="355" y="647" type="curve"/>
    </contour>
    <contour>
      <point x="209" y="455" type="line"/>
      <point x="239.661" y="477.585"/>
      <point x="287.116" y="491"/>
      <point x="325" y="491" type="curve" smooth="yes"/>
      <point x="407.726" y="491"/>
      <point x="479" y="449.244"/>
      <point x="479" y="359" type="curve" smooth="yes"/>
      <point x="479" y="73" type="line"/>
      <point x="534" y="64" type="line"/>
      <point x="534" y="42.6602"/>
      <point x="533.012" y="21.3354"/>
      <point x="533" y="0" type="curve"/>
      <point x="308" y="0" type="line"/>
      <point x="308" y="64" type="line"/>
      <point x="358" y="75" type="line"/>
      <point x="358" y="331" type="line" smooth="yes"/>
      <point x="358" y="371.618"/>
      <point x="336.766" y="393"/>
      <point x="296" y="393" type="curve" smooth="yes"/>
      <point x="269.65" y="393"/>
      <point x="225.333" y="377.472"/>
      <point x="209" y="356" type="curve"/>
      <point x="209" y="75" type="line"/>
      <point x="266" y="63" type="line"/>
      <point x="266" y="41.9933"/>
      <point x="265.012" y="21.0021"/>
      <point x="265" y="0" type="curve"/>
      <point x="43" y="0" type="line"/>
      <point x="32" y="64" type="line"/>
      <point x="88" y="77" type="line"/>
      <point x="88" y="398" type="line"/>
      <point x="37" y="398" type="line"/>
      <point x="26" y="466" type="line"/>
      <point x="75.3676" y="473.599"/>
      <point x="124.507" y="485.774"/>
      <point x="174" y="492" type="curve"/>
    </contour>
  </outline>
</glyph>
<glyph name="ocircumflex" format="1">
  <advance width="499"/>
  <unicode hex="00F4"/>
  <outline>
    <contour>
      <point x="96" y="541" type="line" name="mh01"/>
      <point x="229" y="700" type="line" name="mh02"/>
      <point x="262" y="700" type="line"/>
      <point x="396" y="540" type="line" name="mh03"/>
      <point x="390" y="529" type="line"/>
      <point x="312" y="529" type="line"/>
      <point x="245" y="581" type="line"/>
      <point x="178" y="529" type="line" name="mv01"/>
      <point x="101" y="529" type="line" name="mv02"/>
    </contour>
    <contour>
      <point x="29" y="246" type="curve" smooth="yes"/>
      <point x="29" y="375.649"/>
      <point x="110.631" y="491"/>
      <point x="249" y="491" type="curve" smooth="yes"/>
      <point x="387.95" y="491"/>
      <point x="470" y="376.467"/>
      <point x="470" y="246" type="curve" smooth="yes"/>
      <point x="470" y="115.526"/>
      <point x="389.245" y="-4"/>
      <point x="249" y="-4" type="curve" smooth="yes"/>
      <point x="109.354" y="-4"/>
      <point x="29" y="116.359"/>
    </contour>
    <contour>
      <point x="153" y="240" type="curve" smooth="yes"/>
      <point x="153" y="176.392"/>
      <point x="168.033" y="90"/>
      <point x="249" y="90" type="curve" smooth="yes"/>
      <point x="330.867" y="90"/>
      <point x="346" y="175.404"/>
      <point x="346" y="240" type="curve" smooth="yes"/>
      <point x="346" y="303.178"/>
      <point x="330.542" y="397"/>
      <point x="249" y="397" type="curve" smooth="yes"/>
      <point x="168.448" y="397"/>
      <point x="153" y="302.219"/>
    </contour>
  </outline>
</glyph>
<glyph name="otilde" format="1">
  <advance width="499"/>
  <unicode hex="00F5"/>
  <outline>
    <contour>
      <point x="362" y="697" type="line" name="hr02"/>
      <point x="436" y="627" type="line"/>
      <point x="414.065" y="595.318"/>
      <point x="376.657" y="554"/>
      <point x="335" y="554" type="curve" smooth="yes"/>
      <point x="288.316" y="554"/>
      <point x="258.344" y="595"/>
      <point x="217" y="595" type="curve" smooth="yes" name="at01"/>
      <point x="186.717" y="595"/>
      <point x="165.364" y="575.432"/>
      <point x="157" y="547" type="curve"/>
      <point x="93" y="589" type="line"/>
      <point x="94.481" y="647.416"/>
      <point x="157.067" y="690"/>
      <point x="212" y="690" type="curve" smooth="yes"/>
      <point x="267.924" y="690"/>
      <point x="301.952" y="650.131"/>
      <point x="326" y="646" type="curve"/>
    </contour>
    <contour>
      <point x="29" y="246" type="curve" smooth="yes"/>
      <point x="29" y="375.649"/>
      <point x="110.631" y="491"/>
      <point x="249" y="491" type="curve" smooth="yes"/>
      <point x="387.95" y="491"/>
      <point x="470" y="376.467"/>
      <point x="470" y="246" type="curve" smooth="yes"/>
      <point x="470" y="115.526"/>
      <point x="389.245" y="-4"/>
      <point x="249" y="-4" type="curve" smooth="yes"/>
      <point x="109.354" y="-4"/>
      <point x="29" y="116.359"/>
    </contour>
    <contour>
      <point x="153" y="240" type="curve" smooth="yes"/>
      <point x="153" y="176.392"/>
      <point x="168.033" y="90"/>
      <point x="249" y="90" type="curve" smooth="yes"/>
      <point x="330.867" y="90"/>
      <point x="346" y="175.404"/>
      <point x="346" y="240" type="curve" smooth="yes"/>
      <point x="346" y="303.178"/>
      <point x="330.542" y="397"/>
      <point x="249" y="397" type="curve" smooth="yes"/>
      <point x="168.448" y="397"/>
      <point x="153" y="302.219"/>
    </contour>
  </outline>
</glyph>
<glyph name="odieresis" format="1">
  <advance width="499"/>
  <unicode hex="00F6"/>
  <outline>
    <contour>
      <point x="105" y="634" type="curve" smooth="yes" name="hr00"/>
      <point x="105" y="668.818"/>
      <point x="132.182" y="696"/>
      <point x="167" y="696" type="curve" smooth="yes"/>
      <point x="201.818" y="696"/>
      <point x="229" y="668.818"/>
      <point x="229" y="634" type="curve" smooth="yes" name="mh01"/>
      <point x="229" y="599.182"/>
      <point x="201.818" y="572"/>
      <point x="167" y="572" type="curve" smooth="yes" name="av02"/>
      <point x="132.182" y="572"/>
      <point x="105" y="599.182"/>
    </contour>
    <contour>
      <point x="267" y="634" type="curve" smooth="yes" name="mh02"/>
      <point x="267" y="668.818"/>
      <point x="294.182" y="696"/>
      <point x="329" y="696" type="curve" smooth="yes"/>
      <point x="363.818" y="696"/>
      <point x="391" y="668.818"/>
      <point x="391" y="634" type="curve" smooth="yes"/>
      <point x="391" y="599.182"/>
      <point x="363.818" y="572"/>
      <point x="329" y="572" type="curve" smooth="yes" name="av01"/>
      <point x="294.182" y="572"/>
      <point x="267" y="599.182"/>
    </contour>
    <contour>
      <point x="29" y="246" type="curve" smooth="yes" name="mh03"/>
      <point x="29" y="375.649"/>
      <point x="110.631" y="491"/>
      <point x="249" y="491" type="curve" smooth="yes"/>
      <point x="387.95" y="491"/>
      <point x="470" y="376.467"/>
      <point x="470" y="246" type="curve" smooth="yes" name="mh05"/>
      <point x="470" y="115.526"/>
      <point x="389.245" y="-4"/>
      <point x="249" y="-4" type="curve" smooth="yes"/>
      <point x="109.354" y="-4"/>
      <point x="29" y="116.359"/>
    </contour>
    <contour>
      <point x="153" y="240" type="curve" smooth="yes"/>
      <point x="153" y="176.392"/>
      <point x="168.033" y="90"/>
      <point x="249" y="90" type="curve" smooth="yes"/>
      <point x="330.867" y="90"/>
      <point x="346" y="175.404"/>
      <point x="346" y="240" type="curve" smooth="yes"/>
      <point x="346" y="303.178"/>
      <point x="330.542" y="397"/>
      <point x="249" y="397" type="curve" smooth="yes"/>
      <point x="168.448" y="397"/>
      <point x="153" y="302.219"/>
    </contour>
  </outline>
</glyph>
<glyph name="divide" format="1">
  <advance width="419"/>
  <unicode hex="00F7"/>
  <outline>
    <contour>
      <point x="136" y="84" type="curve" smooth="yes" name="hr00"/>
      <point x="136" y="47.165"/>
      <point x="166.165" y="17"/>
      <point x="203" y="17" type="curve" smooth="yes"/>
      <point x="239.96" y="17"/>
      <point x="269" y="47.3432"/>
      <point x="269" y="84" type="curve" smooth="yes"/>
      <point x="269" y="120.784"/>
      <point x="239.784" y="150"/>
      <point x="203" y="150" type="curve" smooth="yes"/>
      <point x="166.343" y="150"/>
      <point x="136" y="120.96"/>
    </contour>
    <contour>
      <point x="136" y="405" type="curve" smooth="yes"/>
      <point x="136" y="368.612"/>
      <point x="166.621" y="338"/>
      <point x="203" y="338" type="curve" smooth="yes"/>
      <point x="239.507" y="338"/>
      <point x="269" y="368.782"/>
      <point x="269" y="405" type="curve" smooth="yes"/>
      <point x="269" y="441.784"/>
      <point x="239.784" y="471"/>
      <point x="203" y="471" type="curve" smooth="yes"/>
      <point x="166.343" y="471"/>
      <point x="136" y="441.96"/>
    </contour>
    <contour>
      <point x="32" y="194" type="line"/>
      <point x="387" y="194" type="line"/>
      <point x="387" y="294" type="line"/>
      <point x="32" y="294" type="line"/>
    </contour>
  </outline>
</glyph>
